<svg id="Layer_1" data-name="Layer 1" xmlns="http://www.w3.org/2000/svg" xmlns:xlink="http://www.w3.org/1999/xlink" viewBox="0 0 651.27061 336.39358"><defs><style>.cls-1{fill:none;}.cls-2{fill:#f78c20;}.cls-3{fill:#eb2e28;}.cls-4{fill:#f15a25;}.cls-5{fill:#f9b276;}.cls-6{fill:#f89c4a;}.cls-7{fill:#931b1e;}.cls-8{fill:#d82328;}.cls-9{fill:#fff;}.cls-10{fill:#ecd5ab;}.cls-11{clip-path:url(#clip-path);}</style><clipPath id="clip-path"><ellipse class="cls-1" cx="339.81544" cy="274.439" rx="259.29686" ry="189.54394"/></clipPath></defs><polyline class="cls-2" points="650.917 144.324 650.917 143.636 650.917 96.056 -0.428 96.056 -0.428 143.636 -0.428 144.324"/><polyline class="cls-3" points="650.917 240.171 650.917 239.483 650.917 191.904 -0.428 191.904 -0.428 239.483 -0.428 240.171"/><polyline class="cls-4" points="650.917 192.248 650.917 191.56 650.917 143.98 -0.428 143.98 -0.428 191.56 -0.428 192.248"/><path class="cls-5" d="M650.9166,48.22915v-.688c0-26.2775-27.75-47.57963-61.98147-47.57963H61.55348C27.32206-.03845-.428,21.26368-.428,47.54118v.688"/><polyline class="cls-6" points="650.917 96.004 650.917 95.316 650.917 47.736 -0.428 47.736 -0.428 95.316 -0.428 96.004"/><path class="cls-7" d="M.354,288.0753v.688c0,26.27751,27.75005,47.57963,61.98147,47.57963H589.71713c34.23142,0,61.98147-21.30212,61.98147-47.57963v-.688"/><polyline class="cls-8" points="650.917 288.48 650.917 287.792 650.917 240.213 -0.428 240.213 -0.428 287.792 -0.428 288.48"/><polygon class="cls-9" points="472.699 280 237.956 281.454 118.761 279.689 98.352 261.293 111.088 237.38 189.452 203.294 210.311 139.371 225.763 128.529 255.405 64.096 272.402 48.01 333.357 76.309 439.819 185.483 454.447 199.354 495.471 166.595 512.162 173.019 550.124 189.878 580.191 279.051 472.699 280"/><path class="cls-1" d="M515.47269,270.24291c-.30347.44153-.58687.87585-.86079,1.30395.28721.00544.578.00579.86079.01781Z"/><path class="cls-1" d="M77.49813,302.71014a6.38359,6.38359,0,0,0,1.21983,2.07715,3.88258,3.88258,0,0,0,2.82816,1.33633c1.07958,0,2.30337,0,3.26136-3.28228l.04241-.14308c.09727-.31782.16853-.656.24827-1.00041l.43092-1.86621-.59492-2.95371c-.71991-3.57579-1.9273-3.72226-3.22121-3.72848l-.53724.04807a4.21752,4.21752,0,0,0-3.24269,2.37462,8.17674,8.17674,0,0,0-.96591,4.01689,9.4149,9.4149,0,0,0,.427,2.818C77.42914,302.506,77.46363,302.60778,77.49813,302.71014Z"/><path class="cls-1" d="M460.58859,268.26861c.005-.01916.01258-.03747.01753-.05656-1.39655,1.5742-2.845,3.155-4.27258,4.7491q1.43085-.39211,2.92509-.65805A36.08215,36.08215,0,0,0,460.58859,268.26861Z"/><path class="cls-1" d="M410.5223,293.57868a3.49557,3.49557,0,0,0-1.88884-.42923c-2.42043,0-4.32962,2.44022-4.53887,5.8028l-.02488.35119c-.00113.09388,0,.18889,0,.28559,0,3.664,2.00421,6.53459,4.56375,6.53459,1.1661,0,2.6161,0,3.50283-4.208l.47843-2.26943-.561-2.69075C411.57643,294.66957,410.82316,293.832,410.5223,293.57868Z"/><path class="cls-1" d="M603.56683,304.56858c3.38563-.306,6.88111-.61359,10.79889-.95792-1.34014-.89876-2.04973-1.356-2.79077-1.7816q-2.69754-1.52426-5.39224-3.04081Q604.99406,301.74208,603.56683,304.56858Z"/><path class="cls-10" d="M124.93327,253.85187c-.05337.04036-.1018.07776-.155.118,0,.0065-.00014.01308-.00007.01965.05323-.04029.10173-.07776.15517-.11819Z"/><path class="cls-10" d="M212.11911,248.949h-.02566a10.20312,10.20312,0,0,1,.78791,1.67062l.01322-.02793a10.08751,10.08751,0,0,0-.77547-1.64368,9.37677,9.37677,0,0,0-.85139-1.49785h-.00064l.0005.00063A9.38586,9.38586,0,0,1,212.11911,248.949Z"/><path class="cls-10" d="M199.85905,257.8631l-.00106-.05365c-.10009.23978-.20747.47214-.31075.70874-.00375.02714-.00827.05422-.01209.08136C199.64288,258.35383,199.75472,258.11229,199.85905,257.8631Z"/><path class="cls-10" d="M145.32268,276.37088H168.257c7.77308-13.54621,15.30673-26.55645,22.86547-39.60742l.00028-.00057a1.166,1.166,0,0,0,.18938-.32731,5.824,5.824,0,0,0,.51972.32674l.00063.0004.00113.00074a1.38067,1.38067,0,0,0,.31415.2173q-3.21933,10.55877-6.42643,21.125,2.70166-4.66719,5.40114-9.32769h.026q-2.72861,4.71131-5.45607,9.42253c-1.10772,3.64156-2.21189,7.27661-3.3358,10.94734.01124-.00644.02086-.01426.0321-.0207,8.43176-4.88925,13.92622-12.36842,17.46927-22.151l.00106.06184a89.16192,89.16192,0,0,1-.31181,12.76971c.10328-.27271.21066-.54053.31075-.81691l.00106.06184c-.10433.28722-.21617.56563-.3239.84886-.13148,1.07935-.29251,2.15179-.51285,3.21273-.84426,3.94084-1.7968,7.876-2.78583,11.77794.702-.05288,1.39606-.08449,2.09865-.08449a25.49779,25.49779,0,0,1,11.8514,2.91607,245.54759,245.54759,0,0,0,11.603-40.96039l.00021-.00057c.18917-.59977.28375-1.12686.42577-1.72663v-.00041c.09458-.70847.28375-1.4536.42576-2.14405.23639-1.39933.5991-2.70781.93021-4.05271.00643.02094.00552.038.0116.05866a7.25791,7.25791,0,0,1,.27222,2.90369c-.09458,1.09036-.2366,2.16254-.28382,3.23482-.04736.59977-.09458,1.12686-.14194,1.72646-1.151,13.00861-2.3479,26.06366-3.58392,39.07716a26.6464,26.6464,0,0,1,7.39043-1.0321,24.34012,24.34012,0,0,1,13.98624,4.397,27.26486,27.26486,0,0,1-.455-4.93147c0-12.61237,8.66886-22.87292,19.32383-22.87292,9.44369,0,17.10614,7.51445,19.013,17.83578a162.45413,162.45413,0,0,0,9.77424-22.36889c1.21389-3.38018,2.66431-6.669,3.831-10.10378l.00014-.00057a10.15355,10.15355,0,0,0,.45744-1.23588,4.72113,4.72113,0,0,0,.18923-.49075l.00014-.00041a12.88828,12.88828,0,0,0,.6148-4.63374c-.56772-11.99468-1.214-24.04354-1.8764-36.03814-.09458-1.83548-.23639-3.671-.36264-5.543-.18245-.05239-.45-.10511-.63861-.1575l-.02354-.006c-4.94216,10.08675-9.83765,20.13855-14.90514,30.60475l-.02623.05386c0-11.1767-.04736-21.681.04744-32.22163a22.6339,22.6339,0,0,1,.93021-5.87c1.214-3.92552,2.42806-7.85087,3.68938-11.77639l.00043-.00131a.6311.6311,0,0,1,.0938-.27059l.00035-.00073c4.14675-13.44844,8.40385-26.8422,12.598-40.34523.93028-2.90767,1.95507-5.761,2.94827-8.72311.00742.00864.01046.01548.01753.0242a1.76275,1.76275,0,0,1,.48712,1.26611c-.741,11.57636-1.63979,23.13472-2.19167,34.76575-.18917,4.28908-.3784,8.6506-.473,13.01228v.27263c-.09458,4.36168-.14194,8.77778-.09458,13.23031.09458,5.543.99334,11.14037,1.45063,16.62882.52021,5.54273.97743,11.0857,1.45042,16.57424.2366.05434.473.16344.64646.218l.00417-.00669c5.28048-8.394,10.51394-16.78779,15.77865-25.23639-.0029.02-.00749.039-.01039.05907-.83789,5.738-2.42134,11.04544-3.44267,16.40622-1.95508,10.28613-5.31342,19.7-11.2892,27.71452-.331.49075-.70938,1.01776-1.08778,1.50834-.03167.05459-.12625.109-.12625.21812a9.18981,9.18981,0,0,0-1.214,5.1614c.55187,11.03119,1.3875,21.899,2.0025,32.93027.01138.17958.00177.36185.00283.543a26.81155,26.81155,0,0,1,5.51715-.58959c8.93,0,16.50888,4.46524,21.53246,11.858a32.57417,32.57417,0,0,1,24.81532-11.639,31.23934,31.23934,0,0,1,15.19122,3.90091,40.58961,40.58961,0,0,1,6.17852-5.03649c2.19167-1.454,4.11522-3.562,6.30675-5.07031,6.76419-4.77967,12.04615-11.14053,16.38192-18.82787,2.56987-4.525,5.54967-8.77722,8.21419-13.22958l.00028-.00057a10.9681,10.9681,0,0,0,1.025-1.72663l.00036-.00041a.40215.40215,0,0,0,.18888-.21772,41.831,41.831,0,0,1,10.64267-12.64863c3.04306-2.41717,5.83384-5.1614,8.78225-7.79644l.01237.01336a2.61673,2.61673,0,0,0,.49214.53182c-2.74341,6.72425-5.50265,13.44843-8.2619,20.118-.18916.59977-.40986,1.12686-.64646,1.72646-2.80293,6.88681-5.59631,13.70021-8.43629,20.59183.78388-.05142,1.56148-.08507,2.33956-.08507a36.9864,36.9864,0,0,1,18.231,4.77649c.24911-.359.49745-.71881.74741-1.0761,5.881-8.287,12.40829-15.91946,18.3365-24.20641l.00035-.00057c.42591-.54535.85168-1.12686,1.26154-1.72663l.00035-.00041a120.821,120.821,0,0,0,7.3787-11.63063c.1418-.14536.473-.2.93021-.4725l.00226.01222c.47186,2.35794.8029,4.60775,1.401,6.76647a2.77865,2.77865,0,0,0,1.73423,1.87191,22.48957,22.48957,0,0,0,3.69688.41228c2.90027-.02094,3.782-1.538,5.63718-6.37324.142-.32706.42576-.6542.8357-1.34466l.00353.03585c.32892,3.20027.51844,5.881.92668,8.57825a4.97649,4.97649,0,0,0,.85153,2.14446,1.122,1.122,0,0,0,.3625.32705c1.16681.47267,2.38091.90883,3.59494,1.39941,3.374,1.29023,6.8271,2.47168,10.6901,3.87109l.00078-.00969c.048-1.341.28318-2.628.42463-3.86066l.00021-.00057a11.42533,11.42533,0,0,0,.18917-1.72663v-.00041a5.61936,5.61936,0,0,0-.3784-2.90735c-4.285-9.35165-10.9612-17.08919-13.89795-27.9064l-.00848-.02632c-3.39531,4.89186-6.57085,9.40444-9.68362,13.89771l-.02891.04147a85.22818,85.22818,0,0,1,1.40327-11.39482l1.67132-11.14028a8.068,8.068,0,0,0-2.93243-.57981c-2.80131-.00929-5.19918,1.5552-7.55146,3.25755l-.0169.01189a19.53925,19.53925,0,0,1-1.356-1.94459c-4.24119-7.52389-8.67175-14.90235-12.59781-22.64412a28.127,28.127,0,0,0-2.47535-4.25266l-.00064-.00131a1.24143,1.24143,0,0,0-.141-.27059l-.00029-.00073a20.09547,20.09547,0,0,0-9.38134-7.57841c-7.0478-2.635-12.6924-7.70552-17.78512-13.82992-3.07452-3.67114-6.433-6.99689-9.71246-10.28614-.78826-.79972-1.95515-1.61761-2.83813-1.50851-4.2571.81781-7.00044-1.45384-9.61788-4.99779-2.47528-3.54378-5.50265-6.506-8.11988-9.9044-2.90112-3.76191-6.07037-6.99689-10.18552-8.86863-2.74348-1.23588-4.28855-3.50753-5.31341-6.66983-.33112-.92691-.56757-1.78082-.83563-2.68964l-.00559-.01964c-.09267-.33692-.1857-.641-.27837-.9617l-.00029-.0013c-1.07194-3.70708-2.19153-7.41374-4.39861-9.57613-3.12189-3.10771-8.30926-3.38017-12.50323-5.21582a28.73874,28.73874,0,0,1-6.62217-4.089c-2.28612-1.872-4.35154-4.089-6.92162-6.66967-1.71869,2.417-4.33591,4.30709-4.61974,6.61524a113.04652,113.04652,0,0,0-1.26139,18.93535v.001c.04736.3269.04722.58128.09444.962l.00015.00155a49.91883,49.91883,0,0,0,.75694,6.52423c.50445,3.01677.599,6.07.88285,9.03232a54.02383,54.02383,0,0,1-4.33591-11.722,16.9176,16.9176,0,0,0-1.40327-3.8165h-.01576c-.00255-.00791-.0075-.01165-.01011-.01964a3.61582,3.61582,0,0,0-.49448-.9617l-.00085-.0013a22.3075,22.3075,0,0,0-3.54666-4.77837,13.50052,13.50052,0,0,1-2.79077-5.21583Q311.22,72.07467,306.14308,52.21094a9.2713,9.2713,0,0,0-3.95758-5.97912c-5.04536-3.18039-9.85426-6.66975-14.75782-9.95916-.04736,0-.04736-.05443-.04736-.05443l-.00254-.00171a9.15286,9.15286,0,0,0-1.44795-.96154l-.00254-.00147c-.01237-.00236-.01449-.01662-.02906-.01662-2.45959-1.72647-5.0139-3.41668-7.75724-5.30676-1.21424,1.83549-2.60153,3.58029-3.91022,5.30676h-.01583l-.01174.01662c-.23292.33806-.49483.65983-.68081.963l-.00113.00171a23.14933,23.14933,0,0,0-3.68953,6.66959c-2.33348,7.433-2.94841,15.61114-4.24133,23.40759a1.35515,1.35515,0,0,0,.50458.218c2.09695-5.65191,4.20974-11.3039,6.30683-16.88312a5.13918,5.13918,0,0,1,.88285.1997c-2.80647,16.04739-1.81313,32.18538-.473,48.32345H272.118c-1.76605-2.96235-3.59487-5.92445-5.73918-9.57751-1.11931,4.525-2.19147,8.9405-3.26355,13.28361l-.00014.001a5.60389,5.60389,0,0,0-.23632.962l-.00028.00155c-2.28626,9.32288-4.57252,18.46423-6.85863,27.769-2.71189-4.307-3.185-6.179-2.42806-10.268,1.02479-5.8156,2.00229-11.68562,3.1691-17.483l.00276-.01964c.04623-.38686.09281-.64067.139-.9617l.00036-.0013c.189-.90834.378-1.762.5043-2.63391a34.60416,34.60416,0,0,0,.473-12.79415c-.42577-2.79866-.55188-5.70642-.93028-8.50508-.473-4.30725-.97758-8.66893-1.54522-13.83008-4.43049,7.16033-8.40363,13.612-12.36121,20.06351-2.52265,4.089-5.37654,8.12358-6.023,13.3575a15.71212,15.71212,0,0,1-1.07174,4.34221l-.00028.001c-.09465.3269-.28318.63554-.40943.962l-.00064.00155h-.01569a10.34864,10.34864,0,0,1-6.90607,5.50647c-2.14424.5816-3.27945,2.30806-4.02049,4.72524-1.40341,4.79775-2.80661,9.57726-4.6671,14.21165a30.49705,30.49705,0,0,0-1.81313,15.0658c.45722,3.38034.64646,6.8332.88285,10.268.2366,0,.45729-.05442.64646-.05442,2.06542-7.90547,4.06793-15.86553,6.11758-23.82542.37841.05443.74105.10885,1.11945.16345,0,5.32484.2366,10.64977,0,15.97438A39.188,39.188,0,0,1,217.8795,168.594c-.142.2-.28375.3634-.42577.58152l-.00028.00073a1.25069,1.25069,0,0,0-.14088.27059l-.0005.00074-.00042.0013a12.51518,12.51518,0,0,0-1.40292,5.10608c-.64646,9.68636-1.11944,19.42748-1.6241,29.05941-.28382,4.25258-.42563,8.50524-.70945,13.33933l.027-.01588c3.91375-2.30164,7.26517-4.29577,10.61573-6.27213l.01124.00937a3.92773,3.92773,0,0,0,.5564.46305c-3.4057,7.7601-6.71682,15.55655-10.359,23.89818-.23652.59977-.52034,1.12686-.75673,1.72646-.21716.62552-.49632,1.26791-.77526,1.89416l-.01322.03218a12.64379,12.64379,0,0,0-.78791-1.9256l-.00014-.00057a11.37052,11.37052,0,0,0-.85175-1.72663l-.00014-.00041c-1.90771-3.54363-4.09924-6.4513-3.68917-11.03086,1.687-18.1916,3.18487-36.4197,4.54085-54.55687v-.00131c.00035-.10731.0463-.16287,0-.27059v-.00073c.09465-.63611.14187-1.29031.17333-1.88992a108.367,108.367,0,0,0-.31528-14.46619c-.28382-4.14364-.9775-8.287-1.6398-13.44844-3.02716,2.96235-6.66946,4.8341-7.74155,7.851-2.52264,7.32378-5.23466,14.53879-7.33161,21.95351l-.00014.00032c-.04687.10813-.04737.16369-.09395.271l-.00035.00074a104.17209,104.17209,0,0,0-3.83162,20.00957c-.28382,4.14355-1.16667,8.23252-1.86049,12.70322-.93021-.6542-1.59243-1.0176-2.14431-1.45376-5.70765-4.36168-11.58864-8.28719-16.85484-13.12129-6.68523-6.03364-13.733-9.46841-22.263-7.70552a1.347,1.347,0,0,1-.80417,0c-1.86049-.636-3.91015-.96317-5.50258-2.09-3.26369-2.27165-6.25953-5.01587-9.71246-7.7601-.88306,16.51972-.473,32.45784-3.97334,48.05065-.883-6.23342-1.71862-12.48518-2.55432-18.773-2.47528,11.88542-3.32681,24.098-6.16473,35.729l-.00022.00073a17.82255,17.82255,0,0,1-.47284,1.72573,69.6404,69.6404,0,0,1-4.6671,13.0122c-.23639.54518-.50444,1.07227-.78826,1.61745.23638.109.55187.27263.83562.43616l.01011-.00872q.27876-.24078.55753-.48187c3.12189-2.85333,6.291-5.70658,9.98052-8.92331l.00014.02241c.00035,2.074.04694,3.19856-.00014,4.26651q-.18387,3.93973-.155,7.86171c.05316-.04636.10159-.08947.155-.136l.00014.02241c-.05344.0466-.10194.08979-.15517.13623a154.48967,154.48967,0,0,0,1.732,21.90878,26.70462,26.70462,0,0,1,9.3219-1.68891A28.80178,28.80178,0,0,1,145.32268,276.37088Zm220.81384-20.81475c-.33119-2.21706-.70945-4.52455-1.07209-6.778h.026c-.09459-.59961-.142-1.1267-.28382-1.72688l-.00015-.00073h.00015c.1418.59985.18923,1.12686.28382,1.72647.36073,2.24166.73687,4.53645,1.06643,6.74308C366.14854,255.53226,366.14514,255.54391,366.13652,255.55613Zm-15.83012-101.828.02312.00774a88.04216,88.04216,0,0,0,9.02719,2.84534,15.729,15.729,0,0,1,10.73718,7.81478,33.70012,33.70012,0,0,0,3.59487,4.77951c.04743.16361.142.27263.2366.27263a33.53535,33.53535,0,0,0,2.52264,2.63521l-.01477-.03977c-.32581-.894-.63664-1.75425-.9628-2.59544l-.00049-.00131a1.0021,1.0021,0,0,0-.09367-.27059l-.00028-.00073c-1.356-3.76191-2.712-7.57841-4.11529-11.44926a6.51372,6.51372,0,0,1,1.76541-.37383c1.61569-.08864,2.86931.66944,3.98953,2.35476,2.19168,3.23482,4.38314,6.34253,6.62218,9.46833l.23645.27263c1.624,2.30815,3.31113,4.63422,5.04551,6.94229a9.51807,9.51807,0,0,0,3.45292,2.74423c8.30926,3.27116,16.66567,6.50614,25.06952,9.57735a6.71784,6.71784,0,0,0,2.11059.37431,8.67662,8.67662,0,0,0,2.1306-.2107c3.87876-1.03593,7.69433-2.32624,12.23517-3.72557l-.003.00978c-1.7312,5.12123-1.92326,10.06011-6.3983,12.80254-5.13994,3.23482-9.90169,7.21493-14.97872,10.59511a5.736,5.736,0,0,1-3.19236.75083,8.46711,8.46711,0,0,1-1.11189-.09663c-4.0048-.76322-7.237-3.23482-9.98058-6.66959-2.99118-3.5569-6.20319-6.824-9.83857-10.74193l-.01569-.01678c-1.85618,2.79214-3.49308,5.36762-5.26995,8.10484l-.012.01866q-10.97379-15.184-22.07375-30.45874l-.00113-.00131-.23476-.27059-.00063-.00073c-3.54758-4.9432-7.14246-9.90449-10.69-14.84777C350.21182,154.10968,350.21182,153.94615,350.3064,153.72812Zm-7.346,16.14361a20.70933,20.70933,0,0,1,1.98526,2.70218c4.57238,8.92331,11.19462,15.81094,17.40679,23.08029a7.2119,7.2119,0,0,1,1.76584,3.65305c.804,11.93985,1.40326,23.898,2.11285,35.729.04722.59977.09458,1.18128.14181,1.72646.04736,1.61737.12625,3.27124.22083,4.88869a2.67016,2.67016,0,0,1-.43686,1.854c-.00834.01222-.01174.02387-.02036.03609-.33119-2.21706-.70945-4.52455-1.07209-6.778l-.00014-.00057c-.09465-.59977-.14187-1.12686-.28382-1.72663v-.00041c-.69368-4.41586-1.40327-8.88656-2.09709-13.339-.946-6.36061-1.87618-12.70322-2.94827-18.99132a11.68842,11.68842,0,0,0-1.57667-3.94361c-3.59494-5.57922-7.14259-11.23121-11.02114-16.61049-2.4755-3.39851-3.54765-7.26935-4.20988-12.32173ZM240.71005,213.3553c2.50709-12.97578,4.93515-25.93362,7.88364-38.80037a25.79406,25.79406,0,0,1,1.76583-5.10681l.0005-.00131c.04658-.10731.04708-.16287.0938-.27059l.00036-.00073c.97743-2.14446,2.11278-4.2525,3.043-6.45155.00679.00391.01435.00522.02121.009a6.43211,6.43211,0,0,0,.86171.37269c-.28382,2.03544-.5991,4.03438-.88292,6.06982a2.68373,2.68373,0,0,0-.04736.27263c-.85139,5.652-1.687,11.304-2.56987,17.04681a1.91475,1.91475,0,0,1,.599.27255l.004-.00929c1.30734-3.0136,2.56753-6.0637,4.01654-8.96845a20.92706,20.92706,0,0,0,2.38084-8.34162v-.00131a.27448.27448,0,0,0,0-.27059v-.00073a8.97869,8.97869,0,0,0,.09458-1.61745c-.14194-17.75544,4.06793-34.80226,6.90585-52.13971a1.96747,1.96747,0,0,1,1.025-1.3449l.001.01744c.23716,6.246.97616,12.47353.66123,18.66491-.70958,12.15813-1.59243,24.31617-2.47549,36.41971v.27263c-.37841,4.99779-.75681,10.06809-1.16667,15.0658a15.62979,15.62979,0,0,1-1.11959,4.8341c-3.64209,9.10508-7.47342,18.13717-10.97371,27.27851-1.26146,3.28949-1.73445,6.88771-2.42813,10.34081-.28375,1.39933-.473,2.85309-.69382,4.307-.18309.05263-.45482.15513-.68662.211l-.023.00709c-2.14424-5.125-4.28855-10.17712-6.33821-15.33852A5.12889,5.12889,0,0,1,240.71005,213.3553Zm-29.44233,33.69519a11.3432,11.3432,0,0,1,.85139,1.72647,12.49981,12.49981,0,0,1,.77547,1.89456l-.01322.03218a12.64379,12.64379,0,0,0-.78791-1.9256h.02566a11.35407,11.35407,0,0,0-.85153-1.72688l-.0005-.00073Z"/><path class="cls-10" d="M40.92627,285.67988c-.84835,4.38322-1.78294,7.12821-.22818,11.1845.2588-1.47926.55435-2.9476.925-4.39052,4.94774-19.911,20.0754-34.02,37.667-35.08116.88844-.08278,1.63492-.08278,2.19705-.08278a37.37622,37.37622,0,0,1,24.411,8.99721c1.02239-4.78545,2.04478-9.549,3.06717-14.329.12611-.76347.31528-1.50852.45729-2.21722.66216-3.07137,1.30862-6.12457,1.92355-9.19578a5.35258,5.35258,0,0,0-.56722-3.76126l-.00035-.00073-.04736-.1091-1.40327-1.61737-.00028-.00041c-6.71669-7.7962-13.48066-15.44712-20.26033-23.02528-.64639-.76347-1.30862-1.454-2.09688-2.27182-.42577.76322-.74119,1.29031-1.025,1.83566-3.31091,7.26935-6.81127,14.42969-9.99614,21.79a14.41857,14.41857,0,0,1-.83562,1.67147l-.00014.00025-.0005.0009a9.41764,9.41764,0,0,1-1.26076,1.72573,7.533,7.533,0,0,1-3.16917,2.09c-5.23467,1.89008-9.23947,5.59732-12.97622,10.12261-6.60636,8.02017-7.57812,13.81566-12.4752,21.77341"/><path class="cls-10" d="M566.963,208.991l-.154-.08681c-.35048.65608-.71807,1.30155-1.08849,1.94511,1.17657-.1037,2.38791-.21016,3.65044-.32115C568.21453,209.75281,567.60242,209.35828,566.963,208.991Z"/><path class="cls-10" d="M535.42114,248.948c-.42577-.52021-.88306-1.02487-1.356-1.49785h-.00092l.00064.00063c.47327.47334.93056.978,1.35633,1.49821H535.391c1.19459,1.37428,2.30132,2.76589,3.37785,4.18308h.031C537.723,251.71462,536.616,250.32267,535.42114,248.948Z"/><path class="cls-9" d="M106.57132,281.80978a29.34142,29.34142,0,0,1,2.35341,5.36905l.00382-.00636a29.33791,29.33791,0,0,0-2.35349-5.366Z"/><polygon class="cls-9" points="97.846 294.198 97.854 294.2 106.485 292.022 106.487 292.018 97.846 294.198"/><path class="cls-9" d="M80.83816,281.58322c.08476-.00446.17079-.0029.25569-.00481C81.009,281.58018,80.92292,281.57883,80.83816,281.58322Z"/><path class="cls-9" d="M67.72318,290.11572h-.006a18.69874,18.69874,0,0,0-1.68214,4.285l.00361.013a18.692,18.692,0,0,1,1.68652-4.298,15.68406,15.68406,0,0,1,12.42434-8.45121,4.71848,4.71848,0,0,1,.68866-.08129,4.99009,4.99009,0,0,0-.69057.08016v.00113A15.68407,15.68407,0,0,0,67.72318,290.11572Z"/><path class="cls-9" d="M81.52669,281.57035c-.14584,0-.289.00488-.43284.00806.14682-.003.29294-.00742.44188-.00742Z"/><path class="cls-9" d="M65.39168,299.59157a21.362,21.362,0,0,1,.16316-2.64133l-.00813.00728a21.37722,21.37722,0,0,0-.16167,2.63165,21.07988,21.07988,0,0,0,1.02486,6.496l.00085.0024h.00573A21.07987,21.07987,0,0,1,65.39168,299.59157Z"/><path class="cls-9" d="M67.71852,290.1131l-.00135.00262h.006a15.68407,15.68407,0,0,1,12.42441-8.45121v-.00113c-.00763.00148-.015.00028-.02283.00148A15.68462,15.68462,0,0,0,67.71852,290.1131Z"/><polygon class="cls-9" points="96.295 294.593 97.854 294.2 97.846 294.198 96.294 294.59 96.295 294.593"/><path class="cls-9" d="M65.54671,296.95752l.00813-.00728a20.03763,20.03763,0,0,1,.4838-2.5365l-.00361-.013A20.04509,20.04509,0,0,0,65.54671,296.95752Z"/><polygon class="cls-3" points="97.841 294.197 97.846 294.198 106.487 292.018 106.488 292.015 97.841 294.197"/><path class="cls-3" d="M108.91144,287.2011l.01329-.02227a29.34142,29.34142,0,0,0-2.35341-5.36905l-.01428.01286A29.35065,29.35065,0,0,1,108.91144,287.2011Z"/><path class="cls-3" d="M65.385,299.58917a21.37722,21.37722,0,0,1,.16167-2.63165l-.022.01972a21.39253,21.39253,0,0,0-.15905,2.61469,21.07654,21.07654,0,0,0,1.02479,6.49563h.02029l-.00085-.0024A21.07988,21.07988,0,0,1,65.385,299.58917Z"/><path class="cls-3" d="M67.71717,290.11572h-.01788l-.00014.00014a18.6836,18.6836,0,0,0-1.67345,4.25193l.00933.03294A18.69874,18.69874,0,0,1,67.71717,290.11572Z"/><path class="cls-3" d="M96.38813,304.31155l3.90139.83039c-.28368.331-.51979.662-.74076.94562h.02573c.22083-.28374.45722-.61493.741-.946l-3.92591-.83563Z"/><path class="cls-3" d="M67.71852,290.1131a15.68462,15.68462,0,0,1,12.40624-8.44824l-.00127.00007a15.68522,15.68522,0,0,0-12.4242,8.45079h.01788Z"/><polygon class="cls-3" points="96.293 294.587 96.294 294.59 97.846 294.198 97.841 294.197 96.293 294.587"/><path class="cls-3" d="M66.035,294.40073l-.00933-.03294a20.02582,20.02582,0,0,0-.501,2.60945l.022-.01972A20.04509,20.04509,0,0,1,66.035,294.40073Z"/><path class="cls-9" d="M138.63,295.43055l-.0111-.00113c-.34631,0-.68683.017-1.02147.04927-5.0788.49893-8.7457,4.653-9.14454,10.6076v.00127h.00672C128.88505,299.73939,133.02459,295.43861,138.63,295.43055Z"/><path class="cls-9" d="M120.17328,280.7543l-.00176-.03711c-.28517.373-.5545.76437-.81916,1.16073q.57312,1.51938,1.03031,3.09609C120.3129,283.57,120.24305,282.16705,120.17328,280.7543Z"/><path class="cls-9" d="M147.99373,302.00626a10.347,10.347,0,0,0-9.35547-6.57843q-.52954,0-1.0409.05084c.3346-.03222.67517-.04925,1.02149-.04925l.01111.0011c-5.60535.00812-9.74488,4.3089-10.17041,10.657h-.00672v.07764a7.31194,7.31194,0,0,0-.04736,1.04053,13.79548,13.79548,0,0,0,1.39831,6.27941v.00007a10.32607,10.32607,0,0,0,2.42566,3.15289,9.66246,9.66246,0,0,0,1.03235.78461,9.94155,9.94155,0,0,0,5.37647,1.54522c4.56421,0,8.70642-3.24975,9.98986-8.37805a13.88574,13.88574,0,0,0,.41639-3.38415,8.72758,8.72758,0,0,0-.04737-1.11945,13.03108,13.03108,0,0,0-1.00341-4.08"/><path class="cls-9" d="M121.474,289.61057l-.1254-.65389c-.25965-1.35421-.58687-2.68042-.96591-3.98267q.13921,2.80144.27852,5.605C120.92762,290.24946,121.19391,289.91969,121.474,289.61057Z"/><path class="cls-9" d="M109.97405,291.138l-3.48671.87974-.002.00467,3.49541-.88186a31.61161,31.61161,0,0,0-1.05222-3.968l-.00382.00636A31.588,31.588,0,0,1,109.97405,291.138Z"/><path class="cls-9" d="M109.95461,291.14086l-3.46635.87451-.00092.00233,3.48671-.87974a31.588,31.588,0,0,0-1.04932-3.95913l-.01329.02227A31.56759,31.56759,0,0,1,109.95461,291.14086Z"/><path class="cls-3" d="M137.59739,295.47869c-5.0887.49037-8.76444,4.64737-9.16383,10.60887h.01929v-.00127C128.85169,300.13172,132.51859,295.97762,137.59739,295.47869Z"/><path class="cls-9" d="M214.76433,306.08629l-.00014.00127h.00389c.37791-6.583,3.54058-9.93972,8.1676-9.94743l-.01082-.00113q-.42615,0-.83513.03853C217.924,296.57332,215.11891,299.91067,214.76433,306.08629Z"/><path class="cls-9" d="M175.16851,272.888c-.35458.53357-.70613,1.06134-1.06141,1.59632v.039c.364-.54813.72415-1.0887,1.08735-1.63534Z"/><path class="cls-9" d="M188.85283,272.888a35.18511,35.18511,0,0,1-2.99606,2.15428v.01809a35.18193,35.18193,0,0,0,3.02348-2.17237Z"/><path class="cls-9" d="M191.95329,296.42247a7.06451,7.06451,0,0,1,1.98865-.28184l-.01237-.00163a7.08469,7.08469,0,0,0-1.00309.07076,6.99313,6.99313,0,0,0-.97269.21052Z"/><path class="cls-9" d="M209.21806,286.71c1.87916-4.02608,3.55783-8.12377,5.09152-12.271l-.03167.01534c-1.53227,4.14208-3.20911,8.23475-5.086,12.25595a.7205.7205,0,0,0-.091.26693l.01894.01527.003.00283.00071-.00156A.67121.67121,0,0,1,209.21806,286.71Z"/><path class="cls-9" d="M195.75,296.37087l-.0024.00148.02092.00269-.00339-.00121Z"/><polygon class="cls-9" points="185.883 286.394 185.879 286.403 185.879 288.596 185.883 288.592 185.883 286.394"/><path class="cls-9" d="M230.02009,303.9986V319.504h.02248V304.58844C230.04257,304.38705,230.02942,304.19406,230.02009,303.9986Z"/><path class="cls-9" d="M201.11925,305.88115V319.504h.02247V305.84566Z"/><path class="cls-9" d="M182.38872,277.02724l-.00608.01746a37.93892,37.93892,0,0,0,3.47413-1.98434v-.01809A37.947,37.947,0,0,1,182.38872,277.02724Z"/><polygon class="cls-9" points="185.883 286.394 185.883 284.471 185.879 284.471 185.879 286.403 185.883 286.394"/><polygon class="cls-9" points="162.553 295.664 162.553 306.088 162.579 306.088 162.579 284.377 162.553 284.377 162.553 295.664 162.553 295.664"/><path class="cls-9" d="M167.55151,284.37653h.02588q3.29323-4.98185,6.52971-9.8532v-.039Q170.852,279.3861,167.55151,284.37653Z"/><path class="cls-3" d="M214.74185,306.08756h.02234l.00014-.00127c.35458-6.17562,3.15963-9.513,7.3254-9.90876C217.91181,296.56357,215.09707,299.90141,214.74185,306.08756Z"/><path class="cls-3" d="M191.95379,296.42028a6.99313,6.99313,0,0,1,.97269-.21052,7.16257,7.16257,0,0,0-.97241.20917Z"/><path class="cls-3" d="M185.85677,286.45871v2.15951c.00672-.0082.0152-.01456.02248-.02213v-2.1928Z"/><path class="cls-3" d="M185.87925,284.47112h-7.23336l-.00028.00028h7.21116v1.98731l.02248-.05542Z"/><path class="cls-9" d="M241.792,275.69106c-.18726-.11883-.37932-.23024-.56969-.34447a19.90482,19.90482,0,0,0,.56969,2.09391Z"/><path class="cls-9" d="M281.55829,272.888c-1.009,1.79411-2.05546,3.5685-3.12118,5.33342v.0427c1.0747-1.779,2.13-3.56752,3.14712-5.37612Z"/><path class="cls-9" d="M290.993,306.08629l-.00007.00127h.00848c.66137-6.86619,3.91884-9.94007,8.624-9.94743l-.01-.00113q-.43793,0-.85867.03584C294.51676,296.54179,291.61338,299.64664,290.993,306.08629Z"/><path class="cls-9" d="M306.89989,304.58363v10.15866l.01781-.01308V305.093C306.9177,304.91969,306.90611,304.75329,306.89989,304.58363Z"/><path class="cls-9" d="M277.9268,279.06276q.256-.42021.51031-.84135v-.494C278.27947,278.17949,278.11526,278.62745,277.9268,279.06276Z"/><path class="cls-9" d="M272.449,287.78252c-1.77588,2.75013-3.63057,5.39012-5.5942,7.90548v.03358l.00728-.0087c1.971-2.52264,3.83147-5.17154,5.61307-7.93085q1.28961-2.0064,2.561-4.0164c-.02707.03245-.0574.06171-.08468.094Q273.709,285.82335,272.449,287.78252Z"/><path class="cls-9" d="M277.9268,279.06276c-.02828.06525-.06178.12732-.09069.19221q.302-.49476.601-.99086v-.0427Q278.18285,278.64248,277.9268,279.06276Z"/><path class="cls-9" d="M277.35259,298.455v21.049h.01781V298.42823Z"/><path class="cls-9" d="M277.83611,279.255q-1.38142,2.26322-2.7999,4.51066A19.27386,19.27386,0,0,0,277.83611,279.255Z"/><path class="cls-9" d="M274.95153,283.85958c.02728-.03224.05761-.0615.08468-.094q1.42077-2.24667,2.7999-4.51066c.02891-.06489.06241-.127.09069-.19221Q276.46013,281.47029,274.95153,283.85958Z"/><path class="cls-3" d="M290.97519,306.08756h.01775l.00007-.00127c.62037-6.43965,3.52375-9.5445,7.76381-9.91145C294.50722,296.53458,291.59642,299.63929,290.97519,306.08756Z"/><path class="cls-9" d="M354.98333,296.78447a9.36549,9.36549,0,0,0-4.76154-1.35583,9.53668,9.53668,0,0,0-.96662.04927,9.5289,9.5289,0,0,1,.95665-.04849l.01336.001c-5.16631.00706-9.92078,4.21369-10.39349,10.65715h-.01625a8.74615,8.74615,0,0,0-.04716,1.119,13.09364,13.09364,0,0,0,1.0248,5.17161,10.30649,10.30649,0,0,0,9.42871,6.59057c5.23452,0,10.23266-4.61973,10.23266-11.76218A11.878,11.878,0,0,0,354.98333,296.78447Z"/><path class="cls-9" d="M350.22518,295.43041l-.01336-.001a9.5289,9.5289,0,0,0-.95665.04849c-4.785.48741-8.99623,4.56467-9.43966,10.60916l-.00007.00049h.01625C340.3044,299.6441,345.05887,295.43747,350.22518,295.43041Z"/><path class="cls-3" d="M349.25517,295.47791c-4.789.48281-9.0057,4.56156-9.44963,10.60965h.0099l.00007-.00049C340.25894,300.04258,344.47016,295.96532,349.25517,295.47791Z"/><path class="cls-9" d="M425.33356,272.9193l.01258.00792.00488.00339.00071-.001c.69382-1.02486,1.49785-2.0025,2.28625-2.97993,1.65924-2.02853,3.3746-4.00813,5.10884-5.97176l-.01583-.01117c-1.7377,1.96738-3.4566,3.9508-5.11916,5.98328C426.82632,270.92415,426.02547,271.8984,425.33356,272.9193Z"/><path class="cls-9" d="M392.53494,298.23319l-.00043.0063.00615-.00389c.59882-9.61067,7.495-16.65415,16.079-16.66475l-.00707-.0005a15.48051,15.48051,0,0,0-1.58763.08136C399.19231,282.46974,393.09628,289.22333,392.53494,298.23319Z"/><path class="cls-9" d="M395.71881,258.36691l-.03393.01174c-.47419.67919-.9517,1.35647-1.40447,2.0481-.286.4399-.58757.86121-.88193,1.29108l.04313-.02531c.28855-.42173.58446-.8347.865-1.26613C394.76188,259.731,395.24187,259.04978,395.71881,258.36691Z"/><path class="cls-9" d="M382.243,273.74065l-.01492.03026a52.68684,52.68684,0,0,0,11.21357-12.07839l-.04313.02531A52.69579,52.69579,0,0,1,382.243,273.74065Z"/><path class="cls-9" d="M373.21033,303.4229a22.00561,22.00561,0,0,0-.75681-3.59487l-.00975.02489a21.96607,21.96607,0,0,1,.74981,3.56546Z"/><path class="cls-9" d="M373.183,303.41555l.01054.00283a21.96607,21.96607,0,0,0-.74981-3.56546l-.00615.01576A21.90547,21.90547,0,0,1,373.183,303.41555Z"/><path class="cls-3" d="M405.25865,269.05751c-.14329-.08752-.36377-.13636-.54573-.22727.04722-.2366.09458-.473.1418-.69382l-.027.0048c-.04687.21921-.09409.4544-.141.68937.18924.09459.42563.142.56765.23653Z"/><path class="cls-3" d="M384.96926,304.67709l-.00014-.00516a11.91262,11.91262,0,0,1-2.21224.34617A11.95087,11.95087,0,0,0,384.96926,304.67709Z"/><path class="cls-9" d="M462.64065,295.94885c-.222.07507-.44414.14929-.6606.24006C462.19651,296.09821,462.41868,296.02378,462.64065,295.94885Z"/><path class="cls-9" d="M461.11382,296.60181l.00254-.0012Z"/><path class="cls-9" d="M465.72281,295.42991l-.00474-.00049a9.65,9.65,0,0,0-2.83941.433A9.65071,9.65071,0,0,1,465.72281,295.42991Z"/><path class="cls-9" d="M475.90364,306.08707a14.07293,14.07293,0,0,0-.2395-1.72308,12.82269,12.82269,0,0,0-.73536-2.46155,10.01819,10.01819,0,0,0-9.19482-6.47381l-.01587.00079.00464.00049a9.64929,9.64929,0,0,0-2.844.43255c-.08057.025-.15821.05939-.238.08637-.22193.075-.44422.14941-.66065.24q-.44037.18466-.86377.41174l-.00244.00116a11.41894,11.41894,0,0,0-5.78613,9.48529,8.73,8.73,0,0,0-.04736,1.11945,12.21006,12.21006,0,0,0,.18921,2.28625,11.00169,11.00169,0,0,0,6.33837,8.62452,8.92384,8.92384,0,0,0,2.42811.70959,8.03935,8.03935,0,0,0,1.49792.14185,9.67832,9.67832,0,0,0,7.00049-3.1377,12.438,12.438,0,0,0,3.21631-8.62451A8.77409,8.77409,0,0,0,475.90364,306.08707Z"/><path class="cls-9" d="M452.66021,287.08842a15.93922,15.93922,0,0,0,2.28625-2.11286c1.84424-2.12565,3.796-4.20471,5.64213-6.28328.005-.01916.01258-.03747.01753-.05656-1.86049,2.0971-3.83133,4.19412-5.69182,6.33843a15.94156,15.94156,0,0,1-2.28626,2.11278,4.62669,4.62669,0,0,0-.61479.40986,24.82426,24.82426,0,0,1-3.44091,1.93118l.003.01577a24.9192,24.9192,0,0,0,3.47-1.94546A4.61924,4.61924,0,0,1,452.66021,287.08842Z"/><path class="cls-9" d="M478.20207,282.73511l.0029-.00693c-.18323-.04913-.39141-.13558-.61719-.18068-.11353-2.97457-.20606-5.95288-.31606-8.933l-.03245-.01046c.11021,2.98312.20274,5.96447.31634,8.942C477.79221,282.59331,478.01291,282.68789,478.20207,282.73511Z"/><path class="cls-3" d="M461.98005,296.18891q-.44046.1845-.86369.4117Q461.53912,296.3738,461.98005,296.18891Z"/><path class="cls-3" d="M462.87866,295.86246c-.08058.02489-.15806.05945-.238.08639C462.7206,295.92184,462.79808,295.88742,462.87866,295.86246Z"/><path class="cls-3" d="M461.98005,296.18891c.21646-.09077.43863-.165.6606-.24006.07995-.02694.15743-.0615.238-.08639a9.65,9.65,0,0,1,2.83941-.433l-.01923-.00191c-5.1873,0-9.94891,4.20987-10.40614,10.65864v.00141h.0321a11.41686,11.41686,0,0,1,5.789-9.48575l.00254-.0012Q461.53933,296.3739,461.98005,296.18891Z"/><polygon class="cls-9" points="540.599 268.089 540.604 268.514 540.599 268.089 540.599 268.089"/><path class="cls-9" d="M515.554,280.54358c-.61479.88285-1.11923,1.73445-1.687,2.57008l-.001.00148.02346-.0012.01018.00035c.56241-.82792,1.06389-1.672,1.6714-2.54647Z"/><polygon class="cls-9" points="540.604 264.729 540.604 268.514 540.599 268.089 540.599 284.568 540.608 284.566 540.608 264.715 540.599 264.715 540.599 264.729 540.604 264.729"/><path class="cls-9" d="M552.18061,253.1321h-.45333c.15269.21935.29888.44231.45355.66032Z"/><path class="cls-9" d="M540.33975,255.28483l.18924,9.4287h.03209l-.18917-9.42708v-.04736c-.50889-.72182-1.04324-1.4109-1.57207-2.107h-.031c.52841.69559,1.0624,1.38418,1.57095,2.1055Z"/><rect class="cls-9" x="488.92715" y="306.08615" width="4.26934" height="0.00142"/><polygon class="cls-9" points="488.892 306.088 488.927 306.088 488.927 306.087 488.927 306.086 488.892 306.086 488.892 306.088"/><rect class="cls-3" x="540.57635" y="264.71382" width="0.02234" height="0.00113"/><polygon class="cls-3" points="540.599 268.089 540.604 268.514 540.604 264.729 540.599 264.729 540.576 264.729 540.576 266.3 540.599 268.089 540.599 268.089"/><rect class="cls-3" x="540.57635" y="264.71495" width="0.02234" height="0.01449"/><path class="cls-3" d="M526.76493,287.8231l-.01633.00473c-.9775.2366-1.90771.47313-2.838.69383a6.09068,6.09068,0,0,1-1.38991.17022,6.01393,6.01393,0,0,0,1.42207-.1686c.9283-.22041,1.85689-.45644,2.832-.69234l-.00367-.00261Z"/><path class="cls-3" d="M499.03026,306.08615l-.00142.00092.03358.00049a6.6278,6.6278,0,0,0,1.38418-1.36983l-.00275-.03937A6.64786,6.64786,0,0,1,499.03026,306.08615Z"/><path class="cls-9" d="M576.82245,298.24606q.22289.33454.47674.65643C577.15314,298.66433,576.98313,298.46244,576.82245,298.24606Z"/><path class="cls-9" d="M562.46085,314.37788c-.08164.13707-.14859.26424-.2279.4.12894.2412.263.47589.40449.70118C562.58237,315.1559,562.52341,314.79531,562.46085,314.37788Z"/><path class="cls-9" d="M561.16991,301.77137l.00509.01669a10.94045,10.94045,0,0,1,.50232-1.33237h-.01145A10.9368,10.9368,0,0,0,561.16991,301.77137Z"/><path class="cls-9" d="M561.09024,302.01822h-.01116l-.00008.00021h.16627c-.0239-.07641-.04744-.153-.07027-.23037C561.15012,301.86772,561.11364,301.93728,561.09024,302.01822Z"/><path class="cls-9" d="M578.07209,300.45566a10.5366,10.5366,0,0,0-.77294-1.55316q-.25343-.32253-.47669-.65643a8.20184,8.20184,0,0,0-6.77209-3.37006,3.41111,3.41111,0,0,0-.96839.093l.00159.00281a9.33639,9.33639,0,0,0-7.40625,5.48382,10.95083,10.95083,0,0,0-.50232,1.3324c.02283.07739.04639.15393.07019.23035H578.596A12.45409,12.45409,0,0,0,578.07209,300.45566Z"/><path class="cls-9" d="M569.08352,294.97184l-.00155-.00283-.00919.00156a9.33642,9.33642,0,0,0-7.40691,5.48512h.01145A9.33633,9.33633,0,0,1,569.08352,294.97184Z"/><path class="cls-9" d="M561.175,301.78806l-.00509-.01669c-.02686.08533-.06574.16-.09083.24685h.01116C561.11364,301.93728,561.15012,301.86772,561.175,301.78806Z"/><path class="cls-9" d="M577.863,272.42652q7.75,4.34745,15.49307,8.70909A31.58938,31.58938,0,0,0,577.863,272.42652Z"/><path class="cls-3" d="M561.66587,300.45569h-.02149a10.94488,10.94488,0,0,0-.48422,1.28387l.00975.03181A10.9368,10.9368,0,0,1,561.66587,300.45569Z"/><path class="cls-3" d="M561.16016,301.73956c-.03054.09614-.07423.18062-.1025.27866h.02142c.02509-.08681.064-.16152.09083-.24685Z"/><path class="cls-3" d="M103.59326,305.83431l-3.28439-.69514-3.926-.83554c-.1418.61476-.28382,1.214-.457,1.78145-2.129,7.29705-6.98,11.07619-13.02251,11.56246-.44657.0358-.89816.05774-1.35711.05774a14.95961,14.95961,0,0,1-5.93279-1.238,15.84257,15.84257,0,0,1-4.58383-3.01451c-.33554-.315-.666-.63727-.97747-.982a17.99447,17.99447,0,0,1-3.36032-5.63192c-.04366-.1169-.0985-.22558-.14-.34389-.04691-.141-.094-.28163-.141-.4073h-.02031a21.07757,21.07757,0,0,1-1.02474-6.49576,21.40032,21.40032,0,0,1,.159-2.61472,20.03456,20.03456,0,0,1,.501-2.60934,18.68508,18.68508,0,0,1,1.67347-4.252l.00014-.00015A15.68483,15.68483,0,0,1,80.12348,281.665l.00127-.00014.01818-.00283a7.00761,7.00761,0,0,1,1.40324-.09454c7.17555,0,12.87328,4.19139,14.69089,12.8074.02-.08349.04147-.16515.06319-.2461-.02172.08095-.04323.16261-.06319.2461.01557.07388.03623.14181.05123.21625l.00574-.00142-.00057-.00226,1.54731-.39031h.00014l8.64736-2.18167h.00007l3.46631-.8746a31.57579,31.57579,0,0,0-1.04321-3.93977,29.3498,29.3498,0,0,0-2.3544-5.37846l.0143-.01288-.003-.0058q-.06422-.09976-.12815-.20011c-.523-.81812-1.0377-1.64474-1.60618-2.41716-5.31357-7.18977-13.81184-11.289-23.28787-11.289a13.91785,13.91785,0,0,0-1.40324.04727c-13.07077.59919-23.76075,9.61782-27.35571,22.16823a33.33158,33.33158,0,0,0-1.356,9.476,32.6441,32.6441,0,0,0,.615,6.4959c.1597.83525.35726,1.65635.57648,2.46754a31.30811,31.30811,0,0,0,3.1445,7.60768,30.39734,30.39734,0,0,0,6.30683,7.78883c.70951.66231,1.4505,1.2141,2.19164,1.78174a29.01732,29.01732,0,0,0,16.25568,5.50257,7.32626,7.32626,0,0,0,1.02481.04727c10.10091,0,18.67439-4.29669,23.84461-12.02777a30.92194,30.92194,0,0,0,4.67787-12.04843Zm-6.4787-11.79186-.72642-.15468-.01232-.00254.01232.00254Z"/><path class="cls-3" d="M160.75349,284.46982h-11.709v3.59473a19.53133,19.53133,0,0,0-22.16846-2.66449,17.91244,17.91244,0,0,0-3.02026,1.986,20.1354,20.1354,0,0,0-2.38184,2.22455c-.28.30914-.54639.63892-.81274.96845-.15418.19067-.32068.36291-.47022.56024a23.01566,23.01566,0,0,0-2.48022,4.09613,26.84774,26.84774,0,0,0-2.47071,9.44763c-.04724.83569-.0946,1.67133-.0946,2.52271a27.491,27.491,0,0,0,3.0282,12.87066c3.6676,6.97644,10.2771,11.20551,17.6582,11.20551a18.38666,18.38666,0,0,0,12.42432-4.28852c.03149-.04736.07885-.04736.07885-.142a3.73374,3.73374,0,0,0,.70948-.56757v3.64209h13.48083V284.46982Zm-40.55566,6.67078c-.009.01166-.01563.02576-.02454.03735.00891-.01159.01563-.02587.02454-.03741Zm28.43029,19.44928c-1.28344,5.1283-5.42565,8.37805-9.98986,8.37805a9.94155,9.94155,0,0,1-5.37647-1.54522,9.66246,9.66246,0,0,1-1.03235-.78461,10.32783,10.32783,0,0,1-2.42566-3.15283v-.00006a13.79581,13.79581,0,0,1-1.39831-6.27948,7.31194,7.31194,0,0,1,.04736-1.04053v-.07764h-.01929c.39942-5.96149,4.07508-10.11847,9.16382-10.60889q.51143-.05025,1.0409-.05084a10.347,10.347,0,0,1,9.35547,6.57843,13.03108,13.03108,0,0,1,1.00341,4.08,8.72758,8.72758,0,0,1,.04737,1.11945A13.88574,13.88574,0,0,1,148.62812,310.58988Z"/><path class="cls-3" d="M243.45344,300.94974v-.00146a21.31223,21.31223,0,0,0-1.6615-7.98975,15.64365,15.64365,0,0,0-14.556-9.84472,17.75926,17.75926,0,0,0-7.56811,1.5924,17.51736,17.51736,0,0,0-7.45777,6.10187c-.24-.41772-.49731-.81347-.76525-1.19684a14.71264,14.71264,0,0,0-2.322-2.6159c-.01367.02862-.02649.05841-.03991.08728a.33513.33513,0,0,1,.0144-.0885c0-.00568.00317-.01123.00366-.01691a15.65871,15.65871,0,0,0-8.91052-3.76093,18.50472,18.50472,0,0,0-1.85535-.10247,20.50791,20.50791,0,0,0-2.428.14178,16.46146,16.46146,0,0,0-3.43653.8039,14.88821,14.88821,0,0,0-1.68774.69409,14.662,14.662,0,0,0-4.90357,3.86285v-.02032c-.00732.00756-.01574.01391-.02246.02209v-4.14679h-7.21118l.00025-.0003h7.23339v-.00129h-13.5437v45.45606h13.5437V307.66294c0-6.5274,2.3335-10.31152,6.07032-11.24176l.00427-.00092.00024-.00134a7.15773,7.15773,0,0,1,1.99793-.28155,7.29424,7.29424,0,0,1,1.79809.23352l.02515.00036-.00635.00385-.00024-.00006c3.13574.837,5.373,3.816,5.373,8.21338v25.33746h13.52808V307.66294a8.56164,8.56164,0,0,1,.09448-1.57538h-.02246c.35523-6.18616,3.17005-9.524,7.3479-9.91q.41987-.03983.85767-.04016c3.804,0,6.842,3.02075,7.07275,7.86126.00928.19544.02246.38843.02246.58979v25.33746H243.476V301.498C243.476,301.31126,243.45784,301.13438,243.45344,300.94974Z"/><path class="cls-3" d="M265.78865,284.46982H253.3741v45.45624h13.48071V284.46982Z"/><path class="cls-3" d="M260.09089,262.806c-4.52514,0-7.7417,3.83148-7.7417,8.26208a8.80892,8.80892,0,0,0,.19446,1.82,7.60593,7.60593,0,0,0,7.54724,6.20532,7.66525,7.66525,0,0,0,7.70972-6.20532,8.92373,8.92373,0,0,0,.18945-1.82A7.9208,7.9208,0,0,0,260.09089,262.806Z"/><path class="cls-3" d="M320.33333,301.53385a22.72563,22.72563,0,0,0-2.0271-9.36066,15.3411,15.3411,0,0,0-14.43165-9.05938,18.33675,18.33675,0,0,0-5.59716.83563,16.486,16.486,0,0,0-6.2002,3.6145,17.09412,17.09412,0,0,0-1.22607,1.2417v-4.33582H277.37043v45.45606h13.48072v-21.096a24.70228,24.70228,0,0,1,.14184-2.74231h-.01782c.62122-6.44824,3.532-9.553,7.78174-9.91272q.42919-.03708.87646-.03747c4.19446,0,7.082,3.41363,7.26661,8.44629.0061.16961.0177.33605.0177.50927v24.83295h13.43347V302.01841C320.35115,301.85337,320.336,301.6973,320.33333,301.53385Z"/><path class="cls-3" d="M363.42439,287.30955l.00476-.00428a22.06235,22.06235,0,0,0-6.69128-3.10858,24.2651,24.2651,0,0,0-6.51612-.89288,22.77055,22.77055,0,0,0-22.642,17.34741,26.1493,26.1493,0,0,0-.78772,5.43585,8.72813,8.72813,0,0,0-.04737,1.11945,21.91458,21.91458,0,0,0,.33106,4.00482,22.93289,22.93289,0,0,0,2.57007,7.97821,14.0703,14.0703,0,0,0,.97753,1.63965,22.14058,22.14058,0,0,0,1.3097,1.80151,23.17428,23.17428,0,0,0,18.28869,8.55738,22.78549,22.78549,0,0,0,20.78711-12.87452,25.366,25.366,0,0,0,2.46924-11.10705,24.56853,24.56853,0,0,0-.28381-3.78412l-.00074-.004-.01049-.00281a21.89869,21.89869,0,0,0-.74549-3.54687l.00611-.01575-.00635-.02539a22.81174,22.81174,0,0,0-4.68469-8.69757,21.92322,21.92322,0,0,0-4.30872-3.81427h0l-.00952-.00708-.00525-.00336-.00476.00428m-13.20264,31.65918a10.30662,10.30662,0,0,1-9.42871-6.59058,13.0935,13.0935,0,0,1-1.02478-5.17163,8.7224,8.7224,0,0,1,.04724-1.119h-.01c.444-6.04809,4.66065-10.12683,9.44971-10.60968a9.55051,9.55051,0,0,1,.96655-.04925,9.36605,9.36605,0,0,1,4.7616,1.35583,11.87811,11.87811,0,0,1,5.47107,10.42206C360.45442,314.349,355.45637,318.96873,350.22175,318.96873Z"/><path class="cls-3" d="M433.8426,306.51206l-1.21228-.25342-1.92444-.4107-4.76416-1.01685-2.47192-.52753c-1.90772,9.05011-7.647,13.4018-14.83679,13.4018-8.95545,0-16.14527-7.80463-16.14527-18.11621a12.609,12.609,0,0,1,.04676-1.34967l.00049-.00629c.56127-9.00989,6.65734-15.76343,14.49-16.58148a15.086,15.086,0,0,0-2.85206.57483,15.08794,15.08794,0,0,1,2.85206-.57483,15.47922,15.47922,0,0,1,1.608-.08423,14.73134,14.73134,0,0,1,8.735,2.66461c2.88538,2.14435,5.02967,5.59723,6.02295,10.35895l10.47412-2.61523,2.21839-.5539,1.02478-.28393a30.6764,30.6764,0,0,0-.8999-3.51557,28.2039,28.2039,0,0,0-2.26929-5.3454c-.39441-.70813-.823-1.38409-1.2677-2.044a26.9395,26.9395,0,0,0-3.0365-3.74378,25.69077,25.69077,0,0,0-4.28381-3.55859l-.00489-.00342-.01257-.00793a28.10542,28.10542,0,0,0-5.24878-2.80963,30.14268,30.14268,0,0,0-11.45178-2.212c-.97742,0-1.9076.04724-2.901.14178-.26807.04737-.55188.04737-.88306.09461-11.53308,1.469-20.88208,9.61566-24.57568,20.76239a33.32313,33.32313,0,0,0-1.30762,5.46606,34.68662,34.68662,0,0,0-.40039,5.22669,31.83586,31.83586,0,0,0,.4259,5.23462,32.44584,32.44584,0,0,0,4.65918,12.58862A29.36883,29.36883,0,0,0,408.633,331.2808a32.14919,32.14919,0,0,0,5.97583-.55182,26.72429,26.72429,0,0,0,17.96338-11.61572,30.925,30.925,0,0,0,4.58325-11.90863Zm-29.01489-38.37085.0271-.00482c-.04736.22089-.09473.45728-.14185.69385.18189.09088.40235.13977.54566.22729l-.00427.00958c-.142-.0946-.37842-.142-.56763-.23651C404.73372,268.59562,404.78083,268.36045,404.82771,268.14121Zm-2.00586,14.56836a15.26856,15.26856,0,0,0-2.52429,1.33045A15.26856,15.26856,0,0,1,402.82185,282.70957Zm-3.68628,2.167a16.47131,16.47131,0,0,0-3.0188,3.13013A16.47131,16.47131,0,0,1,399.13557,284.87656Z"/><path class="cls-3" d="M487.96174,299.99644a23.09207,23.09207,0,0,0-3.63134-7.49817v-.00006a22.89865,22.89865,0,0,0-18.59644-9.1944,23.40708,23.40708,0,0,0-7.09521,1.02484,20.85,20.85,0,0,0-5.97571,2.75928,4.62571,4.62571,0,0,0-.61487.40985A22.11765,22.11765,0,0,0,448.741,290.323a22.61556,22.61556,0,0,0-4.24524,6.24079,23.112,23.112,0,0,0-1.74255,5.5523,25.09482,25.09482,0,0,0-.44922,3.971,8.77409,8.77409,0,0,0-.04712,1.11945,25.39686,25.39686,0,0,0,2.64868,11.52557c.15381.3031.32434.5932.49024.8869a23.50609,23.50609,0,0,0,38.92822,2.33368,23.81793,23.81793,0,0,0,4.46118-11.81341,20.36416,20.36416,0,0,0,.18921-2.93274,8.76631,8.76631,0,0,0-.04712-1.119h-.03516v-.0014h.03492a25.8999,25.8999,0,0,0-.96534-6.08972M472.73445,315.831a9.67832,9.67832,0,0,1-7.00049,3.1377,8.03935,8.03935,0,0,1-1.49792-.14185,8.92384,8.92384,0,0,1-2.42811-.70959,11.00169,11.00169,0,0,1-6.33837-8.62452,12.21006,12.21006,0,0,1-.18921-2.28625,8.73,8.73,0,0,1,.04736-1.11945,11.41894,11.41894,0,0,1,5.78613-9.48529,11.417,11.417,0,0,0-5.78906,9.48578h-.0321v-.0014c.45727-6.44879,5.21887-10.65863,10.40612-10.65863l.01929.00189.01587-.00079a10.01819,10.01819,0,0,1,9.19482,6.47381,12.82269,12.82269,0,0,1,.73536,2.46155,14.07293,14.07293,0,0,1,.2395,1.72308,8.77409,8.77409,0,0,1,.04712,1.11945A12.438,12.438,0,0,1,472.73445,315.831Z"/><path class="cls-3" d="M526.74861,287.82786c.00537-.00281.01086-.00238.01636-.00476a17.68127,17.68127,0,0,0-9.186-4.42536,22.90334,22.90334,0,0,0-3.67932-.28345l-.01013-.00036-.02344.00122a19.00873,19.00873,0,0,0-7.3584,1.49744v.00006a20.42792,20.42792,0,0,0-9.0487,7.60278,24.05153,24.05153,0,0,0-2.65162,5.33624,28.30065,28.30065,0,0,0-1.58837,8.53479,8.72711,8.72711,0,0,0-.04737,1.11945,12.67237,12.67237,0,0,0,.04737,1.34027,26.07261,26.07261,0,0,0,4.24694,13.67773,21.52338,21.52338,0,0,0,2.23328,2.81452,19.37868,19.37868,0,0,0,14.19031,6.24365,18.4256,18.4256,0,0,0,13.16528-4.99817v3.64215h13.54395V268.0889l-.02234-1.78924v-1.58582H527.05476v23.06128m0,0v.00733h0v.28228c-.09326-.09338-.18469-.143-.28-.23376m-.219,23.07941c-1.37964,4.90625-5.4458,8.05767-9.907,8.05767-4.65075,0-8.30566-2.95568-9.63537-7.67443a15.02027,15.02027,0,0,1-.55017-4.08771c0-7.04785,4.30444-11.77789,10.18554-11.77789,5.50257,0,10.406,4.80889,10.406,11.77789A13.65582,13.65582,0,0,1,526.55574,310.91038Z"/><path class="cls-3" d="M591.93489,310.87949v-3.67376c-.26807-14.85248-9.886-24.09192-21.88452-24.09192-.5846,0-1.16614.024-1.74292.06872a22.24136,22.24136,0,0,0-5.11573,1.00348,21.72632,21.72632,0,0,0-11.0111,8.03333,24.03814,24.03814,0,0,0-4.11341,9.85449,27.80126,27.80126,0,0,0-.42163,4.01245,8.72941,8.72941,0,0,0-.04736,1.11945,25.391,25.391,0,0,0,4.5824,14.99755,21.60312,21.60312,0,0,0,7.96813,6.79236,19.18477,19.18477,0,0,0,3.1377,1.26142,20.92407,20.92407,0,0,0,6.66919,1.02484c8.90845,0,16.09814-3.86292,20.02417-11.90412.37842-.741.69373-1.52929,1.0249-2.33349l-5.88122-1.26123-.26722-.05927-5.85034-1.29675c-2.28613,4.44623-5.92834,5.28192-9.05029,5.28192a8.4649,8.4649,0,0,1-7.31812-4.22992c-.1416-.22528-.27563-.46-.40454-.70117a14.3425,14.3425,0,0,1-1.37475-3.89838h31.07666Zm-22.88355-15.909a8.86261,8.86261,0,0,0-2.21093.53826A8.86123,8.86123,0,0,1,569.05134,294.97044Zm-4.60559-8.50312-.02234.01612h0Zm-3.20056,15.55109h-.16626l.00012-.00018h-.02136c.02832-.098.0719-.1825.10254-.27869v-.00012a10.95916,10.95916,0,0,1,.48413-1.28376h.02148a9.33652,9.33652,0,0,1,7.407-5.4851l.00915-.00153a3.41111,3.41111,0,0,1,.96839-.093,8.20184,8.20184,0,0,1,6.77209,3.37006c.16065.21637.33069.41827.47669.65643l.00024.00019a10.55684,10.55684,0,0,1,.7727,1.553,12.45409,12.45409,0,0,1,.52393,1.56275Z"/><rect class="cls-10" x="563.60896" y="201.2041" width="7.87368" height="6.29895"/><g class="cls-11"><path class="cls-10" d="M444.92834,282.68179c.11007-.0919.2137-.193.32482-.28338a15.98281,15.98281,0,0,1,1.31427-1.01817,30.50971,30.50971,0,0,1,8.76331-4.6176c.32757-.11693.66971-.20224,1.0028-.30743,1.42759-1.83744,2.876-3.65948,4.27258-5.474-.00495.022-.01251.0431-.01753.06518q-.17357.76914-.37779,1.529a2.10269,2.10269,0,0,0,2.228,2.62593,31.54272,31.54272,0,0,1,12.007,1.047,2.0877,2.0877,0,0,0,2.69152-2.06135c-.09794-2.715-.21448-5.431-.36995-8.147a5.55306,5.55306,0,0,0-1.7816-3.76191c-4.66717-3.7074-9.47607-7.21477-14.37963-10.54051a2.8639,2.8639,0,0,0-1.50669-.361,2.88412,2.88412,0,0,1,1.53878.36267c4.90356,3.32566,9.71253,6.83319,14.37963,10.54067a5.55208,5.55208,0,0,1,1.78167,3.76183c.18775,3.27966.31867,6.55926.42866,9.83718a2.09957,2.09957,0,0,0,1.271,1.8428,33.46731,33.46731,0,0,1,10.59392,7.51213,2.07009,2.07009,0,0,0,3.056-.07536c5.68539-6.48324,13.26929-10.35078,21.74017-10.35078.24466,0,.48154.01206.72267.01727.18582-.33473.376-.67276.57385-1.01445a2.1059,2.1059,0,0,0,.28694-1.05239V255.68649a2.08684,2.08684,0,0,1,2.08684-2.08684H534.8092a2.09033,2.09033,0,0,0,1.68386-3.32178q-.53984-.75315-1.10211-1.49977h.03019c-.42577-.59961-.88306-1.18129-1.35633-1.72688l-.00064-.00073h.00092c.473.54518.93028,1.12686,1.356,1.72647.96812,1.28377,1.87856,2.58064,2.762,3.89565a2.08483,2.08483,0,0,0,1.73006.927h.59253l-.166-9.53335v-.05443c-1.54458-2.52521-3.16783-4.88681-4.9488-7.24841l-.002-.00277c-.42527-.59928-.88221-1.18015-1.3547-1.72484l-.00127-.00163c-1.76591-2.199-3.64217-4.41627-5.55-6.50614-1.59244-1.72663-2.99563-3.61655-4.61974-5.59756.3039-.03.49886-.06738.64053-.085.11543-.01442.2-.0185.24253.03055,4.52516,4.25266,9.42864,7.9599,13.90643,12.15813.61493.54518,1.214,1.12661,1.7816,1.72647a45.29932,45.29932,0,0,1,9.61788,13.66647,23.88417,23.88417,0,0,0,1.67507,3.17249h.45333l.00022.7611c.65713,1.06811,1.32013,2.131,1.87618,3.263a17.66657,17.66657,0,0,0,6.92176,7.324q8.33841,5.35128,16.63353,10.72909a1.97142,1.97142,0,0,0,.5393.24136,30.84176,30.84176,0,0,1,15.20448,9.95911c4.275,2.77674,4.21186,7.154,8.48762,9.937.00177-.00521.59457-.99136.59764-.99582,5.13416-7.45994,9.462-21.32141,9.462-32.59353l.02761-1.62963a2.07543,2.07543,0,0,0-.45251-1.33437c-5.89527-7.38827-12.14345-15.122-18.01755-22.49749l-.00226-.00277c-.4568-.54469-.88207-1.12581-1.35456-1.72484l-.00135-.00163c-5.40814-6.72418-10.8319-13.503-16.19268-20.28163a10.67379,10.67379,0,0,1-1.87626-4.4707c-1.16681-5.87-2.14424-11.722-3.12188-17.64642-.331-1.89008-.93021-2.90792-2.6173-3.544-16.83837-6.57825-33.69243-13.30226-50.64114-19.64463l-.00241-.00089c-.04722,0-.09458-.05443-.1418-.05443-.14025-.05386-.32673-.16052-.49822-.21527l-.00644-.00277c-5.1873-1.981-10.23266-3.98-14.19024-8.55975-3.18487-3.59838-6.68516-4.83426-10.87913-2.85325-1.59258.70863-2.57008,0-3.45307-1.54485-1.2464-2.18837-2.6133-4.31737-4.01794-6.51878a2.0846,2.0846,0,0,0-3.35236-.23261,21.28915,21.28915,0,0,0-5.14869,10.24075q-.82772,4.77058-1.86049,9.46849l-.0005.00277a.4557.4557,0,0,1-.04672.2697l-.00015.00057-.00049.00236c-1.26125,6.1781-2.71153,12.37413-4.06722,18.55223a4.78318,4.78318,0,0,0,1.02479,4.52537,89.32641,89.32641,0,0,1,12.42441,19.64536c.70526,1.593,1.51425,3.166,2.38172,4.82757l3.66713.0731c2.78274-4.868,5.41225-9.446,7.99938-14.06.0082.00465.01626.01174.02446.01654.181.10861.36229.26066.54333.365-1.92322,6.34179-3.84639,12.73094-5.91912,19.51229l3.01126,2.47524c4.39854-2.37465,8.56568-4.63489,13.0774-7.13977l-.00227.02184c-.56672,5.75319-1.16518,11.28915-1.73211,16.7706-.07868.54518-.12612,1.12661-.17334,1.72647-.31356,2.73035-.60138,5.4607-.895,8.21287l-2.9969,1.65213c-3.32969-1.63025-6.53963-3.19938-9.74567-4.75773l-2.88185,1.18651c-3.92934,11.05712-7.732,21.85856-11.59021,32.64388l-.0029.008c-.18916-.05443-.40986-.16345-.64646-.21788-.23638-7.14225-.3784-14.30275-.78826-21.46308a5.55306,5.55306,0,0,0-1.7816-3.76191c-4.66717-3.7074-9.47607-7.21477-14.37963-10.54051a2.8639,2.8639,0,0,0-1.50669-.361,2.64227,2.64227,0,0,0-1.52047.3973,53.28569,53.28569,0,0,0-17.18609,24.33425,7.42881,7.42881,0,0,1-.45722,1.1267c-.69184,1.25313-1.36936,2.53472-2.06665,3.80229a2.10154,2.10154,0,0,0,.24155,2.36875,45.04612,45.04612,0,0,1,5.9471,9.30518C444.37067,281.34146,444.64247,282.01676,444.92834,282.68179ZM565.7317,204.84092l3.13571-.7356c.15607.11958.32322.2483.50361.3877-1.26253.12792-2.47387.25063-3.65044.37016Zm-68.719-35.39411-.00063-.00089a1.16188,1.16188,0,0,0-.17171-.2697l-.00127-.00228c-.26789-.30877-.51188-.63556-.76562-.95471a2.0628,2.0628,0,0,1-.42945-.9108,8.712,8.712,0,0,0-.20862-.87929l.03534.01409c2.36748.90492,4.59577,1.88031,6.82329,2.73022a6.07387,6.07387,0,0,0,.59924.27247c2.47528.96317,4.8089,1.89008,7.28439,2.74423a10.80867,10.80867,0,0,1,6.30676,5.59739c2.9957,5.27042,6.354,10.32256,9.38134,15.59281.87741,1.54453,1.78259,2.14194,3.0085,2.1584a5.78368,5.78368,0,0,0,1.32742-.15921c4.02049-.90858,8.08842-1.78107,12.14059-2.36258a3.02924,3.02924,0,0,1,.81427.034,3.35713,3.35713,0,0,1,2.18136,1.20183c4.90355,8.287,9.66531,16.68325,14.47407,25.0067a8.4688,8.4688,0,0,1,.31542,1.03593,1.25692,1.25692,0,0,1-.303.34914l-.01237.01426q-8.95457-7.734-17.9564-15.52282l-.018-.01556a2.67866,2.67866,0,0,0-.42562.38173c2.56993,4.616,5.09272,9.25037,7.66265,13.97544a2.31477,2.31477,0,0,0-.41537.532l-.01025.0132c-4.2571-3.18038-8.593-6.25159-12.6924-9.63193-7.04786-5.8156-14.52143-11.24955-20.87561-18.02815C508.60126,185.366,502.9409,177.18851,497.01269,169.44681Zm-6.40133,83.41911c4.75157,2.30335,9.45691,4.60718,14.49075,7.07283l-.00149.01312c-5.03567-2.46679-9.74151-4.77038-14.49343-7.074Z"/></g><path class="cls-9" d="M516.64875,295.428c-5.8811,0-10.18554,4.73-10.18554,11.77789a15.02027,15.02027,0,0,0,.55017,4.08771c1.32971,4.71875,4.98462,7.67443,9.63537,7.67443,4.46119,0,8.52735-3.15142,9.907-8.05767a13.65582,13.65582,0,0,0,.499-3.70447C527.05476,300.23691,522.15132,295.428,516.64875,295.428Z"/><path class="cls-9" d="M603.55085,306.99613q-.00292-.15765-.00683-.3147a35.94572,35.94572,0,0,0-18.51392-30.25158c-2.10888-1.18524-8.16015-2.93524-7.6438-3.74189l.0979.023s1.197-.47265.379-.28424a.84265.84265,0,0,0-.50378.2464,30.32211,30.32211,0,0,0-7.27271-1.14111,33.77268,33.77268,0,0,0-10.40234,1.6275,33.185,33.185,0,0,0-7.467,3.47821c-.01709.01068-.033.02295-.05.03363l.01331-8.15759h.00573l-.00561-14.72131c-.15454-.218-.30078-.44092-.45337-.66028H538.8365c.52881.696,1.06323,1.38513,1.572,2.107v.04737l.16785,8.35968v1.06738h-.01062l-.18946-9.42871v-.04724c-.50854-.72132-1.04248-1.40992-1.5708-2.10547H515.50935V270.2429c.02856-.04157.05225-.08136.0813-.123V270.12c-.029.04163-.05274.08136-.0813.12293v1.32177c-.283-.012-.57349-.01239-.86084-.01782-.241-.00452-.478-.01495-.72266-.01495a30.73489,30.73489,0,0,0-23.23193,10.55719,33.87164,33.87164,0,0,0-13.3855-8.47455c.10987,2.9801.2024,5.95837.31592,8.933.22583.04511.43408.13153.61719.18067l-.00269.00689c-.18921-.04718-.40991-.14178-.64648-.189-.11377-2.97748-.2063-5.95886-.31641-8.942a35.6158,35.6158,0,0,0-11.50537-1.8822,36.82079,36.82079,0,0,0-6.47534.58118q-1.49377.26641-2.925.65808c-.333.09125-.67529.16528-1.00269.26672a32.33748,32.33748,0,0,0-8.76342,4.0061c-.57447.345-1.02124.66565-1.31421.88337-.11109.07843-.21485.16607-.325.24579-.28589-.577-.55762-1.16279-.87061-1.72242a38.66756,38.66756,0,0,0-6.89844-9.02685,37.25169,37.25169,0,0,0-4.41235-3.63605c-1.73437,1.96387-3.44971,3.94336-5.10889,5.97192-.78833.97718-1.59253,1.955-2.28613,2.9798l-.00073.00116a25.686,25.686,0,0,1,4.28369,3.55866,26.94125,26.94125,0,0,1,3.03662,3.74371c.44458.65973.87329,1.33588,1.26758,2.04394a28.17382,28.17382,0,0,1,2.26929,5.34528,30.68165,30.68165,0,0,1,.8999,3.51569l-1.02466.28393-2.21851.554-10.47412,2.61529c-.99316-4.7619-3.13745-8.2146-6.023-10.359a14.72951,14.72951,0,0,0-8.73486-2.66461,15.48538,15.48538,0,0,0-1.60815.08417,15.50539,15.50539,0,0,1,1.58764-.0813l.00708.00043c-8.584.01062-15.48022,7.05408-16.0791,16.66473l-.0061.004a12.60889,12.60889,0,0,0-.04663,1.34967c0,10.31146,7.18969,18.116,16.14526,18.116,7.1897,0,12.929-4.35151,14.83667-13.40143l2.47192.52746,4.76416,1.01673,1.92457.41064,1.21215.25354,3.313.69245A30.92613,30.92613,0,0,1,432.609,319.1132,26.72335,26.72335,0,0,1,414.64558,330.729a32.1553,32.1553,0,0,1-5.97583.55176,29.36874,29.36874,0,0,1-24.98267-13.86847,32.44079,32.44079,0,0,1-4.65917-12.58844,31.82391,31.82391,0,0,1-.42579-5.23462,34.71881,34.71881,0,0,1,.40015-5.22669l1.30786-5.46618c3.69336-11.14673,13.04248-19.2934,24.57544-20.76239.3313-.04718.615-.04718.88306-.09448.99341-.09467,1.92358-.14179,2.90112-.14179a30.14133,30.14133,0,0,1,11.45166,2.212,28.06934,28.06934,0,0,1,5.24878,2.80963c.69189-1.021,1.49292-1.99518,2.27832-2.9693,1.6626-2.03253,3.38135-4.01593,5.11914-5.98328-.30932-.21844-.61133-.44543-.928-.65521a39.58273,39.58273,0,0,0-4.93847-2.85162,41.46394,41.46394,0,0,0-18.231-4.14392c-.77832,0-1.55566.02905-2.3396.07373-.54712.03119-1.09522.06622-1.65772.11963l-.46459.04412-.07593.01349c-.24781.02265-.50562.04981-.77466.08667a41.48585,41.48585,0,0,0-7.6023,1.71314c-.4768.6831-.95678,1.36419-1.41211,2.05963-.28051.43152-.57641.84436-.865,1.26617a52.68432,52.68432,0,0,1-11.21362,12.07819l.01489-.03009v-.00012a52.696,52.696,0,0,0,11.15552-12.02277,29.99725,29.99725,0,0,0-7.50854,6.52692,29.99628,29.99628,0,0,1,7.50854-6.527c.29444-.42981.59595-.85107.88184-1.29089.45288-.69184.93042-1.36914,1.40454-2.04816a41.1823,41.1823,0,0,0-23.897,20.72082c-.59253-.46337-1.18653-.92517-1.811-1.3482a33.25812,33.25812,0,0,0-4.56372-2.645,35.62688,35.62688,0,0,0-40.00635,6.71338A26.796,26.796,0,0,0,303.911,271.532a30.758,30.758,0,0,0-5.51709.51135,29.04274,29.04274,0,0,0-3.512.84467H279.52083c.05249-.59937.08862-1.20441.08862-1.81983a20.92806,20.92806,0,0,0-.46875-4.37011v-.00013A19.31051,19.31051,0,0,0,260.12776,251.224c-10.655,0-19.324,8.90191-19.324,19.844a20.634,20.634,0,0,0,.45508,4.2785,26.98132,26.98132,0,0,0-13.98608-3.81457,30.46285,30.46285,0,0,0-7.39038.89532,28.14148,28.14148,0,0,0-4.825,1.6687c-.24317.10279-.47144.2334-.71119.343l-.03173.01526c-.57276.2627-1.14893.51965-1.70118.82086-.77148-.44751-1.574-.84326-2.39013-1.21338A28.67116,28.67116,0,0,0,198.3719,271.532c-.70264,0-1.39673.02728-2.09888.07312-.57373.0376-1.15136.08569-1.75415.15637a28.59018,28.59018,0,0,0-5.16772,1.12653h-43.9917a32.8094,32.8094,0,0,0-9.49072-1.356,30.36144,30.36144,0,0,0-9.32178,1.46521,32.94087,32.94087,0,0,0-9.02564,4.65344c-.27588-.53735-.56128-1.06921-.86035-1.593l-.14941-.26129-.4751-.74176c-.52173-.81952-1.11328-1.74914-1.85132-2.75146a38.74011,38.74011,0,0,0-8.19116-8.18146A40.91479,40.91479,0,0,0,81.58284,256.316c-.56226,0-1.3086,0-2.197.07183a41.69808,41.69808,0,0,0-37.667,30.43567c-.3706,1.252-.66626,2.5257-.925,3.80921a45.27428,45.27428,0,0,0-.90795,8.9563,44.97773,44.97773,0,0,0,5.877,22.34375A41.91083,41.91083,0,0,0,54.32649,332.526c1.00415.92578,1.94092,1.64111,2.69922,2.22088l.49756.37494a40.61639,40.61639,0,0,0,22.2312,7.6734c.68774.06067,1.29272.06739,1.82837.06739,12.09839,0,16.30835-.14142,28.52246-.58179,14.04687.02148,15.81274-.58148,25.7583-.58148,3.33276,0,5.041-.15521,9.49634-.19165H327.25447c5.64844.19165,8.09155.19684,9.89453.13324,12.59717-.44446,7.74316-.26428,14.35864-.058,12.4353.38788,9.60474.58167,27.07422.17914,23.73584-.03387,13.40088-.10217,25.52393-.10217,2.761,0,10.01757.52716,12.59594.46649,19.82959-.46649,6.38111-.22546,22.23389-.11688,2.96777.02026,1.56421-.28119,17.72046-.11634,4.84766-.07189,4.84082-.25219,7.58057-.25219,9.83227,0,.96948-.01929,10.76855-.00464.0874,0,.738-.01477.82544-.01477.86816-.00061,5.79492.00012,5.79614.00012,9.14673-.00305,12.43018.00726,13.323.018,13.72314-.152,8.46533-.05677,16.9231-.05677a108.45436,108.45436,0,0,0,11.50244-.07519H552.2176l7.59912-.21161c8.64307.17041,8.64307.17041,12.2522.17041,13.59741,0,22.5918-5.2782,28.31372-16.92328.37207-.73694.68433-1.44666.95117-2.08166v-.00019l1.075-3.30884v-.00012l.39649-2.37945.51-3.34223v-.00012l.23779-5.54877Zm-223.241-18.09973-1.30762,5.46606A33.33537,33.33537,0,0,1,380.30989,288.8964ZM105.42756,319.25284c-5.17041,7.73108-13.74389,12.0279-23.84472,12.0279a7.34154,7.34154,0,0,1-1.02491-.04718,29.01974,29.01974,0,0,1-16.25561-5.50263c-.74121-.56768-1.48218-1.11944-2.19165-1.7818a30.40252,30.40252,0,0,1-6.30689-7.78881,31.31489,31.31489,0,0,1-3.14453-7.60767c-.219-.81134-.41675-1.63232-.57641-2.46753a32.64339,32.64339,0,0,1-.615-6.49591,33.33529,33.33529,0,0,1,1.356-9.476c3.595-12.55042,14.28516-21.56916,27.35572-22.1684a13.96344,13.96344,0,0,1,1.40332-.04712c9.47607,0,17.97436,4.09937,23.28784,11.28894.5686.77258,1.08325,1.59906,1.6062,2.41718l.12817.20019.00293.0058.00391-.00336a29.34346,29.34346,0,0,1,2.35327,5.36591,31.59064,31.59064,0,0,1,1.05225,3.96826l-3.49536.88171-8.63086,2.17762-1.55957.39337-.001-.0036-.00562.00146c-.01513-.07446-.03564-.14239-.05127-.21631-1.81762-8.61608-7.51538-12.80731-14.69091-12.80731a7.01272,7.01272,0,0,0-1.40332.09448l-.01807.00275c.00781-.00116.01514,0,.02295-.00146a5.01205,5.01205,0,0,1,.69043-.08014,4.725,4.725,0,0,0-.68872.0813,15.68423,15.68423,0,0,0-12.42432,8.45135,18.7003,18.7003,0,0,0-1.68652,4.29779,20.06325,20.06325,0,0,0-.48364,2.53662,21.32716,21.32716,0,0,0-.16333,2.64142,21.08117,21.08117,0,0,0,1.0249,6.496h-.00586c.04687.12561.09424.26624.14111.40735.04151.11817.09644.22687.13989.34375a17.99736,17.99736,0,0,0,3.36036,5.63208c.31152.34461.64184.66681.97754.98181A15.84347,15.84347,0,0,0,75.65,316.46732a14.9602,14.9602,0,0,0,5.93286,1.23786c.459,0,.91064-.02173,1.35717-.05774,6.04249-.48615,10.89356-4.26532,13.02247-11.56232.17309-.56757.31518-1.16681.457-1.78137l3.926.83551,3.28443.695,6.47534,1.3703A30.91779,30.91779,0,0,1,105.42756,319.25284Zm-5.10131-24.53466c-.07862.09173-.14649.18139-.21851.27215.072-.09076.13965-.1803.21826-.27215ZM81.57234,281.571c-.14893,0-.29492.00433-.44165.00739.1438-.00306.28686-.008.43262-.008Zm80.98974,14.09326v34.26154h-13.481v-3.64215a3.72389,3.72389,0,0,1-.70947.56775c0,.09448-.04737.09448-.07886.142a18.38725,18.38725,0,0,1-12.42432,4.28852c-7.3811,0-13.99048-4.22919-17.6582-11.20539a27.49143,27.49143,0,0,1-3.02808-12.87078c0-.85151.04737-1.687.09448-2.52271a26.84842,26.84842,0,0,1,2.47071-9.44769,23.049,23.049,0,0,1,2.48022-4.09619c.14966-.19727.31592-.36957.47022-.56l.81274-.96875a20.15508,20.15508,0,0,1,2.38184-2.22443,17.92379,17.92379,0,0,1,3.02026-1.986,19.5322,19.5322,0,0,1,22.16846,2.66449V284.47h13.481Zm.054,10.4234h-.02612V284.37687h.02612Zm80.89673,23.83814h-13.4336V319.504h-.02246V303.99863c-.23071-4.84039-3.2688-7.86126-7.07275-7.86126q-.43762,0-.85742.04022.409-.03791.835-.03851l.011.001c-4.6272.00782-7.7898,3.36444-8.16773,9.94757h-.00391a8.58163,8.58163,0,0,0-.09448,1.57526v22.26288H201.1783V319.504h-.02247V305.88114l.02247-.03552v-1.2572c0-4.39728-2.23731-7.37635-5.37305-8.21332l-.021-.00275.00244-.00146a7.13094,7.13094,0,0,0-2.82348-.16114,7.09775,7.09775,0,0,1,1.00317-.07067l.01221.00158a7.06689,7.06689,0,0,0-1.98853.28162l.00049-.002-.00439.001c-3.73658.93-6.07032,4.71424-6.07032,11.24164v22.26288h-13.5437V284.47h13.5437v.001h.00391v4.12146l-.00391.0036v.02033a14.66769,14.66769,0,0,1,4.90357-3.86292,14.95624,14.95624,0,0,1,1.68774-.69384,16.45389,16.45389,0,0,1,3.43653-.80384,20.48716,20.48716,0,0,1,2.428-.14184,18.46762,18.46762,0,0,1,1.85546.10248,15.65859,15.65859,0,0,1,8.9104,3.76086l.02271.01654-.00073.00159a14.71926,14.71926,0,0,1,2.322,2.6159c.26782.38324.52539.77893.76514,1.19666a17.5187,17.5187,0,0,1,7.458-6.10169,17.75647,17.75647,0,0,1,7.56787-1.59234,15.64381,15.64381,0,0,1,14.55616,9.84466,21.31471,21.31471,0,0,1,1.66162,7.98975c.0039.18494.02246.36249.02246.54974Zm23.37866-44.66144v44.66174H253.41072V284.47h13.48071Zm.9458-12.3764a7.66453,7.66453,0,0,1-7.70972,6.20532,7.60578,7.60578,0,0,1-7.54711-6.20532,8.80134,8.80134,0,0,1-.19458-1.82c0-4.4306,3.21655-8.262,7.74169-8.262a7.9206,7.9206,0,0,1,7.89917,8.262A8.91573,8.91573,0,0,1,267.83723,272.888Zm52.55054,53.38989v3.64807H306.95442V314.72916l-.01782.01313v-10.1587c-.18457-5.03259-3.072-8.44622-7.2666-8.44622q-.44715,0-.87647.03759.42078-.0357.85864-.036l.01.00116c-4.70532.00739-7.96264,3.08124-8.624,9.94745h-.00855a24.70306,24.70306,0,0,0-.14184,2.74231v21.09607H278.47371v-.00012h-1.06665V319.504h-.01783V298.45493l.01783-.02655V284.47h13.48071v4.33569a17.07046,17.07046,0,0,1,1.22632-1.2417,16.484,16.484,0,0,1,6.2-3.61456,18.34044,18.34044,0,0,1,5.59717-.83551,15.34093,15.34093,0,0,1,14.43164,9.05926,22.71937,22.71937,0,0,1,2.0271,9.36072c.00293.16345.01782.31952.01782.48456v24.25934c.10547.174.217.35412.33716.5401C320.60481,326.63193,320.49324,326.45188,320.38777,326.27787Zm50.65771-7.9643a22.78563,22.78563,0,0,1-20.78711,12.8747,23.17407,23.17407,0,0,1-18.28857-8.55762,22.18948,22.18948,0,0,1-1.30981-1.80139,14.07975,14.07975,0,0,1-.9773-1.63971,22.92623,22.92623,0,0,1-2.57007-7.97839,21.90054,21.90054,0,0,1-.3313-4.00458,8.72618,8.72618,0,0,1,.04737-1.11945,26.16419,26.16419,0,0,1,.78784-5.43585,22.77072,22.77072,0,0,1,22.64184-17.34741,24.25866,24.25866,0,0,1,6.51612.893,22.05735,22.05735,0,0,1,6.6914,3.10833v.00006l.00513.00336.00952.00708a21.92731,21.92731,0,0,1,4.30884,3.81427v-.00012a22.81157,22.81157,0,0,1,4.68457,8.69781l.00659.02527.00977-.025a21.99734,21.99734,0,0,1,.75659,3.595l-.0166-.0047.00073.00409a24.55408,24.55408,0,0,1,.28369,3.78424A25.36448,25.36448,0,0,1,371.04548,318.31357Zm191.90015-44.46582.01294.00513c-.25171.08429-.49829.17975-.74609.27289C562.4571,274.03373,562.69685,273.93113,562.94563,273.84775Zm-74.01685,21.8147h4.30445v.00006h-4.30445Zm5.37818,2.07935c-.35742.12866-.71436.25915-1.07373.38031-.00147-.0141-.00122-.02729-.00269-.04132.00147.014.00122.02716.00269.0412C493.5926,298.00083,493.94954,297.8704,494.307,297.7418Zm-42.25708-10.245a4.62863,4.62863,0,0,1,.61474-.40985,15.93616,15.93616,0,0,0,2.28638-2.11279c1.86035-2.14435,3.8313-4.24133,5.69165-6.33844-.00488.0191-.01245.03741-.01733.05658-1.84619,2.07855-3.79785,4.15759-5.64209,6.28326a15.94594,15.94594,0,0,1-2.28638,2.11286,4.60758,4.60758,0,0,0-.61475.40985,24.93433,24.93433,0,0,1-3.47021,1.94549l-.00293-.01581A24.8198,24.8198,0,0,0,452.04988,287.4968Zm-10.59107,5.07886.00269-.00031c.03369.00049.06494-.00671.09814-.0083C441.52546,292.5687,441.49324,292.57621,441.45881,292.57566Zm4.384-12.33594v.00012c-1.30591.56244-2.61084,1.12561-3.86817,1.78406C443.232,281.36539,444.53694,280.80228,445.84285,280.23972Zm-2.84351,10.27954q-.18128.77564-.31738,1.57764c-.11768.0578-.23462.11694-.3523.17462.11768-.05762.23462-.11676.35205-.17462Q442.81832,291.29545,442.99934,290.51926Zm-.74072,6.26258a8.774,8.774,0,0,1,.04712-1.11945c.0166-.61267.061-1.21234.126-1.80237-.06494.59-.10937,1.1897-.126,1.80243a8.77354,8.77354,0,0,0-.04712,1.11945Zm46.56323,13.35748a23.82092,23.82092,0,0,1-4.46094,11.81348,22.86756,22.86756,0,0,1-18.59033,9.23529,23.22323,23.22323,0,0,1-18.22046-8.46411c-.665-.99561-1.36548-2.02509-2.11767-3.10505-.16578-.29376-.33643-.58368-.49-.8869a25.39356,25.39356,0,0,1-2.64893-11.52545,8.728,8.728,0,0,1,.04736-1.11945,25.08367,25.08367,0,0,1,.449-3.97113v.00006a23.11264,23.11264,0,0,1,1.74267-5.5523,22.61541,22.61541,0,0,1,4.24512-6.24079,22.12366,22.12366,0,0,1,3.30713-2.82519,4.62728,4.62728,0,0,1,.615-.40985,20.84926,20.84926,0,0,1,5.97559-2.75928,23.40712,23.40712,0,0,1,7.09521-1.02484,22.65125,22.65125,0,0,1,22.22778,16.6925l-.00024.00007a25.92444,25.92444,0,0,1,.95239,5.78387c.01221.2774-.00415.02179.01343.30731l4.26929-.00146v.00146h-4.26929a8.72352,8.72352,0,0,1,.04712,1.119A20.36692,20.36692,0,0,1,488.82185,310.13932Zm51.81348-21.08679v40.5506c-.126.12616-.19678.19683-.32276.323H527.41438c-.126-.12616-.19678-.19683-.32275-.323v-2.59339c-.25635-.11188-.27759-.121-.53394-.23309A18.53881,18.53881,0,0,1,513.9261,331.282a19.3785,19.3785,0,0,1-14.19019-6.24347,21.52591,21.52591,0,0,1-2.2334-2.81464,26.07156,26.07156,0,0,1-4.24707-13.67779,12.74138,12.74138,0,0,1-.04711-1.34027,8.773,8.773,0,0,1,.04711-1.11933,28.30134,28.30134,0,0,1,1.58863-8.53485,24.0407,24.0407,0,0,1,2.65161-5.33624,20.42712,20.42712,0,0,1,9.04858-7.60284,19.00918,19.00918,0,0,1,7.3584-1.49744l.001-.00147c.56787-.83563,1.07226-1.68725,1.687-2.57012l.01709.02429c-.60767.87439-1.10913,1.7185-1.67139,2.54644a22.90282,22.90282,0,0,1,3.6792.28345,17.68123,17.68123,0,0,1,9.186,4.42536l.0061.00525.00366.00262a1.26038,1.26038,0,0,1,.28.23376V264.71384h13.50733v.0011h.00976v19.85077l-.00976.00226v4.39728c.023-.00794.0437-.01947.0664-.02759Zm7.4685,13.0213a24.03667,24.03667,0,0,1,4.11353-9.85449,21.72553,21.72553,0,0,1,11.011-8.03333,22.24261,22.24261,0,0,1,5.11573-1.00348l-.0979-.17956c.10937.05975.19214.10479.30175.16461.50977-.035,1.0232-.05383,1.53907-.05383,11.99853,0,21.6167,9.2395,21.88452,24.092v3.35076c-.126.12616-.19678.19684-.323.323H560.85823a14.3425,14.3425,0,0,0,1.37475,3.89838c.07935-.13574.14624-.26294.22779-.4.06262.41742.12158.778.17675,1.10113a8.4649,8.4649,0,0,0,7.31812,4.22992c3.063,0,6.62329-.81311,8.91589-5.04224,1.36536.29847,3.29236.64118,5.901,1.03852l.08374.01855.00513-.00488.0315.00488.26709.05927,5.50292,1.18011.23072.44068c-.279.67932-.55542,1.34356-.8772,1.97387-3.926,8.04126-11.11572,11.9043-20.02417,11.9043a20.92833,20.92833,0,0,1-6.66943-1.025,19.18936,19.18936,0,0,1-3.13745-1.26142,21.60222,21.60222,0,0,1-7.968-6.79229,25.39076,25.39076,0,0,1-4.58277-14.99762,8.68345,8.68345,0,0,1,.04761-1.11945,27.81605,27.81605,0,0,1,.4126-3.96191"/></svg>