<svg id="Layer_1" data-name="Layer 1" xmlns="http://www.w3.org/2000/svg" xmlns:xlink="http://www.w3.org/1999/xlink" viewBox="0 0 500 500"><defs><style>.cls-1{fill:none;}.cls-2{clip-path:url(#clip-path);}.cls-3{fill:#f78c20;}.cls-4{fill:#eb2e28;}.cls-5{fill:#f15a25;}.cls-6{fill:#f9b276;}.cls-7{fill:#f89c4a;}.cls-8{fill:#d82328;}.cls-9{clip-path:url(#clip-path-2);}.cls-10{fill:#fff;}.cls-11{fill:#ecd5ab;}.cls-12{clip-path:url(#clip-path-3);}</style><clipPath id="clip-path"><rect class="cls-1" x="15.95441" y="29.89029" width="468.09118" height="468.09118" rx="234.04536"/></clipPath><clipPath id="clip-path-2"><circle class="cls-1" cx="249.99977" cy="264.48147" r="234.0456"/></clipPath><clipPath id="clip-path-3"><circle class="cls-1" cx="250" cy="263.99789" r="234.04559"/></clipPath></defs><g class="cls-2"><polyline class="cls-3" points="484.046 230.832 484.046 229.875 484.046 163.668 15.954 163.668 15.954 229.875 15.954 230.832"/><polyline class="cls-4" points="484.046 364.204 484.046 363.246 484.046 297.039 15.954 297.039 15.954 363.246 15.954 364.204"/><polyline class="cls-5" points="484.046 297.518 484.046 296.561 484.046 230.354 15.954 230.354 15.954 296.561 15.954 297.518"/><polyline class="cls-6" points="484.046 97.117 484.046 96.159 484.046 29.952 15.954 29.952 15.954 96.159 15.954 97.117"/><polyline class="cls-7" points="484.046 163.595 484.046 162.638 484.046 96.431 15.954 96.431 15.954 162.638 15.954 163.595"/><polyline class="cls-8" points="412.457 428.443 419.69 419.342 484.046 364.194 15.954 364.194 15.954 430.401 15.954 431.358"/></g><g class="cls-9"><polygon class="cls-10" points="415.838 513.209 128.45 514.255 87.347 437.399 68.696 415.218 94.744 403.958 151.598 375.506 166.793 328.94 178.049 321.042 199.642 274.105 212.024 262.386 256.428 283.001 333.982 362.531 344.638 372.635 374.522 348.771 386.681 353.451 414.335 365.732 436.238 430.692 415.838 513.209"/></g><path class="cls-1" d="M388.76875,423.9029c-.22055.32089-.42652.63654-.6256.94767.20874.004.42005.00421.6256.01295Z"/><path class="cls-1" d="M413.9,409.467a28.968,28.968,0,0,0-6.99-8.61712c-.41249-.37822-.8479-.74484-1.29481-1.08859-3.25431-2.64711-6.818-4.98463-10.10674-7.66606-.03093-.03093-.09238-.02836-.17627-.01927-.103.0111-.24465.03468-.46551.05359,1.18034,1.24909,2.20014,2.44073,3.35747,3.52943,1.38657,1.31772,2.75017,2.71574,4.03357,4.10231l.00093.001c.34339.34344.67548.7097.98455,1.08756l.00144.00175a56.74852,56.74852,0,0,1,3.59663,4.57034v.03432l.12063,6.01106h8.15546A14.49928,14.49928,0,0,1,413.9,409.467Z"/><path class="cls-1" d="M217.25992,425.82526h1.50735a88.14813,88.14813,0,0,0,5.32-11.02734c.88221-2.1313,1.93633-4.205,2.78423-6.37073h.0189c-.84789,2.16546-1.902,4.23933-2.78423,6.37048a88.14334,88.14334,0,0,1-5.32,11.02759h9.63759a21.13208,21.13208,0,0,1,2.55237-.61383c-.00077-.11421.00622-.22913-.002-.34236-.447-6.95554-1.05427-13.808-1.45536-20.76352a5.18957,5.18957,0,0,1,.88232-3.25441c0-.0688.06874-.10311.09176-.13754.275-.30933.55-.64162.79056-.95105,4.343-5.05338,6.78374-10.98912,8.20463-17.47483.74227-3.38014,1.89307-6.72662,2.502-10.34462l.00755-.03724c-3.82622,5.3271-7.62973,10.61962-11.46741,15.9123l-.003.00421c-.12607-.03442-.29787-.10321-.46982-.13748-.34375-3.46069-.67605-6.95569-1.05412-10.45055-.33235-3.46063-.98553-6.99-1.05427-10.485-.03442-2.80745,0-5.59194.06874-8.3421v-.17191c.06874-2.75016.20627-5.50023.34375-8.20462.40109-7.33372,1.05427-14.62161,1.59284-21.92085a1.02852,1.02852,0,0,0-.354-.79832l-.01274-.01526c-.72182,1.8677-1.46661,3.66681-2.14271,5.50019-3.04814,8.51406-6.14206,16.95922-9.15579,25.43886l-.00025.00047c-.03406.06791-.06792.10295-.06818.17061l-.00031.00083c-.91668,2.47515-1.799,4.95021-2.68132,7.42536a12.54777,12.54777,0,0,0-.67605,3.70123c-.06889,6.64621-.03447,13.26946-.03447,20.3167l.01906-.03395c3.68289-6.59926,7.24078-12.93722,10.83257-19.29722l.01711.00375c.13707.033.33153.06628.46413.09931.09175,1.18035.19481,2.33768.26355,3.495.48139,7.563.95111,15.16012,1.36371,22.72312a7.12861,7.12861,0,0,1-.44682,2.92171l-.0001.00026a2.75023,2.75023,0,0,1-.13753.30943,5.8881,5.8881,0,0,1-.33245.77926l-.0001.00036c-.8479,2.16572-1.902,4.23943-2.78423,6.37074a96.01171,96.01171,0,0,1-7.10361,14.10425,15.21587,15.21587,0,0,1,.34057,3.17607C217.32419,424.94993,217.29809,425.38965,217.25992,425.82526Z"/><path class="cls-1" d="M274.4378,376.89049a6.84622,6.84622,0,0,1,1.14587,2.48656c.77916,3.96483,1.45521,7.964,2.14271,11.9746.50425,2.8074,1.02,5.62631,1.5241,8.41064v.00026c.10316.37817.13748.71052.20627,1.08869l.0001.00036c.26356,1.42088.53847,2.87583.77916,4.27375.00627-.0077.00874-.01505.0148-.02276a1.511,1.511,0,0,0,.3175-1.169c-.06874-1.01985-.12608-2.06267-.1605-3.08246-.03432-.34376-.06874-.71042-.10306-1.08859-.5157-7.45979-.95121-14.99978-1.53555-22.52821a4.32989,4.32989,0,0,0-1.28336-2.30335c-4.5148-4.58355-9.32764-8.9264-12.65069-14.55282a13.31967,13.31967,0,0,0-1.44282-1.7038l-.02394-.02651c.48128,3.18567,1.26049,5.62636,3.0596,7.76922C269.24679,369.80887,271.82511,373.37262,274.4378,376.89049Z"/><path class="cls-1" d="M348.88075,422.468c.00364-.01392.00914-.02722.01274-.0411-1.015,1.14408-2.06765,2.29293-3.10517,3.4515q1.03987-.285,2.12585-.47826A26.22244,26.22244,0,0,0,348.88075,422.468Z"/><path class="cls-1" d="M388.48408,372.85563c4.618,4.27411,10.04956,7.70038,15.17173,11.36729,2.9793,2.1314,6.1305,4.06789,9.22442,6.07322l.00745-.00832a1.51292,1.51292,0,0,1,.30189-.33543c-1.86775-2.9793-3.70123-5.90142-5.569-8.81193a1.8838,1.8838,0,0,1,.30933-.2407l.01305.00981q6.559,4.92818,13.05014,9.78761l.009-.009a.84107.84107,0,0,0,.22024-.22015,4.8294,4.8294,0,0,0-.22923-.65318c-3.49486-5.24819-6.95554-10.54225-10.51929-15.76748a2.9032,2.9032,0,0,0-2.17713-.77926c-2.945.36667-5.90142.91679-8.82339,1.48968a4.81633,4.81633,0,0,1-.96473.10039,2.48673,2.48673,0,0,1-2.18648-1.36093c-2.20019-3.32306-4.64088-6.50858-6.81806-9.83174a7.60383,7.60383,0,0,0-4.58354-3.52932c-1.79911-.53857-3.49511-1.123-5.29407-1.73032-.12607-.03432-.26361-.10306-.43551-.1718-1.61888-.5359-3.23833-1.15091-4.95894-1.72148l-.02569-.00889c.1719.5157.1719.74484.22924.88232.275.275.5156.573.79092.84836l.00092.00144a.729.729,0,0,1,.12479.17005l.00047.00056C379.66105,363.28781,383.77482,368.444,388.48408,372.85563Z"/><path class="cls-1" d="M276.36329,358.23583l.17062.17061.00082.00083q8.04406,9.60827,16.04249,19.20514l.00873-.01176c1.29137-1.7259,2.481-3.34982,3.83-5.11035l.01141.01058c2.64207,2.47038,4.97646,4.53038,7.15035,6.77311a12.58278,12.58278,0,0,0,7.25357,4.20537,7.071,7.071,0,0,0,.80808.06094,4.68737,4.68737,0,0,0,2.32011-.47343c3.68982-2.1313,7.15051-4.64088,10.88605-6.68053,3.25231-1.72918,3.3919-4.8433,4.65008-8.07238l.00221-.00617c-3.30014.88232-6.07317,1.6959-8.89213,2.34908a7.23565,7.23565,0,0,1-1.54845.13286,5.55491,5.55491,0,0,1-1.53391-.236c-6.10765-1.93649-12.18082-3.97624-18.21972-6.0388a6.8494,6.8494,0,0,1-2.50948-1.73032c-1.26049-1.45531-2.48661-2.922-3.66691-4.37732l-.17185-.17191c-1.62726-1.9709-3.21994-3.93041-4.81278-5.97006a3.26238,3.26238,0,0,0-2.89946-1.48474,5.36492,5.36492,0,0,0-1.28305.23571c1.01985,2.44068,2.00533,4.8471,2.99086,7.21909l.00021.00047a.57668.57668,0,0,1,.06807.17061l.00036.00083c.237.53039.46294,1.07281.69973,1.6365l.01074.02507a22.83218,22.83218,0,0,1-1.83338-1.66157c-.06874,0-.13748-.06874-.17195-.17191a21.81641,21.81641,0,0,1-2.61264-3.01362,11.47308,11.47308,0,0,0-7.80344-4.92745c-2.22886-.3999-4.355-1.17613-6.56067-1.79407l-.0168-.00488c-.06874.13748-.06874.24059-.13748.37807,2.57822,3.11688,5.19085,6.24512,7.76912,9.362Z"/><path class="cls-1" d="M416.8106,414.00464a24.34039,24.34039,0,0,0-1.36355-2.05743l.004,10.699h-.00411v5.90425a24.11816,24.11816,0,0,1,5.42687-2.52787,24.54694,24.54694,0,0,1,7.56-1.18286,24.92314,24.92314,0,0,1,5.6783.6502q-6.12826-3.43778-12.27092-6.86722A12.00085,12.00085,0,0,1,416.8106,414.00464Z"/><path class="cls-1" d="M284.34321,430.33955a29.9303,29.9303,0,0,1,17.36761-15.05921c1.61164-2.30814,3.35377-4.54039,4.94908-6.85315h.0189c-1.59366,2.30993-3.33333,4.53946-4.94332,6.84462a30.14465,30.14465,0,0,1,5.525-1.24518c.19564-.02672.38306-.04645.56308-.06289l.05507-.00986.33784-.03206c.4088-.03884.80706-.06427,1.20465-.08692,2.064-4.34538,4.09415-8.64142,6.13123-12.98376.17195-.37807.33234-.71042.46982-1.08859,2.00533-4.20538,4.01066-8.44517,6.00449-12.685a1.769,1.769,0,0,1-.35768-.33532l-.009-.00843c-2.14281,1.66148-4.17105,3.3918-6.38266,4.91589a27.72679,27.72679,0,0,0-7.73474,7.97534.26854.26854,0,0,1-.13728.13728l-.00026.00026a6.78755,6.78755,0,0,1-.74494,1.08869l-.0002.00036c-1.93649,2.80735-4.10211,5.48852-5.96981,8.34164a37.50984,37.50984,0,0,1-11.90585,11.87154c-1.59274.95106-2.99071,2.28019-4.58355,3.197a29.08641,29.08641,0,0,0-4.49035,3.17566,24.15991,24.15991,0,0,1,3.31663,1.92246C283.48092,429.66716,283.91258,430.00294,284.34321,430.33955Z"/><path class="cls-1" d="M151.39191,425.82526a26.74154,26.74154,0,0,0,7.77236-10.44351,48.80965,48.80965,0,0,0,.22662-8.05168l-.00077-.039A26.12485,26.12485,0,0,1,146.694,421.258l-.02333.01305c.81682-2.31451,1.6193-4.60651,2.42435-6.90262q-3.79458,5.68731-7.62959,11.45688Z"/><path class="cls-1" d="M149.116,414.30858q2.33909-6.67157,4.67053-13.32a1.02145,1.02145,0,0,1-.22832-.137l-.00082-.00046-.00046-.00026c-.10306-.06838-.24033-.103-.37771-.206a.71819.71819,0,0,1-.13764.20638l-.0002.00036c-5.49345,8.229-10.96867,16.43237-16.61789,24.97366h5.02306Q145.30722,420.01527,149.116,414.30858Z"/><path class="cls-1" d="M312.49417,440.86259a2.54046,2.54046,0,0,0-1.37274-.312c-1.75909,0-3.14663,1.77348-3.29871,4.21729l-.01808.25524c-.00082.06822,0,.13727,0,.20755,0,2.66288,1.45659,4.74913,3.31679,4.74913.84748,0,1.90129,0,2.54574-3.05826l.34771-1.64936-.40771-1.95554A4.288,4.288,0,0,0,312.49417,440.86259Z"/><path class="cls-1" d="M169.87005,426.96364a150.327,150.327,0,0,0,5.45919-18.53645h.01906a150.39419,150.39419,0,0,1-5.45523,18.5253c.17416-.07958.34015-.17468.51688-.24933a20.45546,20.45546,0,0,1,3.50652-1.21271c.89829-8.2054,1.76818-16.437,2.60467-24.63931.03442-.37807.06874-.71042.10316-1.08859.03432-.6761.13754-1.35215.20628-2.03965a3.99951,3.99951,0,0,0-.19785-1.83086c-.00442-.01305-.00375-.02379-.00843-.037-.24064.848-.50424,1.673-.676,2.55535-.10322.43535-.2407.90518-.30944,1.35189v.00026c-.10321.37817-.172.71052-.30943,1.08869l-.00015.00036a139.342,139.342,0,0,1-8.43269,25.82675c.59318.269,1.17639.5566,1.73705.88175C169.035,427.34124,169.45371,427.15455,169.87005,426.96364Z"/><path class="cls-1" d="M151.41185,425.82526h.3156a20.77842,20.77842,0,0,1,3.75573-.81871c.438-.05138.85787-.08631,1.27493-.11359.71879-2.46031,1.41107-4.94153,2.02465-7.42635.16013-.669.27717-1.34516.37273-2.02572A26.72417,26.72417,0,0,1,151.41185,425.82526Z"/><path class="cls-1" d="M193.65217,397.52808l.0167-.00447c.16846-.03524.36594-.09987.499-.13306.1605-.91674.298-1.83338.50425-2.7157a35.84361,35.84361,0,0,1,1.76469-6.52018c2.5439-5.7639,5.32838-11.45889,7.97534-17.19992a8.7815,8.7815,0,0,0,.81368-3.048c.29788-3.1512.57289-6.34818.8479-9.49943v-.17191c.64178-7.63164,1.2834-15.29765,1.79911-22.96371.22888-3.90385-.3082-7.83051-.48057-11.76878l-.00071-.011a1.26923,1.26923,0,0,0-.74495.848c-2.06251,10.93178-5.12211,21.68031-5.019,32.87564a4.92316,4.92316,0,0,1-.06874,1.01985v.00047a.15337.15337,0,0,1,0,.17061v.00083a11.90856,11.90856,0,0,1-1.73032,5.25964c-1.05309,1.83153-1.969,3.75471-2.91909,5.65487l-.00292.00586a1.50009,1.50009,0,0,0-.43536-.17185c.64163-3.621,1.24893-7.18478,1.8677-10.74852a1.49091,1.49091,0,0,1,.03442-.17191c.20627-1.2834.4354-2.54379.64168-3.8272a5.07762,5.07762,0,0,1-.62627-.235l-.01541-.0057c-.676,1.38657-1.50119,2.71575-2.21155,4.06789l-.00026.00047c-.034.06791-.03432.10295-.06817.17061l-.00036.00083a14.86875,14.86875,0,0,0-1.28336,3.22c-2.14286,8.11287-3.9075,16.28318-5.72957,24.46479a2.8235,2.8235,0,0,0-.03432,1.76464C190.53539,391.11111,192.0938,394.29663,193.65217,397.52808Z"/><path class="cls-11" d="M104.93723,411.99042c-.03879.02934-.074.05651-.11262.08575,0,.00472-.0001.0095-.00005.01428.03869-.02929.07393-.05651.11277-.0859Z"/><path class="cls-11" d="M168.3011,408.42719h-.01865a7.415,7.415,0,0,1,.57263,1.21415l.00961-.02029a7.33139,7.33139,0,0,0-.56359-1.19458,6.815,6.815,0,0,0-.61876-1.08859h-.00046l.00036.00046A6.82162,6.82162,0,0,1,168.3011,408.42719Z"/><path class="cls-11" d="M279.26949,407.33788h-.0001l.0001.00046c.10306.37843.13753.71078.20627,1.08885h-.01891c.26356,1.42088.53847,2.87583.77916,4.27375.00627-.00771.00874-.01505.0148-.02276-.23951-1.39134-.51288-2.83828-.77505-4.25171C279.407,408.0484,279.37255,407.7161,279.26949,407.33788Z"/><path class="cls-11" d="M159.39089,414.90566l-.00077-.039c-.07275.17427-.15079.34314-.22585.51509l-.00878.05914C159.23378,415.26231,159.31506,415.08676,159.39089,414.90566Z"/><path class="cls-11" d="M426.19028,379.387l-.1119-.06309c-.25472.47681-.52187.94592-.79107,1.41364.85509-.07537,1.73545-.15274,2.653-.2334C427.09983,379.94064,426.655,379.65391,426.19028,379.387Z"/><path class="cls-11" d="M381.23174,415.46431c-3.65843-1.55466-7.07812-3.0073-10.53141-4.45963l-.003.0075c3.45355,1.45254,6.8736,2.905,10.53336,4.4604Z"/><path class="cls-11" d="M360.66233,419.31247a3.34121,3.34121,0,0,0-1.29487-2.37194c-3.39189-2.33768-6.8869-4.54928-10.45065-6.64621a2.356,2.356,0,0,0-1.11833-.22867,2.33829,2.33829,0,0,1,1.095.22759c3.56375,2.097,7.0587,4.30848,10.45065,6.64611a3.34174,3.34174,0,0,1,1.29481,2.372c.15474,2.34533.25641,4.69056.343,7.03435l.02358.00761C360.91889,424.0074,360.81722,421.66,360.66233,419.31247Z"/><path class="cls-11" d="M403.26664,408.42647c-.30943-.37807-.64178-.74484-.98553-1.08859h-.00067l.00046.00046c.344.344.67631.71078.98574,1.08885h-.02194c.86819.99878,1.67252,2.01016,2.45492,3.04013h.02255C404.93957,410.43714,404.135,409.42551,403.26664,408.42647Z"/><path class="cls-10" d="M91.59235,432.30933a21.32379,21.32379,0,0,1,1.71039,3.90206l.00277-.00463a21.32166,21.32166,0,0,0-1.71043-3.89984Z"/><path class="cls-10" d="M88.18486,432.35525c.05628-.003.1134-.00193.16978-.00319C88.29826,432.35323,88.24114,432.35234,88.18486,432.35525Z"/><path class="cls-10" d="M88.642,432.34671c-.09683,0-.19188.00323-.2874.00535.09749-.002.19451-.00493.29341-.00493Z"/><path class="cls-10" d="M79.47332,438.01915l-.00089.00174h.004a10.41433,10.41433,0,0,1,8.2499-5.61166v-.00075l-.01517.001A10.41469,10.41469,0,0,0,79.47332,438.01915Z"/><path class="cls-10" d="M114.89154,442.20847l-.00806-.00082c-.25169,0-.49916.01238-.74237.03581-3.69111.3626-6.3561,3.38167-6.646,7.70927v.00092H107.5C107.80926,445.34,110.81774,442.21433,114.89154,442.20847Z"/><path class="cls-10" d="M101.47783,431.54225l-.00129-.027c-.20725.27105-.403.55552-.59534.84358q.41653,1.10422.7488,2.25013C101.57929,433.58863,101.52853,432.569,101.47783,431.54225Z"/><path class="cls-10" d="M102.42313,437.9787l-.09114-.47523c-.1887-.98419-.42652-1.948-.702-2.89448q.10118,2.036.20242,4.07355C102.02605,438.443,102.21958,438.20336,102.42313,437.9787Z"/><path class="cls-10" d="M94.06535,439.08876l-2.534.63937-.00144.00339,2.54035-.64091a22.97257,22.97257,0,0,0-.76472-2.88385l-.00277.00463A22.95738,22.95738,0,0,1,94.06535,439.08876Z"/><path class="cls-10" d="M94.05122,439.09087l-2.51923.63556-.00067.0017,2.534-.63937a22.95738,22.95738,0,0,0-.76261-2.87737l-.00966.01618A22.94312,22.94312,0,0,1,94.05122,439.09087Z"/><path class="cls-10" d="M170.22356,449.95273l-.0001.00092h.00283c.27465-4.78432,2.57318-7.22387,5.93595-7.22947l-.00787-.00083q-.3097,0-.60694.028C172.51988,443.039,170.48126,445.46448,170.22356,449.95273Z"/><path class="cls-10" d="M141.44659,425.82526c-.2577.38778-.51319.77135-.7714,1.16016v.02836c.26453-.39837.52629-.79123.79025-1.18852Z"/><path class="cls-10" d="M151.39191,425.82526a25.56843,25.56843,0,0,1-2.17743,1.56566v.01316a25.57213,25.57213,0,0,0,2.19737-1.57882Z"/><path class="cls-10" d="M153.64523,442.92937a5.13386,5.13386,0,0,1,1.44529-.20483l-.009-.00119a5.14824,5.14824,0,0,0-.729.05143,5.08222,5.08222,0,0,0-.70693.153Z"/><path class="cls-10" d="M166.19271,435.87067c1.36571-2.926,2.58572-5.9041,3.70036-8.91818l-.023.01115c-1.11361,3.01033-2.33228,5.98475-3.69635,8.90723a.52375.52375,0,0,0-.06617.194l.01377.0111.00216.00206.00051-.00113A.48781.48781,0,0,1,166.19271,435.87067Z"/><path class="cls-10" d="M156.4046,442.89186l-.00175.00108.01521.002-.00247-.00088Z"/><polygon class="cls-10" points="149.233 435.641 149.231 435.648 149.231 437.241 149.233 437.239 149.233 435.641"/><path class="cls-10" d="M160.30675,449.80363v9.90063h.01634v-9.92642Z"/><path class="cls-10" d="M146.694,428.83354l-.00442.01269a27.57669,27.57669,0,0,0,2.52489-1.44215v-.01316A27.57849,27.57849,0,0,1,146.694,428.83354Z"/><polygon class="cls-10" points="149.233 435.641 149.233 434.244 149.231 434.244 149.231 435.648 149.233 435.641"/><polygon class="cls-10" points="132.278 442.378 132.278 449.954 132.297 449.954 132.297 434.175 132.278 434.175 132.278 442.378 132.278 442.378"/><path class="cls-10" d="M135.9108,434.17477h.01881q2.39341-3.62064,4.74558-7.161v-.02836Q138.30951,430.54788,135.9108,434.17477Z"/><path class="cls-10" d="M197.86874,437.72978c.14709.37427.28683.75327.41511,1.1393v-.988C198.14555,437.83053,198.00489,437.7846,197.86874,437.72978Z"/><path class="cls-10" d="M216.4989,425.82526h.761c.03817-.43561.06427-.87533.06427-1.3226a15.21587,15.21587,0,0,0-.34057-3.17607c-.9004,1.51-1.82777,3.00689-2.76856,4.49867Z"/><path class="cls-10" d="M189.86638,427.86245c-.13609-.08637-.27568-.16733-.414-.25036a14.46642,14.46642,0,0,0,.414,1.52179Z"/><path class="cls-10" d="M218.76727,425.82526c-.73328,1.30391-1.49384,2.59348-2.26837,3.87616v.031c.78106-1.29291,1.548-2.59275,2.28722-3.90719Z"/><path class="cls-10" d="M216.128,430.31289q.186-.3054.37088-.61147v-.359C216.38433,429.671,216.265,429.99652,216.128,430.31289Z"/><path class="cls-10" d="M216.128,430.31289c-.02055.04742-.0449.09253-.06591.13969q.21946-.35958.43679-.72013v-.031Q216.3141,430.00744,216.128,430.31289Z"/><path class="cls-10" d="M216.06211,430.45258q-1.004,1.64482-2.03488,3.2782A14.0073,14.0073,0,0,0,216.06211,430.45258Z"/><path class="cls-10" d="M213.96569,433.79906c.01983-.02343.04187-.0447.06154-.06828q1.03257-1.63281,2.03488-3.2782c.021-.04716.04536-.09227.06591-.13969Q215.06209,432.06261,213.96569,433.79906Z"/><path class="cls-10" d="M278.27918,436.31085a15.93644,15.93644,0,0,1,3.13137,2.7721,32.44708,32.44708,0,0,1,2.00929-6.75337A31.79031,31.79031,0,0,0,278.284,436.306Z"/><path class="cls-10" d="M268.67216,442.20837l-.00971-.00072a6.92531,6.92531,0,0,0-.69526.03524c-3.47759.35423-6.53817,3.31746-6.86044,7.7104l-.00006.00036h.01182C261.46206,445.27074,264.91745,442.21351,268.67216,442.20837Z"/><path class="cls-10" d="M278.26839,436.3033l.0038.00241.007.00514.00483-.00483a31.79031,31.79031,0,0,1,5.13583-3.97644l.00688-.01573A31.75356,31.75356,0,0,0,278.26839,436.3033Z"/><path class="cls-10" d="M288.80325,428.64c-1.222.72968-2.33095,1.67858-3.49963,2.49643a24.55973,24.55973,0,0,1,4.03511,4.47689,24.01788,24.01788,0,0,1,2.59209-9.14639A34.83387,34.83387,0,0,1,288.80325,428.64Z"/><path class="cls-10" d="M323.25852,425.848l.00915.00576.00354.00246.00052-.00072c.50424-.74484,1.08859-1.45536,1.66157-2.16572,1.20588-1.47427,2.45256-2.913,3.71294-4.34008l-.0115-.00812c-1.26291,1.42983-2.51215,2.87131-3.72045,4.34846C324.34341,424.398,323.76138,425.10606,323.25852,425.848Z"/><path class="cls-10" d="M299.42153,444.24535l-.0003.00457.00447-.00283c.4352-6.98472,5.44711-12.1037,11.68571-12.11141l-.00514-.00035a11.249,11.249,0,0,0-1.15384.05913C304.2599,432.789,299.82951,437.69726,299.42153,444.24535Z"/><path class="cls-10" d="M291.93082,426.46694l.01084-.022a34.83222,34.83222,0,0,1-3.15742,2.19542c-1.21816.72742-2.32376,1.673-3.48843,2.48908l.00781.007c1.16868-.81785,2.27767-1.76675,3.49963-2.49643A34.83387,34.83387,0,0,0,291.93082,426.46694Z"/><path class="cls-10" d="M301.73548,415.27181l-.02466.00853c-.34463.49361-.69167.98584-1.02073,1.48849-.20786.31971-.427.62591-.641.93832l.03134-.01839c.20972-.30651.42477-.60664.62863-.92018C301.04,416.26315,301.38885,415.76809,301.73548,415.27181Z"/><path class="cls-10" d="M300.04913,417.70715a22.151,22.151,0,0,0-8.10747,8.7378A38.29757,38.29757,0,0,0,300.04913,417.70715Z"/><path class="cls-10" d="M291.94166,426.445l-.01084.022a38.291,38.291,0,0,0,8.14965-8.77818l-.03134.01839A38.29757,38.29757,0,0,1,291.94166,426.445Z"/><path class="cls-10" d="M283.42672,432.31385c.25816-.15864.50836-.32571.774-.4765.37458-.21562.737-.457,1.09512-.7079-.3117-.27049-.627-.53538-.9526-.7899Q283.8537,431.30723,283.42672,432.31385Z"/><path class="cls-10" d="M284.20069,431.83735c-.26561.15079-.51581.31786-.774.4765l-.00688.01573c.26653-.1642.52536-.33667.79986-.49249.37078-.21336.72937-.45251,1.08392-.70065l-.00781-.007C284.93772,431.38037,284.57527,431.62173,284.20069,431.83735Z"/><path class="cls-10" d="M285.377,448.01706a15.99272,15.99272,0,0,0-.55-2.61264l-.00709.01809a15.96334,15.96334,0,0,1,.54493,2.59126Z"/><path class="cls-10" d="M289.33873,435.61333c-.0541.673-.08456,1.354-.08456,2.04391a23.13834,23.13834,0,0,0,.30568,3.775,24.21094,24.21094,0,0,1,.95034-3.97259Q289.96343,436.50946,289.33873,435.61333Z"/><path class="cls-10" d="M285.3572,448.01172l.00765.002a15.96334,15.96334,0,0,0-.54493-2.59126l-.00447.01145A15.92059,15.92059,0,0,1,285.3572,448.01172Z"/><path class="cls-4" d="M308.66872,423.04139c-.10414-.0636-.26438-.0991-.39662-.16517.03432-.17195.06874-.34375.10306-.50425l-.01962.0035c-.03406.15931-.06838.33024-.1025.501.13754.06874.30933.10316.41255.1719Z"/><path class="cls-10" d="M345.74239,430.19617c.6073-1.19176,1.18019-2.38351,1.69589-3.63249.165-.3828.32279-.77166.47589-1.1635q-1.08573.19359-2.12585.47826c-.34463.38485-.69429.76646-1.03146,1.15507a11.58618,11.58618,0,0,1-1.66158,1.5355,3.3614,3.3614,0,0,0-.44681.29787,25.86525,25.86525,0,0,1-4.511,2.30141,29.4932,29.4932,0,0,1,1.17542,3.25031c1.41821-.68473,2.83735-1.38005,4.25222-2.12545A5.18949,5.18949,0,0,0,345.74239,430.19617Z"/><path class="cls-10" d="M350.37212,442.58515c-.16132.05456-.32279.10851-.4801.17447C350.04933,442.69371,350.2108,442.63961,350.37212,442.58515Z"/><path class="cls-10" d="M349.26247,443.05971l.00184-.00088Z"/><path class="cls-10" d="M352.61213,442.208l-.00344-.00036a7.01352,7.01352,0,0,0-2.06359.31472A7.01372,7.01372,0,0,1,352.61213,442.208Z"/><path class="cls-10" d="M349.06544,452.38062c.98548-.275,1.48963-.41255,1.97091-.57289.1605-.06879.298-.10321.46978-.17195a6.48461,6.48461,0,0,1-1.76464-.5156C349.53527,451.53272,349.30613,451.96807,349.06544,452.38062Z"/><path class="cls-10" d="M340.14772,437.846a18.04159,18.04159,0,0,0,2.50075-1.40352,3.3614,3.3614,0,0,1,.44681-.29787,11.58568,11.58568,0,0,0,1.66158-1.53551c1.35214-1.55841,2.78448-3.08246,4.13663-4.60656-.0036.01387-.0091.02718-.01274.0411-1.34172,1.51064-2.76019,3.02164-4.10052,4.56649a11.58379,11.58379,0,0,1-1.66158,1.53556,3.35715,3.35715,0,0,0-.44686.29787,18.11032,18.11032,0,0,1-2.52191,1.4139l.12043.639a16.08094,16.08094,0,0,1,2.40348-2.05326,3.36772,3.36772,0,0,1,.44692-.29787,15.15325,15.15325,0,0,1,4.3429-2.00533,17.01061,17.01061,0,0,1,5.15659-.74484,16.64181,16.64181,0,0,1,13.51529,6.68217,25.42923,25.42923,0,0,1,4.59823-7.565,24.617,24.617,0,0,0-9.72821-6.159c.07994,2.16582.14719,4.33037.2297,6.49219.16409.03277.31539.0956.44856.13131l-.00211.005c-.13748-.03432-.29787-.10306-.46982-.13738-.08256-2.164-.14981-4.33073-.22991-6.49877a25.88507,25.88507,0,0,0-8.36163-1.36791,26.75883,26.75883,0,0,0-4.70613.4224c-.1531.39184-.31092.7807-.47589,1.1635-.5157,1.249-1.08859,2.44073-1.69589,3.63249a5.18949,5.18949,0,0,1-2.17729,2.097c-1.41487.7454-2.834,1.44072-4.25222,2.12545a30.89623,30.89623,0,0,1,.77515,3.11077Z"/><path class="cls-10" d="M343.09528,428.569a11.58618,11.58618,0,0,0,1.66158-1.5355c.33717-.38861.68683-.77022,1.03146-1.15507-.24208.06632-.49074.12011-.72881.19383a23.50376,23.50376,0,0,0-6.36889,2.91154c-.41758.25071-.74227.48375-.95517.642-.08076.057-.15608.12073-.23607.17868.22251.449.43849.901.63808,1.36381a25.86525,25.86525,0,0,0,4.511-2.30141A3.3614,3.3614,0,0,1,343.09528,428.569Z"/><path class="cls-10" d="M357.68256,449.4586c.718-.24917,1.43614-.50564,2.15458-.75758a9.3116,9.3116,0,0,0-.53441-1.789A8.49219,8.49219,0,0,1,357.68256,449.4586Z"/><path class="cls-10" d="M343.11865,436.14568a11.58379,11.58379,0,0,0,1.66158-1.53556c1.34033-1.54485,2.7588-3.05585,4.10052-4.56649.00364-.01392.00914-.02723.01274-.0411-1.35215,1.5241-2.78449,3.04815-4.13663,4.60656a11.58568,11.58568,0,0,1-1.66158,1.53551,3.3614,3.3614,0,0,0-.44681.29787,18.04159,18.04159,0,0,1-2.50075,1.40352l.00216.01146a18.11032,18.11032,0,0,0,2.52191-1.4139A3.35715,3.35715,0,0,1,343.11865,436.14568Z"/><path class="cls-10" d="M361.68166,432.98184l.00211-.005c-.13317-.03571-.28447-.09854-.44856-.13131-.08251-2.16182-.14976-4.32637-.2297-6.49219l-.02358-.00761c.0801,2.168.14735,4.33479.22991,6.49877C361.38379,432.87878,361.54418,432.94752,361.68166,432.98184Z"/><path class="cls-10" d="M335.32616,440.04054a.688.688,0,0,1-.375.093.70235.70235,0,0,0,.39841-.09186c.16086-.08426.32521-.16173.488-.24208l.00251-.014C335.66847,439.87007,335.49554,439.95181,335.32616,440.04054Z"/><path class="cls-10" d="M340.27031,438.49645l-.12043-.639c-1.4252.67528-2.90044,1.24554-4.31233,1.94219a18.29925,18.29925,0,0,0-.2708,2.57739,6.36252,6.36252,0,0,0-.03432.81358,19.58871,19.58871,0,0,0,.38619,3.87668,16.79286,16.79286,0,0,1,1.2664-4.03522A16.435,16.435,0,0,1,340.27031,438.49645Z"/><path class="cls-10" d="M334.407,432.468c.04655.01094.09335.02029.1399.03134a1.42621,1.42621,0,0,0,.40422.05862.688.688,0,0,0,.375-.093c.91371-.47856,1.86209-.88782,2.8113-1.29666-.19959-.46279-.41557-.91484-.63808-1.36381A24.51472,24.51472,0,0,0,334.407,432.468Z"/><path class="cls-10" d="M340.088,437.52937a30.89623,30.89623,0,0,0-.77515-3.11077c-.71823.34678-1.43681.69438-2.15329,1.03721a16.85014,16.85014,0,0,0-1.31953,4.32986c1.41108-.69414,2.88457-1.264,4.30766-1.93968Z"/><path class="cls-10" d="M340.14772,437.846c-1.42309.67564-2.89658,1.24554-4.30766,1.93968l-.00251.014c1.41189-.69665,2.88713-1.26691,4.31233-1.94219Z"/><path class="cls-4" d="M349.892,442.75962q-.32013.1341-.62771.29921Q349.57157,442.894,349.892,442.75962Z"/><path class="cls-4" d="M350.5451,442.52237c-.05857.01809-.11488.04321-.173.06278C350.43022,442.56553,350.48653,442.54051,350.5451,442.52237Z"/><path class="cls-10" d="M415.451,422.64616l-.004-10.699c-.11241-.15844-.21866-.32047-.32963-.47989H406.962l.0169.84142h.03442v.01156h-.01423l.01423,1.1412v6.423h.01624v.00082h.00709v14.42689l-.00709.00164v3.1958a24.41085,24.41085,0,0,1,8.41737-8.95928v-5.90425Z"/><path class="cls-10" d="M385.66527,428.695c-1.14885,1.88326-2.27669,3.77059-3.412,5.65133A13.81439,13.81439,0,0,1,387.601,433.258l.00072-.00108c.41265-.60731.77926-1.22622,1.22607-1.86785l.01238.01762c-.44152.63551-.806,1.249-1.21471,1.85069a16.64656,16.64656,0,0,1,2.674.206,12.8498,12.8498,0,0,1,6.67606,3.21619.46029.46029,0,0,1,.19435-.03088l.01634-.004v-7.57559l-.01634.004a.4365.4365,0,0,0-.20622.03432c-.71042.172-1.38646.34386-2.06256.50425a4.42608,4.42608,0,0,1-1.01014.12371,2.23256,2.23256,0,0,1-2.04946-1.40711c-.46978-.81358-1.0198-1.59284-1.55837-2.44069-.46587-.64763-.97618-1.31911-1.443-2.0565l-.01238-.01762c-.02111.03026-.03832.05918-.05908.08939v.96062c-.20555-.00874-.41686-.009-.6256-.01295-.179.27964-.35531.55691-.54139.83079C386.92571,426.73548,386.31836,427.721,385.66527,428.695Z"/><path class="cls-10" d="M396.98273,436.68532a.92136.92136,0,0,1,.20355.1699v-.20514a.42173.42173,0,0,0-.19924.03416Z"/><polygon class="cls-10" points="407.03 422.337 407.033 422.646 407.03 422.337 407.03 422.337"/><path class="cls-10" d="M388.82783,431.3891c-.44681.64163-.81342,1.26054-1.22607,1.86785l-.00072.00108.01706-.00087.0074.00025c.40874-.6017.77319-1.21518,1.21471-1.85069Z"/><polygon class="cls-10" points="407.033 419.896 407.033 422.646 407.03 422.337 407.03 434.314 407.037 434.312 407.037 419.885 407.03 419.885 407.03 419.896 407.033 419.896"/><path class="cls-10" d="M397.16994,436.64874a.46029.46029,0,0,0-.19435.03088l.00447.0038.00267.0019.00431-.00108a.42173.42173,0,0,1,.19924-.03416v-.00534Z"/><path class="cls-10" d="M415.44689,411.46732h-.32947c.111.15942.21722.32145.32963.47989Z"/><path class="cls-10" d="M388.84021,423.83113c.4668.73739.97711,1.40887,1.443,2.0565.53857.84785,1.08859,1.62711,1.55837,2.44069a2.23256,2.23256,0,0,0,2.04946,1.40711,4.42608,4.42608,0,0,0,1.01014-.12371c.6761-.16039,1.35214-.33229,2.06256-.50425a.4365.4365,0,0,1,.20622-.03432l.01634-.004v-9.18461h9.827v-6.423l-.01423-1.1412h.01423v-.01156h-.03442l-.0169-.84142h-1.23979c.38434.50589.77269,1.0067,1.14254,1.53129v.03442l.13748,6.8513h-.02333l-.13753-6.85248v-.03432c-.36959-.52423-.75768-1.02468-1.14171-1.53021H388.76875V423.9029c.02076-.03021.038-.05913.05908-.08939Z"/><path class="cls-10" d="M382.25329,434.34631c1.13529-1.88074,2.26313-3.76807,3.412-5.65133.65309-.974,1.26044-1.9595,1.93649-3.01362.18608-.27388.3624-.55115.54139-.83079-.17524-.00329-.3474-.01089-.52521-.01089a22.33708,22.33708,0,0,0-16.88422,7.67264,24.98273,24.98273,0,0,1,4.94323,7.3595A14.84648,14.84648,0,0,1,382.25329,434.34631Z"/><path class="cls-10" d="M406.84133,413.03185l.13753,6.85248h.02333l-.13748-6.8513v-.03442c-.36985-.52459-.7582-1.0254-1.14254-1.53129h-.02255c.384.50553.77212,1.006,1.14171,1.53021Z"/><rect class="cls-10" x="369.47629" y="449.95262" width="3.10283" height="0.00103"/><path class="cls-10" d="M370.73372,432.51232a25.42923,25.42923,0,0,0-4.59823,7.565,16.78241,16.78241,0,0,1,2.63914,5.44948c.19035-.06833.38295-.13666.57309-.20494a14.7878,14.7878,0,0,0,.13748-2.13125,6.34676,6.34676,0,0,0-.03432-.81255v-.001h3.12824v.001a6.34676,6.34676,0,0,0-.03432.81255,9.236,9.236,0,0,0,.03432.97392c.39179-.13208.78111-.27367,1.17069-.41449a17.47573,17.47573,0,0,1,1.92714-3.87822A24.98273,24.98273,0,0,0,370.73372,432.51232Z"/><polygon class="cls-10" points="369.451 449.954 369.476 449.954 369.476 449.953 369.476 449.953 369.451 449.953 369.451 449.954"/><rect class="cls-4" x="407.01328" y="419.88454" width="0.01623" height="0.00082"/><rect class="cls-4" x="407.01328" y="419.88536" width="0.01623" height="0.01053"/><path class="cls-4" d="M377.37706,456.23628c.01628-.08344.02892-.16841.04449-.25215-.04485.05605-.0879.11035-.13281.16645C377.3169,456.18074,377.3487,456.20638,377.37706,456.23628Z"/><path class="cls-11" d="M338.24085,399.5707c.3097-.39632.61906-.81905.917-1.25491l.00022-.00023a87.825,87.825,0,0,0,5.3626-8.45284c.103-.10559.34375-.14525.676-.3433l.00172.00892c.343,1.71351.58351,3.34863,1.01812,4.91758a2.0202,2.0202,0,0,0,1.26051,1.36051,16.36235,16.36235,0,0,0,2.68672.29964c2.10778-.01531,2.74867-1.11789,4.09694-4.632.1032-.2377.30947-.47541.60729-.97721l.00263.02606c.239,2.32594.37678,4.27419.67345,6.23432a3.61647,3.61647,0,0,0,.61894,1.55855.81494.81494,0,0,0,.26342.2377c.848.34353,1.73031.66054,2.61267,1.01709,2.4521.93767,4.96169,1.79626,7.76921,2.81335l.00057-.00708c.03486-.97458.20582-1.90985.30856-2.80581l.00023-.00034a8.29682,8.29682,0,0,0,.13748-1.25491v-.00023a4.08411,4.08411,0,0,0-.27507-2.113c-3.11414-6.79646-7.96624-12.41984-10.10053-20.2814l-.00618-.01908c-2.46753,3.55525-4.77553,6.83486-7.03782,10.1003l-.02091.03017a61.93313,61.93313,0,0,1,1.01983-8.28142l1.21469-8.09629a5.863,5.863,0,0,0-2.13121-.42146c-2.0359-.00674-3.77867,1.13023-5.48819,2.36743l-.01223.00868a14.2099,14.2099,0,0,1-.98555-1.41319c-3.08236-5.46818-6.30232-10.83055-9.15566-16.457a20.43943,20.43943,0,0,0-1.799-3.09082l-.00046-.00092a.90057.90057,0,0,0-.1025-.19656l-.00023-.00068a14.60454,14.60454,0,0,0-6.81807-5.50762c-5.122-1.9151-9.22446-5.60018-12.92564-10.05116-2.23452-2.6681-4.67532-5.08512-7.05874-7.47574a3.05264,3.05264,0,0,0-2.06253-1.09618c-3.094.59426-5.08775-1.05663-6.99-3.63228-1.799-2.57553-3.99912-4.72845-5.9012-7.19827a20.17653,20.17653,0,0,0-7.4026-6.4454c-1.99385-.89824-3.11676-2.54913-3.86153-4.84741-.24067-.67368-.41255-1.29423-.60728-1.95476l-.00412-.01429c-.06742-.2449-.135-.46592-.20227-.69894l-.00023-.00091c-.77916-2.69415-1.59284-5.38808-3.19687-6.95954-2.26892-2.25863-6.03879-2.45668-9.08687-3.79079a20.8867,20.8867,0,0,1-4.81279-2.97174c-1.66152-1.3605-3.16259-2.97185-5.03038-4.8473-1.24908,1.7566-3.15127,3.13025-3.35755,4.80776a82.16477,82.16477,0,0,0-.91675,13.76161v.00068c.03451.23759.03428.4225.06868.69917l.00011.00114a36.27337,36.27337,0,0,0,.55015,4.7416c.36661,2.19258.43529,4.41144.64157,6.56447a39.2596,39.2596,0,0,1-3.15116-8.51923,12.29839,12.29839,0,0,0-1.01984-2.77369h-.01143l-.00742-.01429a2.62466,2.62466,0,0,0-.35941-.69894l-.00058-.00091a16.21006,16.21006,0,0,0-2.57758-3.47274,9.81161,9.81161,0,0,1-2.02825-3.79079q-3.919-14.38317-7.60876-28.81949a6.73819,6.73819,0,0,0-2.8762-4.3455c-3.66679-2.31143-7.16171-4.8473-10.72553-7.23793-.0344,0-.0344-.03965-.0344-.03965l-.00183-.00115a6.65676,6.65676,0,0,0-1.05229-.69882l-.00183-.001c-.00914-.00183-.01063-.01211-.02125-.01211-1.78757-1.2548-3.64394-2.48308-5.63767-3.85672-.88247,1.33387-1.89065,2.60192-2.8418,3.85672h-.01154l-.00846.01211c-.16936.2457-.35975.47952-.49483.69985l-.0008.00115a16.8273,16.8273,0,0,0-2.68147,4.8473c-1.6958,5.402-2.14287,11.34573-3.08248,17.012a.98705.98705,0,0,0,.36673.15839c1.524-4.10768,3.0595-8.21536,4.58366-12.27a3.72757,3.72757,0,0,1,.64157.14514c-2.03967,11.66262-1.31765,23.3913-.34376,35.11986h-.5042c-1.28337-2.153-2.61256-4.30573-4.171-6.96057-.81344,3.28852-1.5926,6.49762-2.37176,9.654l-.00023.00068a4.068,4.068,0,0,0-.17165.69917l-.00023.00114c-1.66163,6.77555-3.32315,13.41923-4.98467,20.18164-1.97087-3.13025-2.31474-4.49064-1.7646-7.46238.74477-4.22665,1.45513-8.49284,2.3032-12.70611l.00195-.01429c.03359-.28113.06742-.46558.101-.69894l.00034-.00091c.13737-.6602.27473-1.28051.3665-1.91431a25.149,25.149,0,0,0,.34375-9.29828c-.30947-2.034-.40112-4.14722-.67608-6.18118-.34375-3.13036-.71048-6.30038-1.123-10.05139-3.22,5.204-6.10747,9.89277-8.98367,14.58157-1.83351,2.97173-3.90746,5.904-4.37738,9.70775a11.41748,11.41748,0,0,1-.77894,3.15584l-.00022.00068c-.0688.23759-.20571.46193-.29759.69917l-.00046.00114h-.01131a7.52135,7.52135,0,0,1-5.01907,4.002c-1.55843.4226-2.38342,1.6774-2.922,3.43411-1.01995,3.48692-2.03979,6.96046-3.39195,10.32864a22.16425,22.16425,0,0,0-1.31765,10.94928c.33233,2.45668.4698,4.96616.64157,7.46238.172,0,.33232-.03954.46992-.03954,1.501-5.74543,2.95642-11.53052,4.446-17.31549.27507.03954.5386.07908.81367.11874,0,3.86986.17188,7.73984,0,11.6096a28.48088,28.48088,0,0,1-6.5431,17.24966c-.1032.14536-.20628.26421-.30936.42261l-.00023.00068a.90046.90046,0,0,0-.10239.19656l-.00046.00057-.00023.00092a9.09526,9.09526,0,0,0-1.0196,3.711c-.46981,7.03965-.81356,14.11918-1.18029,21.11941-.20639,3.09059-.30947,6.1813-.51563,9.69461l.01966-.01166c2.84431-1.6726,5.28-3.1219,7.715-4.55829l.00823.00674a2.85787,2.85787,0,0,0,.40432.33656c-2.47507,5.63984-4.88158,11.30607-7.52854,17.3684-.17188.43586-.37815.81893-.54991,1.25479-.15794.45461-.36067.92144-.56341,1.37662l-.00959.02332a9.19963,9.19963,0,0,0-.57278-1.39948v-.00034a8.27223,8.27223,0,0,0-.619-1.25491l-.00012-.00023c-1.38644-2.57541-2.97916-4.68868-2.68123-8.017,1.22622-13.22107,2.31474-26.46864,3.30018-39.65016v-.00092c.00022-.07794.03371-.11839,0-.19656v-.00068c.06879-.46215.10308-.93767.12593-1.37342a78.75925,78.75925,0,0,0-.229-10.51354c-.20639-3.01151-.71047-6.02279-1.19171-9.77392-2.20012,2.15292-4.8473,3.5132-5.62646,5.70578-1.83328,5.32271-3.80439,10.56633-5.32831,15.9551l-.00012.00034c-.034.07851-.03439.119-.06834.1969l-.00022.00057a75.70724,75.70724,0,0,0-2.78467,14.54226c-.20627,3.01151-.84784,5.98325-1.352,9.23234-.67609-.47552-1.15743-.7395-1.55856-1.05652-4.14813-3.1699-8.42221-6.0229-12.24945-9.53621-4.85873-4.38493-9.98076-6.88126-16.18-5.60007a.97932.97932,0,0,1-.58443,0,15.22358,15.22358,0,0,1-3.99912-1.51889c-2.372-1.65112-4.54926-3.64554-7.05885-5.63995-.64168,12.006-.34375,23.58946-2.88763,34.9217-.64179-4.53029-1.24908-9.07384-1.85636-13.64367-1.799,8.638-2.41782,17.51365-4.48035,25.96672l-.00012.00057a12.94818,12.94818,0,0,1-.34375,1.25422,50.611,50.611,0,0,1-3.39183,9.45691c-.17188.39609-.36661.77916-.57289,1.17548.17176.0792.401.19817.60729.317l.00742-.0064q.20262-.175.40513-.35016c2.26891-2.07372,4.57211-4.14745,7.25347-6.48516l.00023.01623c.00022,1.50735.03405,2.32468-.00023,3.10076q-.13354,2.86323-.11257,5.71366c.03863-.03371.07383-.065.11257-.09885l.00023.01634c-.03886.03382-.07417.06514-.11291.099a112.27564,112.27564,0,0,0,1.25879,15.92265,19.407,19.407,0,0,1,6.77487-1.2276,20.92888,20.92888,0,0,1,6.89749,1.13617h16.668c5.6491-9.845,11.12437-19.30053,16.61781-28.78555l.00023-.00034a.8464.8464,0,0,0,.13759-.23782,4.25062,4.25062,0,0,0,.3777.23748l.00046.00022.00091.00046a.9926.9926,0,0,0,.22833.15794q-2.33988,7.67379-4.67062,15.35307,1.96344-3.39207,3.9254-6.7791h.01886q-1.983,3.42395-3.96529,6.848c-.805,2.64661-1.60747,5.28842-2.42434,7.95618l.02331-.015c6.12793-3.55343,10.1211-8.98905,12.69618-16.09864l.0008.0448a64.79885,64.79885,0,0,1-.22673,9.28069c.07519-.19817.15313-.3929.22593-.59369l.0008.04491c-.07589.20868-.15714.41107-.23542.61689-.09554.78441-.21256,1.56392-.37278,2.335-.61357,2.86408-1.30577,5.72406-2.02459,8.5598.51015-.0384,1.01458-.06148,1.52518-.06148a18.52973,18.52973,0,0,1,8.61329,2.11944,178.45588,178.45588,0,0,0,8.43262-29.76882l.00011-.00034c.13759-.436.20628-.81905.30947-1.25491v-.00023c.0688-.51495.20616-1.0564.30947-1.55832.17176-1.01687.43541-1.9679.67608-2.94523.00457.01509.00389.02754.00834.04251a5.27512,5.27512,0,0,1,.19782,2.1103c-.06868.79242-.17187,1.57181-.20616,2.351-.03451.43586-.06879.81893-.10331,1.25479-.83641,9.45417-1.70631,18.94216-2.60467,28.4a19.37106,19.37106,0,0,1,5.37116-.75013,17.68891,17.68891,0,0,1,10.16476,3.19573,19.82009,19.82009,0,0,1-.33073-3.584c0-9.16641,6.30026-16.62341,14.044-16.62341,6.86331,0,12.43218,5.46133,13.81806,12.96256a118.06,118.06,0,0,0,7.10353-16.257c.88224-2.45656,1.93636-4.84684,2.78432-7.34318v-.00034a7.3691,7.3691,0,0,0,.33256-.89813,3.42877,3.42877,0,0,0,.13748-.35678l.00011-.00023a9.36548,9.36548,0,0,0,.44684-3.3676c-.41256-8.7174-.88236-17.47411-1.36371-26.1914-.06868-1.334-.17176-2.668-.26364-4.02848-.13257-.03806-.32707-.07646-.464-.1144l-.01714-.00434c-3.59182,7.33061-7.14971,14.63608-10.83261,22.24256l-.01908.03908c0-8.1228-.0344-15.75693.03451-23.41759a16.45082,16.45082,0,0,1,.676-4.26618c.88236-2.853,1.76472-5.70578,2.68136-8.55878l.00034-.00092a.45771.45771,0,0,1,.06811-.19656l.00023-.00068c3.01379-9.77381,6.10781-19.508,9.15589-29.32153.67608-2.11327,1.42085-4.187,2.14275-6.33969l.01269.0176a1.28127,1.28127,0,0,1,.354.92019c-.5386,8.4133-1.19183,16.81345-1.59284,25.26652-.13748,3.11722-.27507,6.287-.34375,9.45691v.19816c-.06869,3.1699-.1032,6.37945-.06869,9.61541.06869,4.02849.7218,8.0964,1.05412,12.08523.37816,4.02837.71037,8.05675,1.05412,12.04569.17211.03943.34376.11874.46992.15851l.003-.00492c3.83776-6.10049,7.64123-12.20088,11.46744-18.34092-.00206.0144-.00537.02834-.00754.04286-.609,4.17019-1.7598,8.02749-2.50194,11.92352-1.421,7.47563-3.86175,14.31735-8.20462,20.142-.24068.35678-.51563.73973-.79059,1.09629-.02309.03965-.09188.07919-.09188.1585a6.67894,6.67894,0,0,0-.88224,3.75113c.40112,8.01709,1.0084,15.91556,1.45535,23.93265.00834.13051.00126.263.00206.39461a19.48294,19.48294,0,0,1,4.00974-.42855,18.64911,18.64911,0,0,1,15.64906,8.61809,23.67376,23.67376,0,0,1,18.035-8.45878,22.70257,22.70257,0,0,1,11.04037,2.83506,29.50093,29.50093,0,0,1,4.49052-3.66039c1.59283-1.05675,2.99071-2.58868,4.58354-3.685A40.8362,40.8362,0,0,0,300.69,409.18588c1.86779-3.28852,4.0334-6.37888,5.96988-9.61484l.00023-.00034a7.98713,7.98713,0,0,0,.745-1.25491l.00023-.00023a.29259.29259,0,0,0,.13725-.15816,30.401,30.401,0,0,1,7.7347-9.19269c2.21166-1.75672,4.23991-3.75113,6.38266-5.66624l.009.00972a1.90528,1.90528,0,0,0,.35759.38649c-1.99373,4.887-3.99912,9.77392-6.00439,14.62111-.13748.43586-.29793.81893-.46981,1.25479-2.03715,5.00513-4.06723,9.95688-6.13124,14.96544.56969-.03726,1.1348-.06171,1.70038-.06171a26.87962,26.87962,0,0,1,13.24963,3.47137c.181-.261.36147-.52249.54317-.78213,4.27408-6.02279,9.018-11.56972,13.32631-17.59251ZM168.85516,409.70243a9.19963,9.19963,0,0,0-.57278-1.39948h.01875a8.25119,8.25119,0,0,0-.619-1.255l-.00022-.00046h.00045a8.24716,8.24716,0,0,1,.61872,1.25468,9.07711,9.07711,0,0,1,.56362,1.377Zm39.01773-85.7208c-.51575,8.83613-1.15743,17.67227-1.79923,26.46864v.19816c-.275,3.63228-.54991,7.31724-.84784,10.9494a11.35958,11.35958,0,0,1-.81368,3.5132c-2.647,6.61727-5.43139,13.18152-7.97526,19.82519a46.38392,46.38392,0,0,0-1.76471,7.5154c-.20628,1.017-.34376,2.0735-.50432,3.13013-.133.03829-.3305.1128-.49906.15337l-.01669.00525c-1.55832-3.72473-3.11664-7.39643-4.6064-11.14756a3.72944,3.72944,0,0,1,.0344-2.034c1.82208-9.43039,3.58668-18.84775,5.72955-28.19883a18.74711,18.74711,0,0,1,1.28336-3.71159l.00034-.00092c.03383-.07794.03429-.11839.06811-.19656l.00035-.00068c.71036-1.55844,1.53546-3.09048,2.21155-4.68869l.01542.00663a4.69473,4.69473,0,0,0,.62626.27085c-.20628,1.47924-.43541,2.932-.64168,4.41121a1.95868,1.95868,0,0,0-.0344.19816c-.61871,4.10768-1.22611,8.21536-1.8678,12.3891a1.38947,1.38947,0,0,1,.43541.19816l.003-.00685c.95013-2.19007,1.866-4.40687,2.91906-6.51785a15.21057,15.21057,0,0,0,1.73031-6.06256v-.00092a.19942.19942,0,0,0,0-.19656v-.00068a6.51823,6.51823,0,0,0,.0688-1.17549c-.1032-12.90405,2.95642-25.29315,5.01895-37.89344a1.4294,1.4294,0,0,1,.74488-.97733l.00068.01257C207.56456,314.956,208.10168,319.482,207.87289,323.98163Zm72.36305,89.24748c-.24067-1.61135-.51551-3.28841-.77916-4.92616h.019c-.06879-.43575-.10319-.81881-.20627-1.255l-.00012-.00046h.00012c.10308.43587.13748.81893.20627,1.25468.26216,1.62918.53552,3.29687.77505,4.90068C280.24474,413.21174,280.24234,413.2202,280.23594,413.22911Zm.01486-8.7582c-.00606.00892-.00846.01737-.01486.02629-.24067-1.61135-.51551-3.2883-.77916-4.92616v-.00034c-.06879-.436-.10308-.81905-.20627-1.25491v-.00023c-.50409-3.20933-1.01995-6.45842-1.52416-9.69438-.68751-4.62263-1.36359-9.23223-2.14275-13.80229a8.49429,8.49429,0,0,0-1.14577-2.86614c-2.61267-4.05466-5.19106-8.16234-8.00989-12.07186-1.799-2.47005-2.57827-5.28317-3.05951-8.9551l.02389.03051a15.049,15.049,0,0,1,1.44278,1.9639c3.323,6.48517,8.13595,11.49086,12.65081,16.774a5.24326,5.24326,0,0,1,1.28336,2.65484c.5842,8.67752,1.01984,17.3684,1.53547,25.96672.03428.43586.0688.85859.10308,1.25479.0344,1.17549.09177,2.37749.16045,3.553A1.94086,1.94086,0,0,1,280.2508,404.47091Zm49.24488-42.40362c-1.25822,3.72188-1.39787,7.3113-4.65,9.30446-3.73559,2.351-7.19633,5.24362-10.88609,7.70019a4.16885,4.16885,0,0,1-2.32012.54557,6.13588,6.13588,0,0,1-.80819-.07017,12.33629,12.33629,0,0,1-7.25347-4.8473c-2.17395-2.585-4.50823-4.95941-7.15039-7.80681l-.01142-.01223c-1.349,2.02927-2.53862,3.90106-3.83,5.89034l-.00868.0136q-7.9755-11.03535-16.04252-22.13651l-.0008-.00092-.17074-.19656-.00046-.00068c-2.57815-3.59251-5.19083-7.19816-7.769-10.79079.06868-.1585.06868-.27735.13736-.43586l.01691.00571a63.98073,63.98073,0,0,0,6.56059,2.0679,11.43141,11.43141,0,0,1,7.8035,5.67961,24.48253,24.48253,0,0,0,2.61268,3.47343c.03439.119.10308.19816.17187.19816a24.35454,24.35454,0,0,0,1.8334,1.91522l-.01074-.02892c-.23679-.64968-.46272-1.2749-.69974-1.8863l-.00034-.00092a.729.729,0,0,0-.06811-.19656l-.00012-.00068c-.98555-2.734-1.9711-5.50762-2.99094-8.32085a4.73105,4.73105,0,0,1,1.283-.27164,3.14941,3.14941,0,0,1,2.89951,1.71123c1.59284,2.351,3.18556,4.6096,4.81268,6.88126l.17187.19816c1.18029,1.67752,2.40651,3.36806,3.667,5.04546a6.91609,6.91609,0,0,0,2.50936,1.99442c6.039,2.37748,12.11209,4.72845,18.21979,6.96057a4.88417,4.88417,0,0,0,1.534.272,6.303,6.303,0,0,0,1.54838-.15314c2.81895-.75288,5.592-1.69066,8.89214-2.70752Z"/><g class="cls-12"><path class="cls-11" d="M445.44813,399.571l-.00171-.00194c-.332-.39587-.641-.81813-.98441-1.25354.07851.10034-1.50884-1.87716-1.50907-1.87762-3.93055-4.88685-6.36426-7.93721-10.26029-12.86359a7.75722,7.75722,0,0,1-1.36359-3.24922c-.848-4.26607-1.55832-8.51912-2.26892-12.82485a2.80874,2.80874,0,0,0-1.90208-2.57564c-12.23756-4.78091-24.48656-9.66775-36.80435-14.27713l-.00183-.00068c-.03428,0-.06868-.03954-.10308-.03954-.10194-.03909-.23736-.11657-.362-.15634l-.00468-.00206c-3.77-1.4397-7.43678-2.89254-10.313-6.221-2.31463-2.61518-4.8585-3.51342-7.90658-2.07372-1.15743.51506-1.86791,0-2.50959-1.12269-1.22623-2.15281-2.61267-4.22653-4.01055-6.45865-2.37211,2.65472-4.41178,5.16431-5.08786,8.99453q-.60152,3.46713-1.35216,6.88148l-.00035.00206a.32986.32986,0,0,1-.034.19588v.00046l-.00046.00171c-.91652,4.49006-1.97064,8.99316-2.95585,13.48311a3.47655,3.47655,0,0,0,.74476,3.289,64.92106,64.92106,0,0,1,9.02973,14.27758c.84784,1.91522,1.90207,3.79078,3.01368,5.98336l.01165-.02034c2.53919-4.45647,4.8849-8.51844,7.18445-12.61972l.01783.012c.13142.079.2633.18947.39472.26524-1.73032,5.706-3.46063,11.46458-5.39722,17.75158l.0288-.01554c4.46835-2.41062,8.3917-4.52023,12.75937-6.945l-.0016.01577c-.41187,4.18128-.84682,8.20462-1.25891,12.18843-.05714.39609-.09165.8187-.12594,1.25468-.309,2.69118-.58374,5.38248-.88121,8.1132l-.001.00948c-3.65982-1.79271-7.07988-3.46691-10.53342-5.14111l-.02034-.00983c-3.05882,8.59637-6.00314,16.9683-8.99316,25.32686l-.00217.00583c-.13748-.03954-.29793-.11874-.46981-.15828-.17187-5.19083-.275-10.3948-.57288-15.59877a4.03615,4.03615,0,0,0-1.2948-2.734c-3.39194-2.69438-6.88686-5.2434-10.45068-7.66042a2.08128,2.08128,0,0,0-1.09492-.26239,1.91981,1.91981,0,0,0-1.10509.28879,38.72646,38.72646,0,0,0-12.49035,17.68541,5.39473,5.39473,0,0,1-.33233.81871c-.67139,1.21639-1.32427,2.46947-2.01773,3.686a32.31545,32.31545,0,0,1,5.01347,7.56169c.22765.46878.42512.95949.63288,1.4429.08-.06674.15531-.14034.23611-.20593a11.59959,11.59959,0,0,1,.95515-.74008,22.17629,22.17629,0,0,1,6.36883-3.356c.23816-.08491.48683-.147.72888-.2233,1.03743-1.33548,2.09018-2.65964,3.1051-3.97832-.00354.016-.009.03131-.01269.04731a33.59142,33.59142,0,0,1-.96658,3.37972,23.32465,23.32465,0,0,1,4.70606-.48683,22.79615,22.79615,0,0,1,8.36164,1.5766c-.08651-2.70146-.18822-5.40464-.34295-8.10794a4.03585,4.03585,0,0,0-1.2948-2.734c-3.39194-2.6945-6.88686-5.2434-10.45068-7.66054a2.08109,2.08109,0,0,0-1.09492-.26227,2.09612,2.09612,0,0,1,1.11835.26353c3.56371,2.417,7.05862,4.96615,10.45057,7.66065a4.03522,4.03522,0,0,1,1.2949,2.734c.15485,2.7057.25645,5.41139.34307,8.11537a24.47359,24.47359,0,0,1,9.72821,7.09908c4.22688-5.50281,10.17253-8.84379,16.88431-8.84379.17782,0,.34992.00891.52512.01257.19907-.35861.40512-.72236.62568-1.09229V411.80712h16.93093c-.78247-1.18725-1.58677-2.35291-2.455-3.50417h.02194c-.30947-.43575-.64179-.85847-.98578-1.255l-.00046-.00046h.00069c.34376.3961.67608.81893.98555,1.25468.8683,1.15149,1.67283,2.31749,2.45542,3.505H406.962l-.12068-6.92845V404.839c-1.12257-1.83522-2.30228-3.55148-3.59662-5.268l-.00149-.00194c-.30912-.43552-.64122-.85767-.98452-1.25354l-.00091-.00114c-1.28337-1.59832-2.647-3.20967-4.03363-4.72845-1.15732-1.25491-2.177-2.62845-3.35744-4.06815.22091-.02182.36261-.049.46547-.06182.08388-.0104.14536-.01337.17633.02228,3.28864,3.09059,6.85235,5.78486,10.1067,8.83614.447.39609.88236.8187,1.29491,1.25468A32.92231,32.92231,0,0,1,413.9,409.50152a17.3693,17.3693,0,0,0,1.21742,2.3056h.32947l.00023.55312c.47746.7763.95938,1.54884,1.36347,2.37143a12.83987,12.83987,0,0,0,5.0305,5.32293q6.15157,3.9478,12.27094,7.91527a22.384,22.384,0,0,1,11.2599,7.29564c3.10693,2.018,3.061,5.19929,6.16849,7.22181l.43438-.72362c3.73136-5.42167,6.87669-15.49569,7.04651-23.71768l.02937-1.7302C454.49763,410.84843,449.82963,405.0726,445.44813,399.571Zm-64.2174,16.85266c-3.65982-1.79283-7.07988-3.467-10.53342-5.14124l.003-.00857c3.45331,1.674,6.873,3.34829,10.53148,5.14021Zm39.7713-28.56728-.00892.0104q-6.50779-5.62086-13.0501-11.2815l-.013-.01131a1.94591,1.94591,0,0,0-.30947.27747c1.8678,3.35469,3.70131,6.72287,5.5691,10.15687a1.68079,1.68079,0,0,0-.30193.38661l-.00743.0096c-3.0939-2.31143-6.24506-4.54344-9.22445-7.00012-5.12215-4.22664-10.55365-8.17582-15.17171-13.10232-4.70926-5.085-8.82311-11.02814-13.13147-16.65461l-.00046-.00068a.84414.84414,0,0,0-.12479-.19588l-.00091-.00171c-.27542-.31736-.51586-.66088-.79094-.9779-.05737-.15839-.05737-.4226-.22924-1.017l.02571.01029c1.7206.65768,3.34006,1.36645,4.95884,1.98424a4.41567,4.41567,0,0,0,.43564.19794c1.79888.70008,3.49491,1.37364,5.294,1.99441a7.85548,7.85548,0,0,1,4.58355,4.06815c2.17715,3.83021,4.61794,7.502,6.81806,11.33224.63768,1.12257,1.29548,1.55672,2.18641,1.5686a4.19438,4.19438,0,0,0,.96475-.11565c2.922-.66031,5.87845-1.29433,8.82345-1.71694a2.19618,2.19618,0,0,1,.59186.02468,2.44016,2.44016,0,0,1,1.58529.87345c3.56371,6.02267,7.02434,12.12477,10.51925,18.17407a6.15952,6.15952,0,0,1,.22925.75288A.90884.90884,0,0,1,421.002,387.85642Z"/><path class="cls-11" d="M301.70608,454.631l.00146.00259c.27731.523.5217,1.06892.80194,1.6384-.06386-.13107,1.24047,2.46269,1.24061,2.46325,3.23224,6.41183,5.2273,10.40885,8.41009,16.855a8.58735,8.58735,0,0,1,.72433,3.9319c-.12328,4.91263-.4001,9.77448-.69011,14.69428a3.186,3.186,0,0,0,1.5103,3.33446c12.72923,8.49721,25.44442,17.11386,38.30893,25.44384l.00191.00124c.03908.00909.0682.06166.10741.07077.10622.07.24081.191.37278.26775l.00481.00351c3.92992,2.58129,7.73884,5.14967,10.1673,9.56952,1.97049,3.48725,4.641,5.14857,8.48361,4.37442,1.45105-.25921,2.1294.49509,2.57407,1.89886.84786,2.69068,1.89857,5.33693,2.92185,8.16025,3.38245-2.28847,6.34883-4.50558,8.09815-8.5353q1.57155-3.65052,3.29962-7.2035l.00092-.00216a.36062.36062,0,0,1,.08887-.20622l.00011-.0005.001-.00177c2.192-4.69108,4.5442-9.36,6.81448-14.03278a3.81863,3.81863,0,0,0-.00871-3.81157,72.93245,72.93245,0,0,1-6.646-18.08262c-.47721-2.32931-1.19984-4.66974-1.90687-7.37374l-.01848.01926c-4.03325,4.22408-7.74514,8.06594-11.41445,11.96323l-.01726-.01791c-.12964-.12161-.25175-.278-.38221-.39609,3.43038-5.81156,6.8742-11.68088,10.68818-18.07621l-.0368.00945c-5.70978,1.46462-10.72135,2.74293-16.32,4.24981l.00585-.01691c1.53781-4.48553,3.06158-8.7914,4.5492-13.05987.16634-.42011.31365-.87536.46412-1.34535,1.03985-2.87537,2.04065-5.76,3.07744-8.68182l.0036-.01015c3.71413,2.94,7.18523,5.68624,10.69449,8.44135l.02068.01619c5.68333-8.63559,11.17879-17.05489,16.72294-25.44738l.004-.00583c.14662.07989.3093.20945.49514.29845-1.13028,5.74963-2.34235,11.49546-3.33229,17.29294a4.49081,4.49081,0,0,0,.77753,3.34755c3.17839,3.85982,6.51131,7.58721,9.95651,11.18781a2.50853,2.50853,0,0,0,1.18115.57854,2.311,2.311,0,0,0,1.33358-.02443,43.75655,43.75655,0,0,0,18.75738-16.12344,5.96311,5.96311,0,0,1,.588-.81157c1.07617-1.15871,2.1406-2.36264,3.24194-3.51563a36.38532,36.38532,0,0,1-3.78336-9.63817c-.13974-.57547-.23949-1.16705-.35283-1.75332-.10824.05214-.2129.11305-.32177.16372a13.5242,13.5242,0,0,1-1.278.56008,26.30111,26.30111,0,0,1-8.11782,1.9997c-.2932.03018-.59254.03246-.888.05219-1.52387,1.19254-3.06231,2.3686-4.55622,3.54865.00812-.01664.01829-.032.02655-.04862a36.85181,36.85181,0,0,1,1.96538-3.4577,28.28241,28.28241,0,0,1-5.48924-.71238,27.561,27.561,0,0,1-9.12939-3.94877c-.59158,2.99151-1.16627,5.98892-1.68055,9.00051a4.49052,4.49052,0,0,0,.77753,3.34755c3.17836,3.86,6.51131,7.58722,9.95647,11.188a2.50867,2.50867,0,0,0,1.18119.57841,2.527,2.527,0,0,1-1.20757-.586c-3.44507-3.60058-6.77795-7.32809-9.95632-11.188a4.48986,4.48986,0,0,1-.77766-3.34758c.51476-3.01426,1.09023-6.01441,1.68233-9.0087a28.61664,28.61664,0,0,1-9.27631-10.37948c-6.22453,4.92655-13.85611,7.022-21.50748,5.243-.20272-.04714-.39664-.10255-.59542-.153-.31857.3413-.6464.68641-.99235,1.03445l-3.66212,15.7508-19.30111-4.48759c.58868,1.512,1.20776,3.00614,1.90335,4.50134l-.025-.00582c.24147.56086.51231,1.11346.80313,1.6404l.00041.00062-.00078-.00018c-.29068-.52637-.5615-1.0791-.803-1.64-.69566-1.49548-1.31491-2.99-1.90367-4.50234l-1.41352-.32864-1.63259,7.64549-.01013.04357c.81083,2.31422,1.71721,4.51286,2.75419,6.74213l.0012.00253c.24113.56052.51186,1.11243.80207,1.63843l.00075.0015c1.05467,2.09651,2.19746,4.2286,3.39022,6.26509.99871,1.68574,1.81025,3.46536,2.78807,5.36027-.25741-.03456-.4259-.04223-.54642-.05543-.09828-.0108-.16913-.02383-.19533-.07122-2.95939-4.26784-6.33363-8.17307-9.264-12.38861-.40832-.55372-.79671-1.13352-1.15562-1.72195a37.1808,37.1808,0,0,1-5.43068-12.76716,19.3641,19.3641,0,0,0-.79879-2.85624l-.3756-.08733.14106-.60787c-.346-.97961-.698-1.95626-.94847-2.96729a14.72691,14.72691,0,0,0-4.37475-7.18258q-6.00411-5.96864-11.96646-11.95032a26.31246,26.31246,0,0,1-10.97221-11.00145c-3.0263-3.041-2.16112-6.52469-5.18691-9.57084l-.68006.68c-5.63892,4.96874-11.7984,15.20513-14.09265,24.19506l-.47554,1.89349C294.271,439.84,298.11682,447.42417,301.70608,454.631Zm77.513-1.498c3.7141,2.94013,7.18519,5.68636,10.69446,8.44147l-.00558.00863c-3.50906-2.75479-6.97973-5.50106-10.69251-8.43983Zm-52.63765,20.85036.01282-.00906c3.98849,5.26768,7.97748,10.53561,11.99466,15.8559l.012.01589a2.25252,2.25252,0,0,0,.42369-.22288c-1.27217-4.18145-2.50181-8.36863-3.75372-12.63723a1.90871,1.90871,0,0,0,.443-.3448l.01092-.00858c2.93647,3.36,5.9585,6.64793,8.72733,10.1372,4.75932,6.00219,9.9422,11.78147,13.94806,18.4191,4.06933,6.836,7.24066,14.45713,10.71463,21.78185l.00034.00087a.94928.94928,0,0,0,.09222.24832l.00061.00213c.23288.42173.41922.86295.65181,1.28422.02493.18926-.04258.4796.00151,1.17829l-.02669-.01812c-1.79344-1.17875-3.45853-2.38684-5.14607-3.49478a5.2666,5.2666,0,0,0-.44605-.333c-1.87185-1.2461-3.63322-2.4358-5.52559-3.59481a9.09394,9.09394,0,0,1-4.18582-5.68525c-1.50334-4.786-3.3477-9.46779-4.87723-14.25985-.44014-1.40259-1.0791-2.054-2.09171-2.30322a5.08423,5.08423,0,0,0-1.12936-.12862c-3.49979-.0489-7.03207-.13579-10.49732-.452a2.66526,2.66526,0,0,1-.6684-.184,2.884,2.884,0,0,1-1.58407-1.38c-2.52384-7.56273-4.90989-15.18542-7.34851-22.75917a6.76354,6.76354,0,0,1-.069-.88808A1.03827,1.03827,0,0,1,326.58142,473.98341Z"/><path class="cls-11" d="M301.05557,497.80176l.00039-.00257c.09023-.5087.21545-1.01675.32866-1.55961-.02649.12462.46988-2.36211.47008-2.36258,1.2216-6.15127,1.9968-9.97576,3.27087-16.126a7.75723,7.75723,0,0,1,1.61487-3.13193c2.72546-3.38973,5.52931-6.66563,8.37338-9.97553a2.80874,2.80874,0,0,0,.75274-3.11211c-4.19452-12.45075-8.31519-24.97829-12.69272-37.38037l-.00065-.00184c-.022-.02628-.0138-.078-.03589-.10441-.03551-.10323-.06308-.2568-.11267-.37791l-.00143-.00491c-1.3176-3.81438-2.55884-7.55809-1.8547-11.90033.5181-3.45373-.4271-5.98053-3.4882-7.39235-1.13812-.55641-1.1996-1.43179-.75114-2.64467.86267-2.3225,1.56183-4.717,2.375-7.222-3.55832-.11336-6.79189-.06511-10.162,1.87649-2.02929,1.17707-4.07786,2.31049-6.14319,3.383l-.0018.00106c-.06009.05035-.12018.1007-.172.09969l-.00035.0003-.00161.00075c-4.03034,2.18106-8.159,4.265-12.2334,6.39337a3.47657,3.47657,0,0,0-2.04277,2.68313,64.92094,64.92094,0,0,1-5.145,16.0908c-.92356,1.87988-1.68417,3.8925-2.65094,6.15268l.02308-.00413c5.04669-.91568,9.66674-1.72632,14.28727-2.59759l.00225.02138c.02388.15145.02386.32351.05019.4729-5.485,2.33818-11.01033,4.71012-17.07317,7.26332l.03041.01209c4.71746,1.87694,8.85417,3.52944,13.51782,5.3201l-.01311.00891c-3.46955,2.36959-6.83287,4.62006-10.15119,6.86265-.34031.21058-.68642.45553-1.04262.70925-2.2613,1.49146-4.50067,3.00927-6.78487,4.535l-.00793.00531c-.97626-3.95665-1.88937-7.6534-2.824-11.37582l-.00553-.0219c-8.55374,3.1761-16.86189,6.29583-25.18916,9.37193l-.00586.00208c-.058-.13077-.10032-.30462-.18039-.46176,3.8685-3.4654,7.79125-6.8865,11.58887-10.457a4.03609,4.03609,0,0,0,1.26416-2.74833c-.11307-4.33038-.40369-8.64634-.83975-12.93034a2.08111,2.08111,0,0,0-.502-1.00779,1.91974,1.91974,0,0,0-.93107-.66161,38.72642,38.72642,0,0,0-21.57778,1.78378,5.39638,5.39638,0,0,1-.841.27105c-1.36358.26655-2.74339.57085-4.12122.82058a32.31557,32.31557,0,0,1-2.57645,8.69918c-.21313.47555-.46245.94207-.69956,1.41178.10253.01845.20731.02892.30948.04872a11.6005,11.6005,0,0,1,1.1807.25685,22.17674,22.17674,0,0,1,6.66259,2.72659c.218.128.4253.27879.63926.4153,1.68994-.06246,3.381-.1059,5.04363-.17482-.01454.00755-.0298.01318-.04442.02066a33.59178,33.59178,0,0,1-3.21138,1.42961,23.32394,23.32394,0,0,1,3.39548,3.29464,22.796,22.796,0,0,1,4.1615,7.4219c2.01518-1.80124,4.02191-3.61523,5.99467-5.47a4.03588,4.03588,0,0,0,1.26415-2.74834c-.113-4.33045-.40369-8.64633-.83966-12.93041a2.08116,2.08116,0,0,0-.50213-1.00771,2.09622,2.09622,0,0,1,.51622,1.02648c.436,4.28391.72651,8.59994.83949,12.9304a4.03526,4.03526,0,0,1-1.26408,2.74842c-1.97453,1.85634-3.98325,3.67187-6.00028,5.47481a24.4735,24.4735,0,0,1,.806,12.016c6.9326-.294,13.31194,2.11781,17.62237,7.26254.1142.1363.2179.27395.32761.41059.40273-.07772.81388-.15338,1.23908-.22189l10.987-9.20529L266.14916,475.192c.40754-1.36226.7845-2.72738,1.1094-4.13222l.01409.01681c.13527-.51706.24587-1.04327.32892-1.56162l.00006-.00064.00044.00053c-.08285.51787-.19354,1.04416-.3288,1.56122-.325,1.40508-.70208,2.7706-1.10972,4.13309l.79631.95044,5.23331-4.54209.0304-.02546c.6858-2.0391,1.24371-4.04558,1.72819-6.14008l.00053-.00239c.13531-.51665.24562-1.04232.32859-1.5597l.00029-.00144c.40094-2.01019.76036-4.09025,1.034-6.12856.21866-1.693.61662-3.35678.96211-5.18618.1586.15531.27045.24646.34632.31708.06184.05762.1036.10284.09616.14948-.257,4.50564-.03351,8.96761-.28238,13.42173-.01657.597-.06088,1.20213-.13012,1.79835a32.92245,32.92245,0,0,1-3.12442,11.73664,17.36965,17.36965,0,0,0-.98544,2.41389l.21159.25254-.42383.3554c-.28842.86454-.57108,1.73008-.9421,2.56811a12.83979,12.83979,0,0,0-.84946,7.27447q.92457,7.25067,1.8134,14.48927A22.384,22.384,0,0,1,273.646,520.667c.44852,3.6775-2.01954,5.68539-1.57415,9.36627l.83363-.13176c6.55218-.62174,16.29412-4.6805,22.70552-9.83064l1.3451-1.08866C298.223,511.98094,299.65239,504.69347,301.05557,497.80176ZM246.896,459.40082c-.97617-3.95671-1.88928-7.65347-2.8239-11.37589l.00848-.00322c.93465,3.72209,1.84745,7.41866,2.82344,11.37374Zm47.43929,12.13912-.01369-.00015c.08606-5.73213.17191-11.46468.26649-17.24838l.00031-.01725a1.946,1.946,0,0,0-.41144-.059c-1.37191,3.58615-2.77617,7.15468-4.20888,10.79177a1.68061,1.68061,0,0,0-.49025.01685c-.00452.00066-.00761-.00018-.01212.00047-.21521-3.856-.52806-7.70485-.55839-11.56635-.04972-6.64066-.5108-13.34026.29966-20.044.8734-6.87543,2.78695-13.84558,4.33284-20.76145l.00024-.00079a.84394.84394,0,0,0,.07-.22146l.00073-.0018c.06638-.41492.17529-.81985.24163-1.23429.08456-.14569.28709-.31538.63231-.82884l.00863.02631c.60087,1.74126,1.09764,3.43779,1.66369,5.07538a4.41836,4.41836,0,0,0,.128.461c.61865,1.82849,1.19157,3.56111,1.87116,5.33884a7.85547,7.85547,0,0,1-.17468,6.126c-1.53773,4.12866-2.78474,8.35769-4.30772,12.504a2.46614,2.46614,0,0,0,.20178,2.68331,4.19476,4.19476,0,0,0,.70823.66523c2.38272,1.81574,4.76739,3.67472,6.98266,5.66071a2.19633,2.19633,0,0,1,.36118.46953,2.44013,2.44013,0,0,1,.34859,1.7761c-2.32782,6.59953-4.78273,13.17106-7.17516,19.735a6.15742,6.15742,0,0,1-.42987.65924A.90885.90885,0,0,1,294.33533,471.53994Z"/><path class="cls-11" d="M202.40224,522.67613l.00039-.00256c.09024-.50871.21546-1.01676.32866-1.55962-.02649.12462.46988-2.36211.47009-2.36258,1.2216-6.15127,1.99679-9.97576,3.27087-16.126a7.75727,7.75727,0,0,1,1.61486-3.13193c2.72547-3.38973,5.52931-6.66562,8.37339-9.97553a2.80878,2.80878,0,0,0,.75274-3.11211c-4.19453-12.45075-8.31519-24.97829-12.69272-37.38036l-.00065-.00185c-.022-.02628-.0138-.078-.03589-.1044-.03551-.10324-.06309-.25681-.11268-.37792l-.00143-.00491c-1.31759-3.81438-2.55884-7.55809-1.85469-11.90033.51809-3.45373-.42711-5.98053-3.4882-7.39235-1.13813-.55641-1.19961-1.43179-.75114-2.64466.86266-2.32251,1.56182-4.717,2.37505-7.222-3.55832-.11336-6.79189-.06511-10.162,1.8765-2.0293,1.17706-4.07786,2.31048-6.1432,3.383l-.00179.00105c-.0601.05035-.12019.1007-.172.0997l-.00035.00029-.00161.00075c-4.03034,2.18107-8.159,4.265-12.23339,6.39338a3.47652,3.47652,0,0,0-2.04277,2.68312,64.92117,64.92117,0,0,1-5.145,16.09081c-.92356,1.87988-1.68417,3.89249-2.65093,6.15267l.02307-.00413c5.0467-.91568,9.66674-1.72631,14.28728-2.59758l.00225.02137c.02387.15145.02386.32351.05018.47291-5.485,2.33817-11.01032,4.71011-17.07316,7.26331l.03041.01209c4.71745,1.87694,8.85416,3.52944,13.51782,5.32011l-.01312.0089c-3.46955,2.36959-6.83286,4.62006-10.15119,6.86265-.34031.21058-.68641.45553-1.04262.70925-2.2613,1.49146-4.50067,3.00927-6.78487,4.535l-.00793.0053c-.97625-3.95664-1.88937-7.6534-2.824-11.37582l-.00553-.0219c-8.55374,3.1761-16.8619,6.29583-25.18916,9.37194l-.00587.00207c-.058-.13077-.10032-.30462-.18039-.46176,3.8685-3.4654,7.79126-6.8865,11.58888-10.457a4.03612,4.03612,0,0,0,1.26415-2.74834c-.11307-4.33038-.40369-8.64633-.83974-12.93034a2.08124,2.08124,0,0,0-.502-1.00779,1.91985,1.91985,0,0,0-.93107-.66161,38.72646,38.72646,0,0,0-21.57779,1.78378,5.396,5.396,0,0,1-.841.27105c-1.36358.26655-2.74338.57086-4.12121.82058a32.31557,32.31557,0,0,1-2.57645,8.69918c-.21313.47555-.46246.94207-.69957,1.41178.10253.01846.20731.02892.30948.04872a11.59838,11.59838,0,0,1,1.18071.25686,22.17627,22.17627,0,0,1,6.66258,2.72659c.218.128.42531.27878.63927.41529,1.68993-.06245,3.381-.1059,5.04362-.17482-.01454.00756-.0298.01319-.04441.02066a33.592,33.592,0,0,1-3.21139,1.42961,23.324,23.324,0,0,1,3.39549,3.29464,22.7961,22.7961,0,0,1,4.1615,7.42191c2.01517-1.80125,4.0219-3.61524,5.99466-5.47a4.03589,4.03589,0,0,0,1.26416-2.74833c-.113-4.33046-.4037-8.64634-.83966-12.93042a2.08118,2.08118,0,0,0-.50214-1.00771,2.09617,2.09617,0,0,1,.51622,1.02648c.436,4.28392.72651,8.59994.8395,12.9304a4.03525,4.03525,0,0,1-1.26409,2.74842c-1.97452,1.85634-3.98325,3.67187-6.00028,5.47481a24.47338,24.47338,0,0,1,.806,12.016c6.93261-.294,13.31194,2.11781,17.62238,7.26254.1142.1363.21789.27395.3276.41059.40273-.07771.81389-.15338,1.23909-.22189l10.987-9.20529,10.87337,12.97792c.40753-1.36226.7845-2.72738,1.10939-4.13222l.0141.01682c.13526-.51707.24586-1.04328.32891-1.56162l.00006-.00065.00044.00053c-.08285.51787-.19354,1.04416-.3288,1.56122-.325,1.40508-.70208,2.7706-1.10972,4.13309l.79631.95044,5.23331-4.54209.0304-.02546c.6858-2.03909,1.24372-4.04558,1.72819-6.14008l.00054-.00238c.13531-.51666.24562-1.04233.32858-1.55971l.00029-.00143c.40095-2.0102.76036-4.09026,1.034-6.12857.21867-1.693.61662-3.35678.96211-5.18618.1586.15531.27046.24646.34632.31708.06184.05762.10361.10284.09616.14948-.257,4.50564-.03351,8.96761-.28237,13.42173-.01658.597-.06089,1.20213-.13013,1.79836a32.92214,32.92214,0,0,1-3.12442,11.73664,17.37026,17.37026,0,0,0-.98544,2.41388l.2116.25254-.42383.3554c-.28842.86454-.57109,1.73008-.9421,2.56811a12.83979,12.83979,0,0,0-.84947,7.27447q.92459,7.25067,1.8134,14.48927a22.384,22.384,0,0,1,1.63906,13.31635c.44852,3.6775-2.01954,5.6854-1.57416,9.36627l.83364-.13176c6.55218-.62174,16.29412-4.68049,22.70552-9.83064l1.34509-1.08866C199.56964,536.85531,200.99906,529.56784,202.40224,522.67613ZM148.24271,484.2752c-.97616-3.95672-1.88928-7.65347-2.8239-11.37589l.00848-.00323c.93465,3.7221,1.84745,7.41866,2.82344,11.37374Zm47.4393,12.13911-.0137-.00015c.08606-5.73213.17191-11.46468.2665-17.24837l.0003-.01726a1.94591,1.94591,0,0,0-.41143-.059c-1.37191,3.58615-2.77618,7.15468-4.20888,10.79176a1.6806,1.6806,0,0,0-.49025.01685c-.00452.00066-.00761-.00018-.01213.00047-.2152-3.856-.52806-7.70485-.55838-11.56634-.04973-6.64067-.51081-13.34027.29966-20.044.87339-6.87543,2.78694-13.84558,4.33284-20.76145l.00023-.00079a.84445.84445,0,0,0,.07-.22145l.00072-.00181c.06639-.41492.17529-.81984.24163-1.23429.08457-.14569.28709-.31538.63231-.82884l.00863.02632c.60087,1.74125,1.09764,3.43778,1.66369,5.07537a4.41563,4.41563,0,0,0,.12806.461c.61865,1.82849,1.19157,3.56111,1.87116,5.33884a7.85551,7.85551,0,0,1-.17469,6.126c-1.53773,4.12867-2.78473,8.3577-4.30771,12.504a2.46614,2.46614,0,0,0,.20178,2.68332,4.19439,4.19439,0,0,0,.70823.66523c2.38272,1.81573,4.76738,3.67471,6.98265,5.66071a2.19569,2.19569,0,0,1,.36118.46952,2.44019,2.44019,0,0,1,.3486,1.7761c-2.32783,6.59954-4.78274,13.17107-7.17516,19.735a6.16041,6.16041,0,0,1-.42987.65923A.90862.90862,0,0,1,195.682,496.41431Z"/></g><g class="cls-12"><path class="cls-11" d="M94.65013,399.6l-.03451-.07919-1.01984-1.17549-.00022-.00034c-4.88136-5.666-9.79724-11.22653-14.72453-16.734-.4697-.55483-.951-1.05675-1.52393-1.65112-.30936.55472-.5386.93778-.745,1.33411-2.40617,5.28316-4.95016,10.487-7.26479,15.83624a10.46233,10.46233,0,0,1-.60728,1.2148l-.00011.00012-.00035.00068A6.85019,6.85019,0,0,1,67.81329,399.6a5.47473,5.47473,0,0,1-2.30321,1.5189c-3.80438,1.37376-6.71509,4.068-9.43084,7.3569-5.35174,6.49705-11.22311,13.10186-16.72026,19.441.00074.00628.13376.76373.13456.76979.29181,2.17852.9291,3.299,1.412,5.39916a68.477,68.477,0,0,0,2.81226,9.16481c.1881-1.075.40289-2.14218.67225-3.19082,3.59588-14.47071,14.5902-24.72461,27.37528-25.49588.64568-.06023,1.18805-.06023,1.59672-.06023a27.1644,27.1644,0,0,1,17.74107,6.53888c.743-3.47777,1.4861-6.93977,2.22914-10.41377.09166-.55483.22914-1.09629.33233-1.61147.48135-2.23211.951-4.45109,1.398-6.68309a3.89012,3.89012,0,0,0-.41221-2.73358Z"/><path class="cls-11" d="M127.55111,498.78292l.08363-.02163,1.32118-.82239.00037-.00017q9.54427-5.89512,18.84048-11.91118c.62176-.37664,1.1931-.77311,1.87013-1.24545-.49919-.3927-.84146-.67931-1.20042-.94543-4.83928-3.20668-9.57858-6.537-14.49748-9.66368a10.4628,10.4628,0,0,1-1.10424-.79068l-.0001-.00013-.00062-.00045a6.85,6.85,0,0,1-1.09461-1.10205,5.47479,5.47479,0,0,1-1.138-2.51332c-.75869-3.973-2.962-7.27105-5.78306-10.47-5.57508-6.30645-11.17491-13.143-16.57116-19.56823-.00633-.00026-.77527.012-.78138.01189-2.1973-.05424-3.40406.399-5.554.54578a68.47626,68.47626,0,0,0-9.49293,1.33674c1.03211.35474,2.05223.7346,3.04549,1.16544,13.72561,5.82574,22.12391,18.29514,20.876,31.04253-.042.64712-.12726,1.18275-.1915,1.58634a27.16439,27.16439,0,0,1-9.24621,16.49273c3.31775,1.28046,6.61992,2.55844,9.93394,3.83831.53353.17772,1.04664.3986,1.53919.58149,2.12872.82622,4.24628,1.63886,6.38029,2.43109a3.89017,3.89017,0,0,0,2.76439.02259Z"/><path class="cls-11" d="M157.51438,440.59489l-.05137-.06946L156.206,439.608l-.0003-.00029c-6.02573-4.42965-12.06149-8.74878-18.09652-13.01367-.582-.43563-1.16344-.81707-1.85483-1.26813-.17734.60988-.315,1.03454-.42747,1.467-1.16259,5.68769-2.47726,11.32894-3.53585,17.06052a10.46271,10.46271,0,0,1-.32,1.31991l-.00009.00014-.00018.00074a6.85074,6.85074,0,0,1-.61231,1.4275,5.47469,5.47469,0,0,1-1.90479,1.99588c-3.40038,2.19044-5.63418,5.46785-7.54489,9.28114-3.76172,7.53008-8.00577,15.28151-11.94457,22.69022.00213.006.30131.71441.30345.72014.772,2.05793,1.64394,3.00737,2.58465,4.94613a68.47915,68.47915,0,0,0,4.79227,8.30281c-.0573-1.08986-.08682-2.178-.059-3.26033.26568-14.90843,8.68593-27.363,20.974-30.9764.61582-.20322,1.14443-.32462,1.54273-.41609a27.1644,27.1644,0,0,1,18.75454,2.402c-.05424-3.55585-.10494-7.09633-.15832-10.6485-.03486-.56127-.02207-1.11976-.0368-1.645-.03048-2.28322-.06938-4.551-.13336-6.82644a3.8901,3.8901,0,0,0-1.0136-2.572Z"/></g></svg>