<svg width="920" height="506" viewBox="0 0 920 506" fill="none" xmlns="http://www.w3.org/2000/svg">
<g clip-path="url(#clip0_187_1575)">
<mask id="mask0_187_1575" style="mask-type:luminance" maskUnits="userSpaceOnUse" x="40" y="0" width="840" height="506">
<path d="M780.846 506H138.657C84.1329 506 40 461.867 40 407.343V98.6572C40 44.1329 84.1329 0 138.657 0H780.846C835.37 0 879.503 44.1329 879.503 98.6572V407.221C879.503 461.745 835.37 506 780.846 506Z" fill="white"/>
</mask>
<g mask="url(#mask0_187_1575)">
<path d="M124.108 460.521V506.977C116.896 507.588 110.783 511.867 107.238 518.469H20.8057V460.521H124.108Z" fill="#931A1D"/>
</g>
<mask id="mask1_187_1575" style="mask-type:luminance" maskUnits="userSpaceOnUse" x="40" y="0" width="840" height="506">
<path d="M780.846 506H138.657C84.1329 506 40 461.867 40 407.343V98.6572C40 44.1329 84.1329 0 138.657 0H780.846C835.37 0 879.503 44.1329 879.503 98.6572V407.221C879.503 461.745 835.37 506 780.846 506Z" fill="white"/>
</mask>
<g mask="url(#mask1_187_1575)">
<path d="M394.653 540.107H405.777C407.978 532.283 410.056 524.336 412.379 515.901C406.144 523.847 400.154 531.916 394.653 540.107ZM512.748 460.521C512.87 461.254 512.87 461.866 512.992 462.599C513.114 464.555 513.114 466.511 513.237 468.345C513.359 469.078 513.237 469.812 512.625 470.546C512.136 467.978 511.647 465.166 511.158 462.599C511.036 461.866 510.914 461.254 510.792 460.521H421.181C420.692 461.132 420.203 461.743 419.714 462.355C419.714 462.477 419.592 462.477 419.592 462.599C418.369 464.188 417.758 466.756 418.003 468.712C418.736 481.67 419.836 494.507 420.692 507.466C420.814 508.321 420.692 509.299 420.57 510.155C420.325 511.378 419.959 512.722 419.47 513.823C415.68 522.014 411.768 530.082 407.856 538.151C407.489 538.884 407 539.618 406.511 540.229H410.668C411.523 530.938 416.047 526.659 422.404 526.659C428.272 526.659 432.306 531.549 432.306 538.884V540.229H477.05C477.661 531.427 484.141 525.803 491.231 525.803C493.432 525.803 495.632 526.415 497.711 527.637C501.378 523.114 505.046 518.713 509.202 514.801C512.625 511.622 516.171 508.81 520.327 506.488C523.261 504.776 525.951 502.331 528.885 500.497C538.054 494.874 545.267 487.416 551.135 478.37C554.68 472.991 558.714 467.978 562.26 462.721C562.749 462.11 563.238 461.377 563.604 460.643H512.748V460.521ZM654.56 460.521C654.804 460.765 654.926 460.888 655.049 460.888C656.638 461.499 658.227 461.988 659.939 462.477C664.462 463.944 669.23 465.411 674.487 467C674.609 465.411 674.854 463.944 675.098 462.477C675.22 461.743 675.343 461.132 675.343 460.399H654.56V460.521ZM746.982 460.521C747.838 461.132 748.571 461.866 749.427 462.599C754.562 467.122 759.207 472.257 762.508 478.736C763.975 481.793 766.298 484.36 767.887 487.172C770.21 491.084 773.388 493.651 777.3 495.852C800.284 508.688 823.145 521.525 846.006 534.483C846.984 535.094 847.962 535.706 849.796 536.928C841.972 537.662 835.37 538.151 828.768 538.762C828.646 539.129 828.524 539.618 828.524 539.985C828.768 540.107 828.891 540.229 829.135 540.229H899.43V460.521H746.982ZM749.549 483.871L749.305 471.035V470.912C747.227 467.978 745.026 465.166 742.581 462.355C741.97 461.621 741.358 461.01 740.747 460.276H703.338C703.216 460.888 703.216 461.621 703.094 462.355C702.482 466.756 701.993 471.035 701.504 475.558C694.658 472.624 688.301 469.934 681.822 467.245C676.076 481.181 670.575 494.751 664.951 508.321C664.707 508.199 664.34 508.077 664.095 508.077C663.729 499.641 663.606 491.206 662.995 482.771C662.873 481.181 661.895 479.103 660.55 478.37C654.193 473.969 647.714 469.812 640.99 465.9C640.012 465.289 637.811 465.289 636.833 465.9C620.941 476.658 621.063 476.78 613.483 494.629C613.239 495.118 613.116 495.485 612.872 495.974C610.794 499.275 608.838 502.82 606.393 505.754C605.904 506.365 605.292 506.977 604.803 507.71C602.114 510.889 599.057 513.945 595.757 517.49C600.035 518.468 603.948 519.202 607.737 520.18C609.938 520.669 612.138 521.158 614.217 521.647C614.706 521.769 615.317 521.891 615.684 521.524C620.207 519.202 625.097 517.735 629.376 514.801C629.62 514.556 629.865 514.434 630.232 514.189C631.332 513.334 632.432 512.356 633.288 511.378C635.855 508.444 638.545 505.632 640.99 502.82C640.256 505.51 639.401 508.077 638.3 510.522C637.322 512.845 636.222 515.045 635.122 517.368C634.266 518.957 632.677 520.546 631.087 521.28C627.053 523.358 623.141 525.314 619.107 527.148C617.273 530.938 616.295 535.339 616.173 540.107H633.899C634.51 531.305 640.99 525.681 648.08 525.681C654.804 525.681 661.284 531.427 661.895 540.107H693.314C694.292 539.373 695.147 538.517 695.759 537.539C700.649 529.96 705.172 522.258 709.818 514.556C711.04 512.722 712.14 510.889 713.485 508.933C714.219 507.832 714.952 506.61 715.808 505.387C716.664 506.732 717.642 508.077 718.497 509.299C719.475 510.889 720.576 512.356 721.431 513.823C722.776 516.268 724.243 516.879 727.177 516.268C728.4 516.023 729.745 515.656 731.089 515.29C731.212 515.167 731.334 515.167 731.456 515.167C737.569 513.578 743.681 512.233 749.794 510.766L749.549 483.871ZM793.682 534.605H777.423C779.012 528.86 783.535 525.559 788.303 525.07C785.614 520.18 782.924 515.29 780.357 510.4C768.498 514.189 759.696 525.192 759.207 540.107H796.739C795.76 538.273 794.66 536.439 793.682 534.605ZM521.183 531.549C521.061 532.038 520.694 532.649 520.572 533.138C520.205 533.994 520.083 534.972 519.838 535.828C520.572 536.072 521.428 536.317 522.161 536.439C522.039 534.728 521.672 533.138 521.183 531.549ZM579.497 460.521C579.253 461.254 578.886 461.866 578.641 462.599C574.607 471.279 570.573 479.837 566.416 488.517C566.294 489.006 565.927 489.495 565.805 489.861C565.56 489.739 565.316 489.617 565.071 489.495C565.194 489.128 565.194 488.883 565.316 488.517C545.022 491.084 529.618 508.933 529.618 531.182C529.618 533.627 529.863 535.95 530.23 538.273C537.32 539.251 543.555 538.028 548.323 529.471C548.445 529.349 548.445 529.349 548.567 529.226C549.423 516.145 558.714 506.61 570.451 506.61C574.852 506.61 579.008 507.832 582.309 510.277C586.221 505.387 589.522 500.008 593.189 494.874C594.167 493.529 595.268 492.184 596.246 490.839C604.192 481.059 613.116 472.135 621.185 462.355C621.796 461.743 622.285 461.01 622.897 460.276H579.497V460.521ZM146.237 537.662C145.992 538.518 145.87 539.251 145.626 540.107H150.516C150.76 539.74 151.127 539.251 151.494 538.762L146.237 537.662ZM157.729 503.553C159.685 495.729 161.518 488.15 163.474 480.326C163.597 479.47 163.963 478.492 164.086 477.758C164.942 474.091 165.92 470.546 166.653 466.878C167.02 465.533 166.775 463.333 165.92 462.477C165.92 462.355 165.92 462.355 165.797 462.355L163.841 460.399H117.386C116.897 461.132 116.285 461.866 115.674 462.477C114.452 463.577 113.107 464.433 111.395 464.922C104.305 467.122 98.8033 471.524 93.791 476.903C80.9546 490.473 67.6291 503.554 54.4259 516.879C53.8147 517.49 53.3257 517.979 52.5922 518.468C51.4919 519.446 50.3916 520.302 49.1691 521.035C39.878 526.537 30.7091 532.16 21.418 537.662V540.229H105.405C104.549 537.539 104.06 534.605 104.06 531.427C104.06 526.659 105.16 522.258 107.239 518.59C110.784 512.111 116.897 507.71 124.109 507.099C124.721 506.977 125.332 506.977 126.065 506.977C135.846 506.977 143.67 512.722 146.115 524.703L164.697 520.057C163.841 515.412 162.252 511.133 160.051 507.343C158.707 508.444 157.484 509.666 156.139 510.889C156.628 508.933 156.751 507.588 157.117 506.243C157.24 505.265 157.484 504.409 157.729 503.553ZM318.979 460.521C318.856 461.254 318.856 461.866 318.734 462.599C317.145 478.736 315.311 494.996 313.6 511.133C313.477 511.744 313.477 512.233 313.355 512.722C313.233 514.312 312.499 516.023 311.644 517.49C306.876 524.948 302.108 532.527 297.218 540.107H306.998C307.487 531.182 311.766 526.537 318.123 526.537C323.502 526.537 327.781 530.938 327.781 538.028V540.107H363.356C363.478 539.985 363.601 539.985 363.723 539.862C369.224 535.828 373.747 531.182 377.904 525.926C380.594 522.503 383.161 518.957 385.484 515.167C393.919 502.086 402.11 488.883 407.856 474.335C409.445 470.301 411.523 466.511 413.113 462.477C413.357 461.988 413.602 461.499 413.724 461.01C413.846 460.888 413.968 460.643 413.968 460.399H318.979V460.521ZM299.296 514.189C299.296 514.067 299.418 513.945 299.418 513.823C307.12 497.441 312.499 480.203 316.534 462.477C316.778 461.743 316.9 461.132 317.145 460.399H306.509C306.142 461.132 305.776 461.743 305.531 462.477C305.287 463.21 304.797 463.944 304.431 464.8C304.064 463.944 303.819 463.21 303.33 462.477C302.964 461.743 302.597 461.132 302.23 460.399H177.533C177.289 461.132 177.167 461.743 176.922 462.477C175.333 467.734 173.377 472.868 170.565 477.758C170.198 478.37 169.832 478.981 169.465 479.714C169.832 479.837 170.198 480.081 170.565 480.203C170.81 479.959 171.054 479.837 171.299 479.592C175.577 476.169 179.856 472.868 184.869 469.079C184.869 471.524 184.991 472.868 184.869 474.091C184.135 486.805 185.113 499.519 187.436 511.867C187.436 512.233 187.436 512.478 187.558 512.722C189.392 522.136 182.668 527.882 180.223 535.461C179.856 535.339 179.489 535.217 179.123 535.217C178.878 530.082 178.634 524.948 178.389 519.691C174.722 524.459 172.277 530.816 171.665 538.028C173.255 538.64 174.844 539.251 176.433 539.985H189.759C190.37 531.305 195.993 525.559 203.573 525.559C210.541 525.559 216.898 531.427 217.632 539.985H236.092V510.522H242.938C253.819 494.018 264.332 478.247 274.968 462.355H275.946C276.068 462.477 276.313 462.599 276.435 462.599C272.034 475.191 267.633 487.783 263.11 500.497C274.601 494.751 282.059 485.949 286.826 474.335C287.071 480.937 287.193 487.294 285.726 493.407C284.381 498.663 283.037 503.798 281.447 508.933C279.736 514.678 277.902 520.302 276.313 525.926C276.191 526.17 276.191 526.415 276.068 526.781C276.924 526.537 277.902 526.415 278.758 526.415C279.614 526.415 280.469 526.537 281.203 526.781C286.949 523.236 292.328 519.935 297.707 516.512C298.563 516.145 298.929 515.167 299.296 514.189ZM267.755 516.39V510.766H257.975C257.731 510.889 257.608 511.133 257.486 511.255C255.041 513.823 252.351 514.923 249.417 515.412V540.107H262.743C266.655 530.449 270.567 520.791 274.479 511.133C271.79 512.356 269.589 514.189 267.755 516.39Z" fill="#931A1D"/>
</g>
<mask id="mask2_187_1575" style="mask-type:luminance" maskUnits="userSpaceOnUse" x="40" y="0" width="840" height="506">
<path d="M780.846 506H138.657C84.1329 506 40 461.867 40 407.343V98.6572C40 44.1329 84.1329 0 138.657 0H780.846C835.37 0 879.503 44.1329 879.503 98.6572V407.221C879.503 461.745 835.37 506 780.846 506Z" fill="white"/>
</mask>
<g mask="url(#mask2_187_1575)">
<path d="M697.594 382.893C697.961 383.015 698.205 383.137 698.45 383.259C701.873 384.36 704.929 385.46 708.352 386.438C712.264 387.538 714.832 389.616 716.91 393.039C720.944 399.274 725.59 405.265 729.624 411.377C731.213 413.822 732.803 414.189 735.492 413.7C740.994 412.6 746.495 411.622 751.996 410.888C753.341 410.766 755.419 411.377 756.03 412.355C762.632 422.135 769.111 432.038 775.713 441.818C775.835 442.185 775.958 442.674 776.202 443.04C776.08 443.285 775.835 443.407 775.713 443.529C767.644 437.417 759.454 431.304 751.263 425.192C751.018 425.314 750.896 425.436 750.651 425.681C754.197 431.06 757.62 436.561 761.043 442.185C760.798 442.307 760.676 442.551 760.432 442.796C754.686 439.006 748.818 435.461 743.194 431.426C733.658 424.58 723.512 418.223 714.832 410.155C706.03 401.964 698.328 392.306 690.259 383.137C690.137 383.015 690.137 382.893 690.015 382.77H536.466L536.833 383.137C539.034 385.827 541.356 388.638 543.679 391.328C544.902 392.673 546.613 393.895 548.325 394.506C559.572 398.418 570.941 402.208 582.433 405.754C584.145 406.365 586.345 406.365 588.179 405.998C593.436 404.776 598.57 403.309 604.805 401.597C602.482 407.587 602.238 413.455 596.125 416.756C589.157 420.546 582.678 425.314 575.831 429.226C574.242 430.082 571.919 430.204 569.963 429.959C564.584 429.104 560.183 426.17 556.393 422.135C552.359 417.979 547.958 414.067 543.068 409.421C540.501 412.722 538.3 415.778 535.855 418.957C525.953 406.976 515.928 394.995 505.903 383.015L505.537 382.648H415.193V383.015C415.07 388.149 414.948 393.406 415.07 398.663C415.193 405.142 416.415 411.744 417.026 418.223C417.76 424.703 418.371 431.304 418.982 437.784C419.349 437.906 419.594 438.028 419.838 438.028C427.051 428.126 434.142 418.223 441.232 408.321C440.132 415.167 437.931 421.402 436.587 427.759C433.897 439.862 429.374 450.987 421.305 460.4C420.816 461.011 420.327 461.623 419.838 462.234C419.838 462.356 419.716 462.356 419.716 462.478H511.405C511.283 461.745 511.16 461.134 511.038 460.4C510.06 455.143 509.082 449.886 508.226 444.63C506.881 437.172 505.659 429.715 504.192 422.258C503.825 420.668 503.092 418.957 501.991 417.612C497.101 411.01 492.334 404.409 487.077 398.052C483.654 394.017 482.309 389.494 481.331 383.504C482.676 384.971 483.531 385.827 484.02 386.682C490.255 397.196 499.18 405.265 507.615 413.822C508.715 415.045 509.938 416.634 510.06 418.101C511.16 432.16 512.016 446.219 512.872 460.156C512.994 460.889 512.994 461.5 513.116 462.234H562.139C562.628 461.623 563.117 460.889 563.484 460.156C563.606 460.033 563.729 460.033 563.729 459.911C567.641 453.921 572.286 449.031 578.154 444.996C582.311 442.185 586.101 438.884 590.135 435.828C590.379 436.072 590.624 436.317 590.868 436.439C587.201 444.385 583.411 452.331 579.621 460.156C579.377 460.889 579.01 461.5 578.765 462.234H621.187C621.798 461.623 622.287 460.889 622.898 460.156C626.444 455.755 629.867 451.231 632.923 446.463C633.168 446.341 633.534 446.219 634.146 445.852C634.757 448.664 635.246 451.231 636.102 453.799C636.346 454.777 637.446 455.877 638.424 455.999C646.737 457.222 647.715 456.61 651.138 449.031C651.383 448.664 651.75 448.297 652.239 447.441C652.728 451.231 652.972 454.41 653.461 457.588C653.583 458.444 654.073 459.422 654.562 460.156C654.806 460.4 654.928 460.522 655.05 460.522C656.64 461.134 658.229 461.623 659.941 462.112H675.1C675.222 461.378 675.344 460.767 675.344 460.033C675.467 458.689 675.344 457.466 674.855 456.61C668.987 445.608 659.941 436.439 655.906 423.725C651.261 429.47 646.982 434.849 642.703 440.106C642.948 435.338 643.803 430.937 644.659 426.659L646.982 413.578C641.358 411.622 636.957 414.067 632.678 416.756C631.823 415.778 631.334 415.167 630.845 414.433C625.099 405.509 619.109 396.829 613.729 387.783C612.751 385.949 611.529 384.237 610.306 382.77H659.207C657.496 390.105 655.54 397.318 653.706 404.653C653.217 406.854 653.461 408.443 655.05 410.032C661.53 417.123 667.52 424.58 671.921 433.138C673.511 436.194 675.467 439.251 677.545 442.796C682.313 435.583 686.714 428.981 690.993 422.258C691.237 422.38 691.482 422.624 691.726 422.747C688.547 432.038 685.247 441.329 681.579 451.476C689.892 447.564 697.35 444.141 705.541 440.229C704.807 447.075 703.951 453.554 703.218 460.033C703.095 460.645 703.095 461.378 702.973 462.112H742.46C741.849 461.378 741.238 460.767 740.627 460.033C738.182 457.466 735.737 454.777 733.047 452.331C730.847 450.253 729.013 448.053 726.812 445.73C727.546 445.608 727.913 445.485 728.035 445.608C734.147 450.62 740.871 455.021 746.984 459.911C747.84 460.522 748.573 461.256 749.429 461.989H899.554V382.281H697.594V382.893ZM525.341 383.137C525.341 383.015 525.219 382.893 525.219 382.77H522.896C523.019 383.015 523.141 383.137 523.263 383.137C524.363 384.237 525.464 385.215 526.686 386.193C526.197 385.215 525.83 384.237 525.341 383.137ZM414.581 455.021C413.848 440.84 412.992 426.659 412.014 412.6C411.892 410.399 411.647 408.321 411.525 406.12C411.281 405.998 410.914 405.998 410.669 405.876C403.945 417.734 397.344 429.593 390.376 442.062C390.376 428.859 390.253 416.512 390.498 404.042C390.62 401.719 390.987 399.397 391.72 397.074C393.31 392.428 395.021 387.783 396.733 383.137C396.733 383.015 396.855 382.893 396.855 382.77H359.69C359.69 382.893 359.568 383.015 359.568 383.137C358.468 389.739 357.245 396.462 356.023 403.186C356.39 403.309 356.634 403.431 356.879 403.553C358.712 400.008 360.424 396.34 362.38 392.917C364.214 389.861 365.314 386.56 365.558 383.137H373.994C373.505 389.005 373.016 394.995 372.405 400.863C372.282 402.82 371.671 404.776 370.938 406.609C366.047 417.367 360.791 428.003 356.023 438.762C354.311 442.674 353.7 446.83 352.722 450.987C352.355 452.576 352.111 454.41 351.744 456.121C351.499 456.244 351.133 456.366 350.766 456.366C347.832 450.375 344.898 444.385 342.208 438.273C341.719 437.295 341.964 436.072 342.331 434.972C345.754 419.69 349.054 404.409 353.089 389.25C353.578 387.171 354.434 385.215 355.534 383.259C355.656 383.137 355.656 383.015 355.656 382.893H21.542V460.522H117.51C117.021 461.256 116.409 461.989 115.798 462.601H165.921C165.921 462.478 165.921 462.478 165.799 462.478L163.843 460.522H177.535C177.291 461.256 177.168 461.867 176.924 462.601H303.455C303.088 461.867 302.721 461.256 302.354 460.522C299.787 456.366 296.731 452.943 297.342 447.564C299.665 426.17 301.621 404.653 303.455 383.259H310.545C309.445 384.849 308.834 387.294 308.589 389.25C307.733 400.619 307.122 412.111 306.389 423.48C306.022 428.492 305.777 433.505 305.411 439.251C310.79 436.561 315.313 434.116 319.836 431.793C320.081 432.038 320.325 432.16 320.57 432.404C315.924 441.573 311.401 450.742 306.511 460.522C306.144 461.256 305.777 461.867 305.533 462.601H316.535C316.78 461.867 316.902 461.256 317.147 460.522C317.269 459.667 317.513 458.811 317.758 457.955C318.125 456.366 318.614 454.777 318.981 453.187C319.47 454.532 319.47 455.51 319.347 456.733C319.225 458.077 318.981 459.3 318.981 460.522C318.858 461.256 318.858 461.867 318.736 462.601H412.87C413.114 462.112 413.359 461.623 413.481 461.134C413.603 461.011 413.726 460.767 413.726 460.522C414.459 458.811 414.826 456.733 414.581 455.021Z" fill="#D91F26"/>
</g>
<mask id="mask3_187_1575" style="mask-type:luminance" maskUnits="userSpaceOnUse" x="40" y="0" width="840" height="506">
<path d="M780.846 506H138.657C84.1329 506 40 461.867 40 407.343V98.6572C40 44.1329 84.1329 0 138.657 0H780.846C835.37 0 879.503 44.1329 879.503 98.6572V407.221C879.503 461.745 835.37 506 780.846 506Z" fill="white"/>
</mask>
<g mask="url(#mask3_187_1575)">
<path d="M21.542 303.551V383.259H355.412C355.534 383.137 355.534 383.014 355.534 382.892C356.879 380.325 358.346 377.88 359.69 375.313C360.057 375.557 360.546 375.679 360.913 375.802C360.546 378.247 360.057 380.569 359.69 383.014C359.69 383.137 359.568 383.259 359.568 383.381H396.733C396.733 383.259 396.855 383.137 396.855 383.014C402.478 367.122 408.224 351.351 413.97 335.458C415.193 332.035 416.66 328.612 418.004 325.189C418.616 325.801 418.738 326.29 418.738 326.656C417.76 340.349 416.537 353.918 415.804 367.611C415.559 372.623 415.315 377.758 415.193 382.892V383.259H505.903L505.537 382.892C500.769 377.024 495.879 371.278 490.989 365.41C491.111 365.166 491.111 364.921 491.233 364.677C495.39 365.777 499.302 367.244 503.581 368.1C509.693 369.322 514.583 372.012 518.129 377.269C519.596 379.225 521.307 381.181 523.019 382.892C523.141 383.137 523.263 383.259 523.385 383.259H525.464C525.464 383.137 525.341 383.014 525.341 382.892C523.508 378.491 521.674 373.968 519.718 369.444C523.141 368.466 525.464 369.078 527.542 371.767C530.476 375.557 533.532 379.225 536.589 382.892L536.955 383.259H690.626C690.504 383.137 690.504 383.014 690.381 382.892C689.892 382.403 689.403 381.792 688.914 381.303C688.792 381.058 688.792 380.569 688.425 379.714C691.604 380.814 694.66 381.914 697.716 382.892C698.083 383.014 698.328 383.137 698.572 383.259H899.676V303.551H21.542ZM365.558 382.892C365.681 382.281 365.681 381.67 365.681 380.936C365.436 360.031 371.182 339.982 375.094 319.444C375.216 318.832 375.583 318.343 376.439 317.854C376.806 325.189 377.784 332.524 377.295 339.86C376.317 354.163 375.094 368.466 373.872 382.77H365.558V382.892Z" fill="#EC2D24"/>
</g>
<mask id="mask4_187_1575" style="mask-type:luminance" maskUnits="userSpaceOnUse" x="40" y="0" width="840" height="506">
<path d="M780.846 506H138.657C84.1329 506 40 461.867 40 407.343V98.6572C40 44.1329 84.1329 0 138.657 0H780.846C835.37 0 879.503 44.1329 879.503 98.6572V407.221C879.503 461.745 835.37 506 780.846 506Z" fill="white"/>
</mask>
<g mask="url(#mask4_187_1575)">
<path d="M899.554 225.064H21.542V304.65H899.554V225.064Z" fill="#F15922"/>
</g>
<mask id="mask5_187_1575" style="mask-type:luminance" maskUnits="userSpaceOnUse" x="40" y="0" width="840" height="506">
<path d="M780.846 506H138.657C84.1329 506 40 461.867 40 407.343V98.6572C40 44.1329 84.1329 0 138.657 0H780.846C835.37 0 879.503 44.1329 879.503 98.6572V407.221C879.503 461.745 835.37 506 780.846 506Z" fill="white"/>
</mask>
<g mask="url(#mask5_187_1575)">
<path d="M899.554 146.581H21.542V226.167H899.554V146.581Z" fill="#F78D1E"/>
</g>
<mask id="mask6_187_1575" style="mask-type:luminance" maskUnits="userSpaceOnUse" x="40" y="0" width="840" height="506">
<path d="M780.846 506H138.657C84.1329 506 40 461.867 40 407.343V98.6572C40 44.1329 84.1329 0 138.657 0H780.846C835.37 0 879.503 44.1329 879.503 98.6572V407.221C879.503 461.745 835.37 506 780.846 506Z" fill="white"/>
</mask>
<g mask="url(#mask6_187_1575)">
<path d="M899.554 66.8721H21.542V146.458H899.554V66.8721Z" fill="#FBD214"/>
</g>
<mask id="mask7_187_1575" style="mask-type:luminance" maskUnits="userSpaceOnUse" x="40" y="0" width="840" height="506">
<path d="M780.846 506H138.657C84.1329 506 40 461.867 40 407.343V98.6572C40 44.1329 84.1329 0 138.657 0H780.846C835.37 0 879.503 44.1329 879.503 98.6572V407.221C879.503 461.745 835.37 506 780.846 506Z" fill="white"/>
</mask>
<g mask="url(#mask7_187_1575)">
<path d="M899.554 -11.6152H21.542V67.9706H899.554V-11.6152Z" fill="#EDE93D"/>
</g>
<mask id="mask8_187_1575" style="mask-type:luminance" maskUnits="userSpaceOnUse" x="40" y="0" width="840" height="506">
<path d="M780.846 506H138.657C84.1329 506 40 461.867 40 407.343V98.6572C40 44.1329 84.1329 0 138.657 0H780.846C835.37 0 879.503 44.1329 879.503 98.6572V407.221C879.503 461.745 835.37 506 780.846 506Z" fill="white"/>
</mask>
<g mask="url(#mask8_187_1575)">
<path d="M157.729 512.112C159.685 504.288 161.519 496.709 163.475 488.884C163.597 488.029 163.964 487.051 164.086 486.317C164.942 482.65 165.92 479.104 166.654 475.437C167.02 474.092 166.776 471.891 165.92 471.036C165.92 470.913 165.92 470.913 165.798 470.913L163.842 468.957C154.673 459.789 145.504 450.742 136.335 441.817C135.479 440.962 134.501 440.106 133.523 439.128C132.912 439.984 132.545 440.595 132.178 441.328C127.655 449.886 122.887 458.321 118.609 467.001C118.364 467.735 117.875 468.346 117.508 468.957C117.019 469.691 116.408 470.424 115.797 471.036C114.574 472.136 113.229 472.992 111.518 473.481C104.427 475.681 98.926 480.082 93.9137 485.461C81.0773 499.031 67.7518 512.112 54.5486 525.438C53.9374 526.049 53.4484 526.538 52.7149 527.027C51.6146 528.005 50.5143 528.861 49.2918 529.594C40.0007 535.096 30.8318 540.719 21.5407 546.221C-2.78743 560.891 -26.9933 575.439 -51.1991 590.109C-57.8007 594.021 -64.2801 598.055 -71.0039 601.967C-70.8817 602.212 -70.7594 602.456 -70.6372 602.701C-69.9036 602.456 -69.0479 602.334 -68.1921 602.09C-41.5412 595.733 -14.8904 589.375 11.7605 583.141C33.0323 578.128 54.0596 571.282 76.4317 573.483C77.8987 573.727 79.977 572.382 81.1995 571.282C84.5003 568.226 87.8011 565.414 91.1019 562.358C95.992 557.957 100.882 553.556 105.772 549.277C106.017 549.032 106.261 548.91 106.383 548.666H105.528C104.672 545.976 104.183 543.042 104.183 539.863C104.183 535.096 105.283 530.695 107.361 527.027C110.907 520.548 117.019 516.147 124.232 515.535C124.843 515.413 125.455 515.413 126.188 515.413C135.968 515.413 143.792 521.159 146.237 533.14L164.82 528.494C163.964 523.848 162.375 519.57 160.174 515.78C158.829 516.88 157.607 518.103 156.262 519.325C156.751 517.369 156.873 516.024 157.24 514.68C157.24 513.824 157.485 512.968 157.729 512.112ZM146.237 546.221C145.993 547.076 145.871 547.81 145.626 548.666C142.57 559.301 135.113 564.436 126.066 564.436C119.953 564.436 114.452 561.746 110.418 557.345C106.872 562.48 103.205 567.737 99.5373 572.994C100.515 573.849 101.493 574.583 102.471 575.439C107.973 573.972 113.229 572.505 118.731 570.915C118.12 574.827 117.631 578.373 117.264 582.04C119.587 582.529 122.032 582.896 124.599 582.896C133.157 571.527 141.836 560.157 150.516 548.788C150.761 548.421 151.128 547.932 151.494 547.443L146.237 546.221ZM256.998 581.062H267.756V573.116C264.577 576.539 261.032 579.229 256.998 581.062ZM521.184 540.23C521.061 540.719 520.695 541.33 520.572 541.819C520.206 542.675 520.083 543.653 519.839 544.509C520.572 544.753 521.428 544.998 522.162 545.12C522.039 543.286 521.673 541.819 521.184 540.23ZM674.732 465.657C668.864 454.654 659.817 445.485 655.783 432.771C651.137 438.517 646.858 443.896 642.58 449.153C642.824 444.385 643.68 439.984 644.536 435.705L646.858 422.624C641.235 420.668 636.834 423.113 632.555 425.803C631.699 424.825 631.21 424.213 630.721 423.48C624.975 414.555 618.985 405.875 613.606 396.829C612.628 394.995 611.405 393.284 610.183 391.817C610.061 391.694 610.061 391.572 609.938 391.45C606.638 387.415 602.603 384.237 597.224 382.525C587.688 379.469 579.987 373.479 573.018 366.266C568.862 361.987 564.338 358.075 559.815 354.163C558.715 353.185 557.126 352.207 555.903 352.329C550.157 353.307 546.367 350.618 542.822 346.461C539.399 342.305 535.365 338.759 531.819 334.847C527.907 330.446 523.629 326.656 518.005 324.456C514.337 322.989 512.137 320.299 510.792 316.632C510.303 315.531 510.059 314.553 509.692 313.453C509.57 313.086 509.447 312.72 509.325 312.353C507.858 307.952 506.391 303.673 503.335 301.106C499.056 297.438 492.088 297.071 486.342 294.993C483.163 293.771 480.107 292.181 477.295 290.225C474.239 288.025 471.427 285.458 467.882 282.401C465.559 285.213 462.014 287.536 461.647 290.225C460.547 297.56 459.569 305.018 459.935 312.597C460.058 312.964 460.058 313.331 460.058 313.698C460.18 316.265 460.547 318.832 461.036 321.4C461.769 324.945 461.891 328.612 462.258 332.035C459.691 327.634 457.735 322.989 456.39 318.221C455.901 316.632 455.29 315.165 454.434 313.698C454.312 313.209 453.945 312.842 453.701 312.597C452.478 310.519 450.767 308.685 448.933 306.974C447.343 305.385 445.876 303.062 445.143 300.861C440.253 285.335 435.607 269.687 430.962 254.161C429.984 250.983 428.517 248.782 425.583 247.07C418.737 243.281 412.257 239.246 405.533 235.334C405.411 235.334 405.411 235.212 405.411 235.212C404.8 234.723 404.189 234.356 403.455 234.112C400.154 232.034 396.609 230.077 392.941 227.877C391.352 230.077 389.396 232.156 387.685 234.112C387.318 234.479 386.951 234.845 386.707 235.212C384.506 237.779 382.672 240.347 381.694 243.036C378.516 251.838 377.66 261.374 375.948 270.665C376.071 270.787 376.437 270.91 376.682 270.91C379.494 264.308 382.428 257.584 385.24 250.983C385.606 251.105 386.095 251.105 386.462 251.227C382.672 270.176 384.017 289.125 385.851 308.196H384.873C382.428 304.651 379.983 301.228 377.049 296.949C375.582 302.328 374.115 307.463 372.648 312.597C372.525 312.964 372.403 313.331 372.281 313.698C369.225 324.7 366.046 335.458 362.99 346.461C359.322 341.327 358.711 339.126 359.689 334.358C361.034 327.512 362.379 320.544 363.968 313.698C364.09 313.209 364.09 312.964 364.212 312.597C364.457 311.497 364.701 310.519 364.946 309.541C366.046 304.529 366.535 299.516 365.557 294.504C364.946 291.203 364.824 287.78 364.335 284.48C363.723 279.345 362.99 274.21 362.256 268.22C356.266 276.655 350.887 284.235 345.508 291.815C342.085 296.582 338.173 301.35 337.317 307.585C337.072 309.419 336.583 311.13 335.85 312.72C335.728 313.086 335.483 313.453 335.239 313.82C333.283 317.121 330.349 319.199 325.825 320.299C322.891 321.033 321.424 322.989 320.324 325.923C318.368 331.546 316.534 337.17 313.967 342.671C311.4 348.417 310.544 354.163 311.522 360.398C312.133 364.432 312.378 368.466 312.744 372.501C313.111 372.501 313.356 372.379 313.6 372.379C316.412 363.087 319.101 353.674 321.913 344.261C322.402 344.383 322.891 344.383 323.38 344.505C323.38 350.74 323.747 357.097 323.38 363.332C322.769 374.09 318.735 383.381 311.155 391.328C310.911 391.572 310.788 391.817 310.544 392.061C310.422 392.183 310.422 392.306 310.299 392.428C309.199 394.017 308.588 396.462 308.343 398.418C307.487 409.788 306.876 421.279 306.143 432.649C305.776 437.661 305.531 442.673 305.165 448.419C310.544 445.73 315.067 443.285 319.59 440.962C319.835 441.206 320.079 441.329 320.324 441.573C315.678 450.742 311.155 459.911 306.265 469.691C305.898 470.424 305.531 471.036 305.287 471.769C305.042 472.503 304.553 473.236 304.187 474.092C303.82 473.236 303.575 472.503 303.086 471.769C302.72 471.036 302.353 470.424 301.986 469.691C299.419 465.534 296.363 462.111 296.974 456.732C299.297 435.338 301.253 413.822 303.086 392.428C303.086 392.306 303.209 392.183 303.086 392.061C303.209 391.328 303.331 390.594 303.331 389.861C303.82 384.237 303.331 378.491 302.842 372.868C302.475 367.977 301.497 363.087 300.641 356.975C296.485 360.52 291.595 362.721 290.128 366.266C286.705 374.946 283.037 383.381 280.225 392.183C280.103 392.306 280.103 392.428 280.103 392.55C277.658 400.13 275.702 407.954 274.846 416.145C274.48 421.035 273.257 425.803 272.279 431.059C271.056 430.326 270.078 429.837 269.345 429.348C261.643 424.213 253.574 419.568 246.484 413.944C237.437 406.854 227.779 402.819 216.288 404.897C215.921 405.02 215.554 405.02 215.187 404.897C212.62 404.164 209.931 403.797 207.73 402.452C203.329 399.763 199.172 396.584 194.527 393.284C193.304 412.722 193.916 431.548 189.148 449.886C187.925 442.551 186.825 435.216 185.725 427.759C182.302 441.817 181.201 456.121 177.412 469.813C177.167 470.547 177.045 471.158 176.8 471.891C175.211 477.148 173.255 482.283 170.443 487.173C170.077 487.784 169.71 488.395 169.343 489.129C169.71 489.251 170.077 489.496 170.443 489.618C170.688 489.373 170.932 489.251 171.177 489.007C175.456 485.584 179.734 482.283 184.747 478.493C184.747 480.938 184.869 482.283 184.747 483.505C184.013 496.22 184.991 508.934 187.314 521.281C187.314 521.648 187.314 521.892 187.436 522.137C189.27 531.55 182.546 537.296 180.101 544.876C179.734 544.753 179.368 544.631 179.001 544.631C178.756 539.497 178.512 534.362 178.267 529.105C174.6 533.873 172.155 540.23 171.544 547.443C173.133 548.054 174.722 548.666 176.311 549.399C176.434 549.399 176.556 549.521 176.678 549.521C181.079 551.6 184.991 551.844 189.515 549.399C189.637 549.399 189.637 549.277 189.637 549.277C189.759 549.277 189.759 549.277 189.759 549.277C190.37 540.597 195.994 534.851 203.574 534.851C210.542 534.851 216.899 540.719 217.632 549.277C217.755 549.766 217.755 550.255 217.755 550.744C217.755 560.279 211.153 566.759 203.574 566.759C200.884 566.759 198.317 566.025 196.238 564.681C193.671 569.448 191.104 574.338 188.537 579.229C188.781 579.473 189.026 579.595 189.27 579.84C200.762 575.561 212.253 571.282 223.745 567.126C223.99 567.492 224.234 567.737 224.479 567.981C221.545 570.793 219.222 574.216 216.777 577.517C217.143 577.272 217.388 577.028 217.755 576.783V581.674H236.092V549.277H236.215V519.814H243.061C253.941 503.31 264.455 487.54 275.091 471.647C275.213 471.525 275.335 471.402 275.335 471.28C275.58 471.525 275.824 471.525 276.069 471.647C276.191 471.769 276.436 471.891 276.558 471.891C272.157 484.483 267.756 497.075 263.232 509.789C274.724 504.044 282.181 495.242 286.949 483.628C287.194 490.229 287.316 496.586 285.849 502.699C284.504 507.956 283.159 513.09 281.57 518.225C279.859 523.971 278.025 529.594 276.436 535.218C276.313 535.462 276.313 535.707 276.191 536.074C277.047 535.829 278.025 535.707 278.881 535.707C279.736 535.707 280.592 535.829 281.326 536.074C287.071 532.528 292.451 529.228 297.83 525.804C298.563 525.315 298.93 524.337 299.419 523.359C299.419 523.237 299.541 523.115 299.541 522.993C307.243 506.611 312.622 489.373 316.656 471.647C316.901 470.913 317.023 470.302 317.268 469.569C317.39 468.713 317.634 467.857 317.879 467.001C318.246 465.412 318.735 463.823 319.101 462.234C319.59 463.578 319.59 464.556 319.468 465.779C319.346 467.124 319.101 468.346 319.101 469.569C318.979 470.302 318.979 470.913 318.857 471.647C317.268 487.784 315.434 504.044 313.722 520.181C313.6 520.792 313.6 521.281 313.478 521.77C313.356 523.359 312.622 525.071 311.766 526.538C306.998 533.995 302.231 541.575 297.341 549.155C294.407 553.8 291.473 558.446 288.661 563.091V581.551H306.998V551.355C306.998 550.622 306.998 549.888 307.121 549.155C307.61 540.23 311.889 535.585 318.246 535.585C323.625 535.585 327.904 539.986 327.904 547.076V581.551H335.361C339.64 579.473 343.185 576.661 346.119 573.116V549.155H359.567V552.333C360.789 551.233 362.134 550.133 363.479 549.155C363.601 549.032 363.723 549.032 363.846 548.91C369.347 544.876 373.87 540.23 378.027 534.973C380.716 531.55 383.284 528.005 385.606 524.215C394.042 511.134 402.233 497.931 407.978 483.383C409.568 479.349 411.646 475.559 413.235 471.525C413.48 471.036 413.724 470.547 413.847 470.058C413.969 469.935 414.091 469.691 414.091 469.446C414.702 467.735 415.069 465.779 414.947 463.945C414.213 449.764 413.358 435.583 412.38 421.524C412.257 419.323 412.013 417.245 411.891 415.044C411.646 414.922 411.279 414.922 411.035 414.8C404.311 426.658 397.709 438.517 390.741 450.986C390.741 437.783 390.619 425.436 390.863 412.966C390.985 410.643 391.352 408.321 392.086 405.998C393.675 401.352 395.387 396.707 397.098 392.061C397.098 391.939 397.22 391.817 397.22 391.694C402.844 375.802 408.59 360.031 414.336 344.138C415.558 340.715 417.025 337.292 418.37 333.869C418.981 334.48 419.103 334.969 419.103 335.336C418.125 349.028 416.903 362.598 416.169 376.291C415.925 381.303 415.68 386.437 415.558 391.572V391.939C415.436 397.073 415.314 402.33 415.436 407.587C415.558 414.066 416.781 420.668 417.392 427.147C418.125 433.627 418.737 440.228 419.348 446.708C419.715 446.83 419.959 446.952 420.204 446.952C427.416 437.05 434.507 427.147 441.598 417.245C440.497 424.091 438.297 430.326 436.952 436.683C434.263 448.786 429.739 459.911 421.671 469.324C421.182 469.935 420.693 470.547 420.204 471.158C420.204 471.28 420.081 471.28 420.081 471.402C418.859 472.992 418.248 475.559 418.492 477.515C419.226 490.474 420.326 503.31 421.182 516.269C421.304 517.125 421.182 518.103 421.059 518.958C420.815 520.181 420.448 521.526 419.959 522.626C416.169 530.817 412.257 538.885 408.345 546.954C407.978 547.688 407.489 548.421 407 549.032C406.878 549.155 406.878 549.277 406.756 549.521C406.511 549.399 406.389 549.277 406.267 549.277C406.267 549.155 406.389 549.155 406.389 549.155C408.59 541.33 410.668 533.384 412.991 524.949C406.756 532.895 400.766 540.964 395.142 549.155C394.286 550.377 393.43 551.722 392.575 552.944V581.551H398.81C402.355 578.984 406.267 578.128 410.79 579.351V552.944C410.79 551.6 410.912 550.377 411.035 549.277C411.89 539.986 416.414 535.707 422.771 535.707C428.639 535.707 432.673 540.597 432.673 547.932V575.194C438.664 570.671 444.898 566.27 450.889 561.869V549.277H459.691C459.569 549.766 459.569 550.255 459.569 550.744C459.569 552.578 459.691 554.411 460.058 556.123C463.603 555.023 467.393 555.023 470.938 553.8C471.06 554.045 471.305 554.411 471.427 554.656C468.86 558.69 466.17 562.724 463.603 566.881C464.092 567.615 464.459 568.47 464.948 569.082C469.471 565.292 474.239 561.624 478.762 557.59C477.906 555.512 477.417 553.189 477.417 550.622C477.417 550.133 477.417 549.644 477.54 549.155C478.151 540.352 484.63 534.729 491.721 534.729C493.921 534.729 496.122 535.34 498.2 536.563C501.868 532.039 505.535 527.638 509.692 523.726C513.115 520.548 516.66 517.736 520.817 515.413C523.751 513.702 526.44 511.257 529.374 509.423C538.543 503.799 545.756 496.342 551.624 487.295C555.17 481.916 559.204 476.904 562.749 471.647C563.238 471.036 563.727 470.302 564.094 469.569C564.216 469.446 564.338 469.446 564.338 469.324C568.251 463.334 572.896 458.444 578.764 454.409C582.921 451.598 586.71 448.297 590.745 445.241C590.989 445.485 591.234 445.73 591.478 445.852C587.811 453.798 584.021 461.745 580.231 469.569C579.987 470.302 579.62 470.913 579.375 471.647C575.341 480.327 571.307 488.884 567.15 497.564C567.028 498.053 566.661 498.542 566.539 498.909C566.294 498.787 566.05 498.665 565.805 498.542C565.928 498.176 565.928 497.931 566.05 497.564C545.756 500.132 530.352 517.98 530.352 540.23C530.352 542.675 530.597 544.998 530.964 547.321C538.054 548.299 544.289 547.076 549.057 538.519C549.179 538.396 549.179 538.396 549.301 538.274C550.157 525.193 559.448 515.658 571.185 515.658C575.586 515.658 579.742 516.88 583.043 519.325C586.955 514.435 590.256 509.056 593.923 503.921C594.901 502.577 596.002 501.232 596.98 499.887C604.926 490.107 613.85 481.183 621.919 471.402C622.53 470.791 623.019 470.058 623.631 469.324C627.176 464.923 630.599 460.4 633.655 455.632C633.9 455.51 634.266 455.387 634.878 455.021C635.489 457.832 635.978 460.4 636.834 462.967C637.078 463.945 638.178 465.045 639.156 465.168C647.47 466.39 648.448 465.779 651.871 458.199C652.115 457.833 652.482 457.466 652.971 456.61C653.46 460.4 653.704 463.578 654.193 466.757C654.316 467.613 654.805 468.591 655.294 469.324C655.538 469.569 655.66 469.691 655.783 469.691C657.372 470.302 658.961 470.791 660.673 471.28C665.196 472.747 669.964 474.214 675.221 475.804C675.343 474.214 675.587 472.747 675.832 471.28C675.954 470.547 676.077 469.935 676.077 469.202C675.465 467.735 675.343 466.512 674.732 465.657ZM374.115 391.694C373.626 397.562 373.137 403.553 372.525 409.421C372.403 411.377 371.792 413.333 371.058 415.167C366.168 425.925 360.912 436.561 356.144 447.319C354.432 451.231 353.821 455.387 352.843 459.544C352.476 461.133 352.232 462.967 351.865 464.679C351.62 464.801 351.254 464.923 350.887 464.923C347.953 458.933 345.019 452.942 342.329 446.83C341.84 445.852 342.085 444.629 342.451 443.529C345.875 428.248 349.175 412.966 353.21 397.807C353.699 395.729 354.554 393.773 355.655 391.817C355.777 391.694 355.777 391.572 355.777 391.45C357.122 388.883 358.589 386.437 359.934 383.87C360.3 384.115 360.789 384.237 361.156 384.359C360.789 386.804 360.3 389.127 359.934 391.572C359.934 391.694 359.811 391.817 359.811 391.939C358.711 398.54 357.488 405.264 356.266 411.988C356.633 412.11 356.877 412.233 357.122 412.355C358.955 408.81 360.667 405.142 362.623 401.719C364.457 398.663 365.557 395.362 365.802 391.939C365.924 391.817 365.924 391.694 365.802 391.572C365.924 390.961 365.924 390.35 365.924 389.616C365.679 368.711 371.425 348.662 375.337 328.123C375.459 327.512 375.826 327.023 376.682 326.534C377.049 333.869 378.027 341.204 377.538 348.539C376.56 362.843 375.337 377.146 374.115 391.45V391.694ZM512.993 471.036C513.115 472.992 513.115 474.948 513.237 476.782C513.359 477.515 513.237 478.249 512.626 478.982C512.137 476.415 511.648 473.603 511.159 471.036C511.037 470.302 510.914 469.691 510.792 468.957C509.814 463.701 508.836 458.444 507.98 453.187C506.636 445.73 505.413 438.272 503.946 430.815C503.579 429.226 502.846 427.514 501.746 426.169C496.855 419.568 492.088 412.966 486.831 406.609C483.408 402.575 482.063 398.051 481.085 392.061C482.43 393.528 483.286 394.384 483.775 395.24C490.009 405.753 498.934 413.822 507.369 422.379C508.469 423.602 509.692 425.191 509.814 426.658C510.914 440.717 511.77 454.776 512.626 468.713C512.87 469.691 512.87 470.424 512.993 471.036ZM575.708 437.783C574.119 438.639 571.796 438.761 569.84 438.517C564.461 437.661 560.06 434.727 556.27 430.693C552.235 426.536 547.834 422.624 542.944 417.978C540.377 421.279 538.177 424.336 535.732 427.514C525.829 415.533 515.804 403.553 505.78 391.572L505.413 391.205C500.645 385.337 495.755 379.591 490.865 373.723C490.987 373.479 490.987 373.234 491.11 372.99C495.266 374.09 499.178 375.557 503.457 376.413C509.57 377.635 514.46 380.325 518.005 385.582C519.472 387.538 521.184 389.494 522.895 391.205C523.017 391.45 523.14 391.572 523.262 391.572C524.362 392.672 525.462 393.65 526.685 394.628C526.196 393.528 525.829 392.55 525.34 391.572C525.34 391.45 525.218 391.328 525.218 391.205C523.384 386.804 521.55 382.281 519.594 377.758C523.017 376.78 525.34 377.391 527.418 380.08C530.352 383.87 533.409 387.538 536.465 391.205L536.832 391.572C539.032 394.262 541.355 397.073 543.678 399.763C544.9 401.108 546.612 402.33 548.323 402.941C559.571 406.854 570.94 410.643 582.432 414.189C584.143 414.8 586.344 414.8 588.178 414.433C593.434 413.211 598.569 411.744 604.804 410.032C602.481 416.022 602.236 421.89 596.124 425.191C589.033 429.103 582.554 433.871 575.708 437.783ZM267.756 524.949V519.325H257.976C257.731 519.447 257.609 519.692 257.487 519.814C255.041 522.381 252.352 523.482 249.418 523.971V566.637C252.596 562.847 255.897 558.935 259.198 555.145C260.298 553.8 261.399 552.089 262.01 550.499C262.254 549.888 262.499 549.277 262.743 548.666C266.655 539.008 270.567 529.35 274.48 519.692C271.79 520.914 269.589 522.748 267.756 524.949ZM375.826 581.062H377.782V576.906C377.049 578.25 376.437 579.718 375.826 581.062Z" fill="#EDD6AC"/>
</g>
<mask id="mask9_187_1575" style="mask-type:luminance" maskUnits="userSpaceOnUse" x="40" y="0" width="840" height="506">
<path d="M780.846 506H138.657C84.1329 506 40 461.867 40 407.343V98.6572C40 44.1329 84.1329 0 138.657 0H780.846C835.37 0 879.503 44.1329 879.503 98.6572V407.221C879.503 461.745 835.37 506 780.846 506Z" fill="white"/>
</mask>
<g mask="url(#mask9_187_1575)">
<path d="M733.534 567.981C732.067 569.082 729.989 569.815 728.155 569.815C719.23 569.937 710.184 569.937 701.259 569.937C698.814 569.815 697.103 570.671 695.636 572.505C695.147 573.116 694.658 573.727 694.169 574.461C699.181 579.84 706.149 582.896 713.485 582.896C720.942 582.896 726.81 580.451 731.333 576.05V580.94H749.671V555.023C744.292 559.424 738.913 563.703 733.534 567.981ZM810.063 561.869L801.75 560.035C798.694 566.025 793.682 567.248 789.403 567.248C783.29 567.248 778.522 562.725 777.055 555.267H801.383C800.161 554.167 799.061 552.944 798.327 551.6C797.716 550.622 797.227 549.644 796.738 548.788C795.76 546.954 794.66 545.12 793.682 543.286H777.422C779.011 537.541 783.535 534.24 788.303 533.751C785.613 528.861 782.923 523.971 780.356 519.081C768.498 522.87 759.696 533.873 759.207 548.788C759.084 549.277 759.084 549.766 759.084 550.255C759.084 564.192 766.053 574.95 776.077 579.84C777.055 578.006 778.033 576.172 779.256 574.094C779.623 576.294 779.867 577.272 779.989 578.373C780.112 579.351 780.234 580.451 780.356 581.429C783.29 582.407 786.224 582.774 789.403 582.774C801.506 582.774 811.286 577.517 816.543 566.637C814.464 565.17 812.264 563.458 810.063 561.869ZM1050.04 594.877C1022.41 578.25 994.908 561.502 967.279 544.876C958.477 539.497 949.919 533.506 940.506 529.227C927.058 523.237 913.244 517.858 899.552 512.235C894.295 510.156 889.16 508.078 883.903 506C882.681 505.511 881.214 505.022 879.136 504.166C880.48 515.535 881.703 526.049 883.048 537.296C881.825 536.318 881.092 535.707 880.603 535.218C860.92 513.824 841.238 492.43 821.555 471.036C820.944 470.424 820.332 469.691 819.721 468.957C812.386 461.011 805.051 453.065 797.716 444.996C796.493 443.651 795.515 441.573 795.149 439.739C793.559 432.771 792.215 425.925 790.87 418.956C790.381 416.756 789.647 415.533 787.325 414.8C764.463 407.098 741.602 399.152 718.497 391.694C718.375 391.694 718.375 391.572 718.252 391.572C718.008 391.45 717.763 391.328 717.519 391.328C710.428 389.005 703.582 386.682 698.203 381.181C693.924 376.902 689.156 375.435 683.411 377.758C681.21 378.613 679.865 377.758 678.765 375.924C676.442 372.379 673.875 369.078 671.308 365.41C666.907 369.689 663.117 373.723 661.772 379.958C661.038 383.748 660.183 387.415 659.205 391.083C659.205 391.205 659.205 391.328 659.082 391.45C657.371 398.785 655.415 405.998 653.581 413.333C653.092 415.533 653.337 417.123 654.926 418.712C661.405 425.803 667.396 433.26 671.797 441.817C673.386 444.874 675.342 447.93 677.42 451.475C682.188 444.263 686.589 437.661 690.868 430.937C691.112 431.059 691.357 431.304 691.601 431.426C688.423 440.717 685.122 450.008 681.455 460.155C689.768 456.243 697.225 452.82 705.416 448.908C704.682 455.754 703.827 462.234 703.093 468.713C702.971 469.324 702.971 470.058 702.849 470.791C702.237 475.192 701.748 479.471 701.259 483.994C694.413 481.06 688.056 478.371 681.577 475.681C675.831 489.618 670.33 503.188 664.706 516.758C664.462 516.636 664.095 516.513 663.85 516.513C663.484 508.078 663.361 499.643 662.75 491.207C662.628 489.618 661.65 487.54 660.305 486.806C653.948 482.405 647.469 478.249 640.745 474.336C639.767 473.725 637.566 473.725 636.588 474.336C620.695 485.095 620.818 485.217 613.238 503.066C612.994 503.555 612.871 503.921 612.627 504.41C610.549 507.711 608.592 511.257 606.147 514.191C605.658 514.802 605.047 515.413 604.558 516.147C601.869 519.325 598.812 522.381 595.512 525.927C599.79 526.905 603.702 527.638 607.492 528.616C609.693 529.105 611.893 529.594 613.972 530.083C614.461 530.206 615.072 530.328 615.439 529.961C619.962 527.638 624.852 526.171 629.131 523.237C629.375 522.993 629.62 522.87 629.987 522.626C631.087 521.77 632.187 520.792 633.043 519.814C635.61 516.88 638.3 514.068 640.745 511.257C640.011 513.946 639.155 516.513 638.055 518.958C637.077 521.281 635.977 523.482 634.877 525.804C634.021 527.394 632.432 528.983 630.842 529.717C626.808 531.795 622.896 533.751 618.862 535.585C617.028 539.374 616.05 543.775 615.928 548.543C615.805 549.032 615.805 549.521 615.805 550.01C615.805 555.878 617.15 561.135 619.351 565.659C621.673 564.192 623.874 562.48 625.952 560.402C628.52 557.957 631.087 555.512 633.654 553.067C633.41 552.089 633.41 550.988 633.41 550.01C633.41 549.521 633.41 549.032 633.532 548.543C634.143 539.741 640.622 534.118 647.713 534.118C654.437 534.118 660.916 539.863 661.528 548.543C661.65 549.032 661.65 549.521 661.65 550.01C661.65 554.9 659.816 558.935 657.249 561.746C664.584 559.179 671.797 556.612 679.01 554.045C679.254 552.7 679.254 551.355 679.254 550.01C679.254 549.521 679.254 549.032 679.132 548.543H685C684.878 549.032 684.878 549.521 684.878 550.01C684.878 550.622 684.878 551.233 685 551.844C686.834 551.233 688.667 550.499 690.501 549.888C691.357 549.644 692.09 549.155 692.946 548.543C693.924 547.81 694.78 546.954 695.391 545.976C700.281 538.396 704.805 530.695 709.45 522.993C710.673 521.159 711.773 519.325 713.118 517.369C713.851 516.269 714.585 515.046 715.441 513.824C716.296 515.169 717.274 516.513 718.13 517.736C719.108 519.325 720.208 520.792 721.064 522.259C722.409 524.704 723.876 525.315 726.81 524.704C728.032 524.46 729.377 524.093 730.722 523.726C730.844 523.604 730.966 523.604 731.089 523.604C737.201 522.015 743.314 520.67 749.426 519.203V492.185H749.304L749.06 479.349V479.227C746.981 476.292 744.781 473.481 742.336 470.669C741.725 469.935 741.113 469.324 740.502 468.591C738.057 466.023 735.612 463.334 732.922 460.889C730.722 458.81 728.888 456.61 726.688 454.287C727.421 454.165 727.788 454.043 727.91 454.165C734.023 459.177 740.747 463.578 746.859 468.468C747.715 469.08 748.449 469.813 749.304 470.547C754.439 475.07 759.084 480.205 762.385 486.684C763.852 489.74 766.175 492.307 767.764 495.119C770.087 499.031 773.266 501.599 777.178 503.799C800.161 516.636 823.022 529.472 845.883 542.431C846.861 543.042 847.839 543.653 849.673 544.876C841.849 545.609 835.247 546.098 828.646 546.71C828.523 547.076 828.401 547.565 828.401 547.932C828.646 548.054 828.768 548.177 829.012 548.177C872.901 567.492 916.789 586.808 960.677 606.124C960.922 605.635 961.289 605.268 961.411 604.779C947.963 589.742 934.393 574.705 920.823 559.546C922.413 559.79 923.635 560.402 924.736 561.135C945.152 574.461 965.69 587.664 985.984 601.234C989.04 603.19 990.996 603.19 993.808 600.989C999.187 596.833 1004.93 593.165 1010.43 589.009C1012.51 587.542 1014.47 587.053 1016.91 587.786C1027.79 590.72 1038.55 593.532 1049.43 596.344C1050.65 596.588 1051.88 596.955 1053.1 597.077C1052.37 596.344 1051.27 595.488 1050.04 594.877ZM743.314 439.984C733.778 433.138 723.631 426.781 714.951 418.712C706.149 410.521 698.448 400.863 690.379 391.694C690.257 391.572 690.257 391.45 690.134 391.328C689.645 390.839 689.156 390.227 688.667 389.738C688.545 389.494 688.545 389.005 688.178 388.149C691.357 389.249 694.413 390.35 697.469 391.328C697.836 391.45 698.081 391.572 698.325 391.694C701.748 392.795 704.805 393.895 708.228 394.873C712.14 395.973 714.707 398.051 716.785 401.474C720.82 407.709 725.465 413.7 729.499 419.812C731.089 422.257 732.678 422.624 735.368 422.135C740.869 421.035 746.37 420.057 751.872 419.323C753.216 419.201 755.295 419.812 755.906 420.79C762.507 430.57 768.987 440.473 775.588 450.253C775.711 450.62 775.833 451.109 776.077 451.475C775.955 451.72 775.711 451.842 775.588 451.964C767.52 445.852 759.329 439.739 751.138 433.627C750.894 433.749 750.771 433.871 750.527 434.116C754.072 439.495 757.495 444.996 760.918 450.62C760.674 450.742 760.551 450.986 760.307 451.231C754.806 447.563 748.937 444.018 743.314 439.984ZM602.969 548.91C599.301 553.8 595.756 558.69 592.088 563.58C587.687 569.571 583.286 575.561 578.519 582.162C594.289 579.351 606.147 567.981 609.204 550.255L602.969 548.91ZM642.579 565.047C642.212 565.781 641.723 566.637 641.356 567.37C643.19 566.881 644.168 566.637 645.024 566.27C645.268 566.148 645.635 566.025 645.879 565.903C644.779 565.903 643.679 565.414 642.579 565.047Z" fill="#EDD6AC"/>
</g>
</g>
<defs>
<clipPath id="clip0_187_1575">
<rect width="919.7" height="505.7" fill="white"/>
</clipPath>
</defs>
</svg>
