<svg width="147" height="83" viewBox="0 0 147 83" fill="none" xmlns="http://www.w3.org/2000/svg">
<mask id="mask0_373_1254" style="mask-type:luminance" maskUnits="userSpaceOnUse" x="0" y="0" width="147" height="83">
<path d="M126.225 0H19.8258C8.87632 0 0 8.87632 0 19.8258V63.1742C0 74.1237 8.87632 83 19.8258 83H126.225C137.175 83 146.051 74.1237 146.051 63.1742V19.8258C146.051 8.87632 137.175 0 126.225 0Z" fill="white"/>
</mask>
<g mask="url(#mask0_373_1254)">
<path d="M10.7312 57.8652V66.4817C9.40099 66.6008 8.24948 67.3989 7.60225 68.61H-8.41962V57.8652H10.7312Z" fill="#940300"/>
<path d="M37.3593 68.2328V67.1885H35.5368C35.5011 67.2123 35.4772 67.248 35.4534 67.2679C34.9968 67.7404 34.5004 67.9509 33.9485 68.0462V72.6324H36.4183C37.1449 70.8416 37.8755 69.0468 38.5942 67.26C38.1098 67.4942 37.7008 67.8238 37.3593 68.2328ZM44.5543 57.8652C44.4947 57.9963 44.4233 58.1114 44.3637 58.2425C44.3081 58.3814 44.2366 58.5244 44.1652 58.6633C44.1056 58.5125 44.046 58.3695 43.9666 58.2425C43.9071 58.1114 43.8356 57.9844 43.7522 57.8652H20.6426C20.6069 57.9963 20.5711 58.1233 20.5235 58.2425C20.2297 59.2153 19.8643 60.1683 19.3482 61.0855C19.2886 61.2046 19.2211 61.3198 19.1496 61.4389C19.2092 61.4627 19.2886 61.4984 19.3601 61.5342C19.4077 61.4984 19.4554 61.4627 19.503 61.427C20.2892 60.8036 21.0873 60.1802 22.0165 59.4773C22.0165 59.934 22.0284 60.1802 22.0165 60.4144C21.8894 62.777 22.0641 65.1197 22.5009 67.4228C22.5009 67.4823 22.5088 67.53 22.5208 67.5856C22.8622 69.3406 21.6075 70.3968 21.1588 71.7945C21.0873 71.7826 21.0278 71.7588 20.9603 71.7469C20.9126 70.786 20.865 69.833 20.8173 68.8681C20.1344 69.7615 19.6777 70.9249 19.5705 72.279C19.8643 72.3822 20.1582 72.5013 20.452 72.6324H22.898C23.0052 71.0322 24.0495 69.9481 25.4631 69.9481C26.7655 69.9481 27.9408 71.0322 28.0718 72.6324H31.4906V67.1647H32.7493C34.7704 64.1072 36.724 61.1808 38.6856 58.2425H38.8643C38.8881 58.2663 38.9238 58.2782 38.9437 58.2901C38.1217 60.6289 37.3117 62.9557 36.4778 65.3183C38.6062 64.2502 39.9919 62.6142 40.8854 60.474C40.9211 61.697 40.9449 62.8723 40.6749 64C40.4367 64.9649 40.1666 65.9298 39.8847 66.8827C39.5671 67.939 39.2375 68.9872 38.9238 70.0434C38.9119 70.0911 38.9 70.1387 38.8881 70.1983C39.0509 70.1506 39.2176 70.1268 39.3924 70.1268C39.5552 70.1268 39.71 70.1506 39.849 70.1864C40.9211 69.5272 41.9217 68.9158 42.9184 68.2804C43.0613 68.1971 43.1288 67.9985 43.2122 67.8238C43.2122 67.8 43.2241 67.7762 43.236 67.7523C44.6575 64.7068 45.6582 61.5104 46.4086 58.2425C46.4563 58.1114 46.4801 57.9963 46.5158 57.8652H44.5543ZM46.8573 57.8652C46.8454 57.9963 46.8335 58.1114 46.8216 58.2425C46.5158 61.2403 46.1982 64.2502 45.8686 67.248C45.8567 67.3513 45.8448 67.4466 45.8329 67.5538C45.809 67.8556 45.682 68.1732 45.5073 68.4472C44.6218 69.833 43.7284 71.2307 42.8231 72.6324H44.6337C44.729 70.9726 45.5271 70.1268 46.6945 70.1268C47.6912 70.1268 48.4813 70.9488 48.4813 72.2551V72.6324H55.0727C55.0966 72.6204 55.1085 72.6085 55.1323 72.5966C56.1448 71.8541 56.9906 70.9845 57.753 70.0196C58.2493 69.3843 58.7179 68.7172 59.1666 68.0223C60.731 65.5883 62.2439 63.1542 63.304 60.4502C63.6098 59.7116 63.9751 58.9929 64.2689 58.2425C64.3166 58.1591 64.3484 58.0638 64.3841 57.9724C64.396 57.9486 64.4198 57.901 64.4317 57.8652H46.8573ZM16.9498 65.8583C17.3032 64.413 17.6566 62.9914 18.01 61.558C18.0418 61.3912 18.0894 61.2284 18.1252 61.0736C18.2919 60.4025 18.4547 59.7354 18.6096 59.0644C18.6771 58.8063 18.6215 58.4172 18.4667 58.2425C18.4667 58.2425 18.4627 58.2345 18.4547 58.2186L18.1013 57.8652H9.48488C9.38958 58.0042 9.28634 58.1352 9.16722 58.2425C8.94486 58.4529 8.68676 58.6038 8.3691 58.6991C7.05082 59.112 6.04226 59.9221 5.1012 60.9108C2.7148 63.4242 0.245007 65.8583 -2.20096 68.3162C-2.3042 68.4234 -2.41141 68.5266 -2.53053 68.61C-2.72906 68.7847 -2.93951 68.9515 -3.16584 69.0786C-4.8812 70.103 -6.58464 71.1394 -8.29999 72.1598V72.6324H7.27318C7.11038 72.1241 7.01509 71.5841 7.01509 70.9964C7.01509 70.103 7.22951 69.293 7.60275 68.61C8.24998 67.3989 9.40149 66.6008 10.7317 66.4817C10.8508 66.4579 10.966 66.4579 11.0851 66.4579C12.9076 66.4579 14.353 67.53 14.7977 69.7377L18.2443 68.8681C18.0775 67.9985 17.7837 67.2123 17.3866 66.5174C17.1484 66.7279 16.9022 66.9542 16.656 67.1766C16.7394 66.8113 16.7751 66.5651 16.8307 66.3189C16.8664 66.164 16.9022 66.0132 16.9498 65.8583ZM14.8215 72.1837C14.7858 72.3385 14.7501 72.4894 14.7064 72.6324H15.6236C15.6792 72.5609 15.7388 72.4775 15.8102 72.3941L14.8215 72.1837ZM95.1611 57.8652C95.1135 57.9963 95.0579 58.1114 94.9984 58.2425C94.2439 59.8506 93.4935 61.4389 92.7271 63.051C92.6953 63.1304 92.6477 63.2257 92.6119 63.3091C92.5762 63.2853 92.5167 63.2734 92.469 63.2495C92.4809 63.19 92.4928 63.1304 92.5047 63.0748C88.7326 63.5553 85.8855 66.8708 85.8855 70.9964C85.8855 71.4411 85.9213 71.8898 85.9928 72.3147C87.2991 72.5013 88.4745 72.279 89.356 70.6907C89.3679 70.6788 89.3798 70.6668 89.4036 70.6549C89.5545 68.2328 91.2937 66.4579 93.4577 66.4579C94.2796 66.4579 95.0341 66.6802 95.6575 67.1289C96.3841 66.2236 96.9837 65.223 97.6667 64.2819C97.8414 64.0238 98.0439 63.7776 98.2424 63.5315C99.7235 61.7208 101.367 60.0531 102.86 58.2425C102.968 58.1233 103.075 57.9963 103.178 57.8652H95.1611ZM84.3449 71.056C84.3131 71.1473 84.2655 71.2545 84.2298 71.3498C84.1702 71.5007 84.1464 71.6913 84.0987 71.8422C84.2417 71.8898 84.3926 71.9256 84.5355 71.9613C84.4998 71.6436 84.4283 71.3498 84.3449 71.056ZM134.86 71.6079H131.851C132.156 70.5477 132.994 69.9283 133.864 69.833C133.367 68.9277 132.875 68.0223 132.383 67.117C130.183 67.8238 128.559 69.8687 128.468 72.6324H135.436C135.25 72.2909 135.051 71.9494 134.86 71.6079ZM126.681 62.2132L126.633 59.8387V59.8268C126.244 59.2748 125.835 58.7586 125.386 58.2425C125.279 58.1114 125.164 57.9844 125.045 57.8652H118.108C118.088 57.9844 118.076 58.1114 118.064 58.2425C117.957 59.0525 117.862 59.8625 117.759 60.6844C116.488 60.1444 115.301 59.6401 114.101 59.1359C113.041 61.7208 112.021 64.2382 110.984 66.7517C110.937 66.7398 110.881 66.716 110.822 66.7041C110.762 65.1436 110.726 63.5791 110.623 62.0146C110.611 61.7208 110.409 61.3436 110.174 61.1927C108.999 60.3827 107.788 59.6163 106.553 58.8897C106.367 58.7825 105.965 58.7825 105.791 58.8976C103.832 60.2318 102.389 62.004 101.463 64.2144C101.427 64.2938 101.403 64.3772 101.348 64.4606C100.958 65.0721 100.593 65.7193 100.136 66.2832C100.041 66.3983 99.934 66.5174 99.8307 66.6366C99.3225 67.2242 98.7586 67.7881 98.1471 68.4472C98.9373 68.6219 99.6639 68.7728 100.371 68.9396C100.78 69.0349 101.181 69.1143 101.582 69.2096C101.661 69.2334 101.78 69.2453 101.852 69.1977C102.686 68.7609 103.603 68.4909 104.389 67.9509C104.437 67.9151 104.484 67.8794 104.544 67.8476C104.743 67.6928 104.945 67.5181 105.12 67.3156C105.588 66.7755 106.085 66.2474 106.553 65.7193C106.426 66.2117 106.247 66.6922 106.049 67.1528C105.87 67.5856 105.672 67.9985 105.461 68.4115C105.294 68.7053 105.013 68.9991 104.707 69.1381C103.968 69.5272 103.226 69.8806 102.487 70.234C102.158 70.9368 101.959 71.7469 101.935 72.6324H105.215C105.33 71.0083 106.529 69.9481 107.836 69.9481C109.142 69.9481 110.282 71.0083 110.397 72.6324H116.23C116.416 72.5013 116.571 72.3266 116.686 72.1479C117.592 70.7502 118.426 69.3168 119.295 67.8913C119.522 67.5538 119.732 67.2123 119.966 66.847C120.109 66.6366 120.236 66.4221 120.391 66.1998C120.554 66.4579 120.733 66.6922 120.895 66.9185C121.082 67.2123 121.273 67.4823 121.435 67.7642C121.682 68.209 121.967 68.3281 122.496 68.209C122.73 68.1534 122.964 68.0938 123.21 68.0343C123.234 68.0223 123.258 68.0223 123.282 68.0223C124.409 67.7285 125.553 67.4704 126.693 67.2123V62.2132H126.681ZM126.208 57.8652C126.363 57.9844 126.514 58.1114 126.657 58.2425C127.61 59.0763 128.468 60.0293 129.079 61.2284C129.349 61.7923 129.782 62.2608 130.088 62.8008C130.512 63.5315 131.1 64.0119 131.831 64.401C136.095 66.7755 140.328 69.1619 144.573 71.5603C144.759 71.6675 144.938 71.7826 145.276 72.0089C143.83 72.136 142.607 72.2432 141.376 72.3584C141.364 72.4298 141.341 72.5132 141.329 72.5847C141.364 72.6085 141.396 72.6204 141.444 72.6324H154.484V57.8652H126.208ZM109.071 57.8652C109.106 57.901 109.13 57.9248 109.162 57.9367C109.456 58.0399 109.761 58.1352 110.067 58.2425C110.917 58.5244 111.787 58.7825 112.759 59.0882C112.771 58.7944 112.831 58.5125 112.867 58.2425C112.89 58.1114 112.914 57.9844 112.914 57.8652H109.071ZM82.7844 57.8652C82.7963 57.9963 82.8082 58.1233 82.8201 58.2425C82.8321 58.5958 82.8519 58.9572 82.8757 59.3106C82.8876 59.4535 82.8757 59.5806 82.7606 59.7235C82.6772 59.2391 82.5819 58.7348 82.4906 58.2425C82.4668 58.1114 82.4548 57.9963 82.4191 57.8652H65.7977C65.7143 57.9724 65.619 58.0876 65.5237 58.1948C65.5157 58.2067 65.4919 58.2186 65.4919 58.2425C65.2656 58.5363 65.1623 59.0048 65.1862 59.3701C65.3251 61.7804 65.5356 64.1549 65.6905 66.5651C65.7024 66.7279 65.6905 66.8947 65.6666 67.0575C65.6309 67.2917 65.5594 67.5419 65.4681 67.7404C64.7732 69.2572 64.0307 70.7502 63.304 72.2432C63.2326 72.3822 63.1492 72.5132 63.0579 72.6324H63.8322C63.9989 70.9011 64.8209 70.1268 66.0081 70.1268C67.1001 70.1268 67.8426 71.0441 67.8426 72.3822V72.6324H76.1295C76.2486 71.0083 77.4478 69.9481 78.7502 69.9481C79.1631 69.9481 79.5721 70.0673 79.9493 70.2896C80.6204 69.4558 81.3033 68.6338 82.0776 67.9032C82.701 67.3156 83.3721 66.7874 84.1345 66.3546C84.6864 66.037 85.1708 65.5764 85.7227 65.2468C87.4262 64.2025 88.7564 62.8128 89.8483 61.1331C90.4956 60.1444 91.246 59.2153 91.9171 58.2425C92.0124 58.1233 92.1077 57.9963 92.1752 57.8652H82.7844ZM60.87 72.6324H62.9387C63.3398 71.1711 63.7369 69.7139 64.1736 68.1415C63.0221 69.6225 61.9063 71.1155 60.87 72.6324Z" fill="#940300"/>
<path d="M64.5866 56.853C64.4436 54.2323 64.2808 51.5997 64.1141 48.979C64.0903 48.578 64.0545 48.1769 64.0228 47.7679C63.9751 47.756 63.9036 47.7441 63.856 47.7322C62.6092 49.9399 61.3743 52.1397 60.0957 54.4308C60.0957 51.9888 60.0838 49.6937 60.1076 47.3907C60.1195 46.9659 60.1989 46.5211 60.3419 46.1082C60.6476 45.2505 60.9534 44.3928 61.271 43.5352C61.271 43.5113 61.283 43.4994 61.2949 43.4756H57.0621V43.5352C56.9668 44.6271 56.8715 45.7349 56.7682 46.8269C56.7444 47.1922 56.6372 47.5535 56.4863 47.8831C55.5691 49.8724 54.6042 51.8459 53.7227 53.8431C53.405 54.5618 53.2859 55.348 53.1112 56.1025C53.0397 56.4082 52.9921 56.7259 52.9365 57.0435C52.8888 57.0555 52.8174 57.0793 52.7578 57.0912C52.2178 55.9715 51.6778 54.8676 51.1616 53.7399C51.0782 53.5612 51.1258 53.3269 51.1735 53.1284C51.8048 50.2933 52.4163 47.4622 53.1589 44.6509C53.2541 44.2618 53.417 43.9005 53.6036 43.5352C53.6155 43.5113 53.6155 43.4994 53.6274 43.4756H-8.29999V57.8655H9.48488C9.38958 58.0045 9.28634 58.1355 9.16722 58.2427H18.4667C18.4667 58.2427 18.4667 58.2308 18.4547 58.2189L18.1013 57.8655H20.6426C20.6069 57.9965 20.5711 58.1236 20.5235 58.2427H43.9666C43.9071 58.1117 43.8356 57.9846 43.7522 57.8655C43.2718 57.0912 42.7198 56.4559 42.8231 55.4553C43.2479 51.4806 43.6251 47.4979 43.9666 43.5352H45.2809C45.0705 43.8409 44.9633 44.2737 44.9275 44.6509C44.7647 46.7673 44.6456 48.8956 44.5186 51.0001C44.4471 51.9293 44.4114 52.8584 44.3399 53.9146C45.3286 53.4103 46.1744 52.9736 47.0201 52.5407C47.0678 52.5765 47.1035 52.6122 47.1631 52.644C46.3054 54.3395 45.4715 56.0429 44.5543 57.8655C44.4947 57.9965 44.4233 58.1117 44.3637 58.2427H46.4086C46.4563 58.1117 46.4801 57.9965 46.5158 57.8655C46.5397 57.7106 46.5873 57.5478 46.623 57.3969C46.6826 57.0912 46.7739 56.8053 46.8573 56.5115C46.9407 56.7497 46.9526 56.9482 46.9288 57.1587C46.905 57.3969 46.8692 57.6312 46.8573 57.8655C46.8454 57.9965 46.8335 58.1117 46.8216 58.2427H64.2689C64.3166 58.1593 64.3484 58.064 64.3841 57.9727C64.396 57.9489 64.4198 57.9012 64.4317 57.8655C64.5508 57.5478 64.6104 57.1825 64.5866 56.853ZM54.898 45.3577C55.2395 44.782 55.45 44.1824 55.4976 43.5352C55.5095 43.5232 55.5095 43.4994 55.4976 43.4756H54.3937C54.3937 43.4756 54.3818 43.5113 54.3818 43.5352C54.1674 44.77 53.957 46.0049 53.7346 47.2597C53.7942 47.2716 53.8418 47.2954 53.8855 47.3192C54.2151 46.6601 54.5327 45.993 54.898 45.3577ZM85.1113 43.5352C85.1113 43.5352 85.0993 43.4994 85.0874 43.4756H84.6626C84.6745 43.5113 84.6983 43.5352 84.7221 43.5352C84.9246 43.7456 85.1351 43.9243 85.3574 44.1109C85.2741 43.9124 85.1946 43.7218 85.1113 43.5352ZM117.052 43.4756C117.111 43.4994 117.159 43.5232 117.203 43.5352C117.826 43.7456 118.414 43.9481 119.037 44.1347C119.756 44.3452 120.236 44.7343 120.625 45.3577C121.38 46.5092 122.226 47.6131 122.988 48.7646C123.282 49.2133 123.588 49.2967 124.08 49.2014C125.092 49.0028 126.117 48.8122 127.137 48.6852C127.384 48.6613 127.761 48.7765 127.892 48.9552C129.127 50.7658 130.326 52.6003 131.537 54.4189C131.569 54.4785 131.593 54.5738 131.616 54.6452C131.593 54.681 131.557 54.7127 131.537 54.7246C130.032 53.597 128.527 52.4693 127.01 51.3297C126.975 51.3535 126.939 51.3773 126.903 51.4131C127.55 52.4216 128.186 53.4342 128.833 54.4665C128.797 54.4904 128.761 54.538 128.726 54.5857C127.654 53.8908 126.562 53.2197 125.529 52.4812C123.754 51.2106 121.872 50.0233 120.272 48.5422C118.64 47.0135 117.215 45.2267 115.722 43.5352C115.71 43.5113 115.69 43.4875 115.678 43.4756H87.1681L87.2276 43.5352C87.6366 44.0394 88.0615 44.5477 88.4983 45.052C88.7206 45.2981 89.0502 45.5324 89.3679 45.6515C91.4604 46.3663 93.5649 47.0731 95.6813 47.7441C96.0069 47.8474 96.408 47.8473 96.7494 47.7798C97.7262 47.5535 98.6871 47.2716 99.8307 46.9659C99.3939 48.0856 99.3463 49.1656 98.2186 49.7652C96.9241 50.472 95.725 51.3416 94.4464 52.0801C94.1526 52.2469 93.7158 52.2707 93.3624 52.2231C92.3539 52.0563 91.5398 51.5163 90.8489 50.7658C90.0945 49.9876 89.2845 49.2728 88.3672 48.4152C87.8987 49.0267 87.4857 49.5905 87.037 50.1901C85.1946 47.9784 83.3363 45.7548 81.478 43.5352L81.4185 43.4756H64.666V43.5352C64.6422 44.4881 64.6303 45.453 64.6422 46.4258C64.666 47.6369 64.8923 48.8599 65.0075 50.059C65.1385 51.2701 65.2537 52.4812 65.3728 53.6803C65.4324 53.6923 65.4919 53.7161 65.5356 53.728C66.8658 51.8935 68.1841 50.059 69.5103 48.2127C69.2998 49.4714 68.8988 50.6348 68.6407 51.8101C68.1483 54.0576 67.3026 56.1144 65.7977 57.8655C65.7143 57.9727 65.619 58.0878 65.5237 58.1951C65.5157 58.207 65.4919 58.2189 65.4919 58.2427H82.4906C82.4668 58.1117 82.4548 57.9965 82.4191 57.8655C82.2444 56.9006 82.0657 55.9238 81.891 54.951C81.6528 53.5612 81.4185 52.1754 81.1485 50.8016C81.077 50.4958 80.938 50.1901 80.7514 49.9399C79.8461 48.7209 78.9527 47.486 77.9759 46.3107C77.3525 45.5682 77.0825 44.7224 76.9157 43.6185C77.1658 43.9005 77.3167 44.0394 77.4239 44.2181C78.5754 46.1677 80.2431 47.6726 81.8076 49.2609C82.0061 49.4833 82.2444 49.789 82.2523 50.059C82.4548 52.6678 82.6057 55.2805 82.7844 57.8655C82.7963 57.9965 82.8082 58.1236 82.8201 58.2427H91.9171C92.0124 58.1236 92.1077 57.9965 92.1752 57.8655C92.199 57.8536 92.2109 57.8417 92.2228 57.8178C92.9415 56.714 93.8111 55.7967 94.9031 55.0542C95.6694 54.5261 96.3722 53.9265 97.1147 53.3508C97.1505 53.3984 97.1942 53.4342 97.2418 53.4699C96.5509 54.9391 95.856 56.4082 95.1611 57.8655C95.1135 57.9965 95.0579 58.1117 94.9984 58.2427H102.86C102.968 58.1236 103.075 57.9965 103.178 57.8655C103.837 57.0555 104.472 56.2176 105.036 55.3242C105.072 55.2925 105.155 55.2805 105.271 55.221C105.39 55.7372 105.473 56.2295 105.624 56.7021C105.672 56.8768 105.882 57.0793 106.061 57.111C107.601 57.3374 107.788 57.2183 108.411 55.8086C108.447 55.7372 108.519 55.6657 108.622 55.5148C108.705 56.2176 108.753 56.8053 108.856 57.3969C108.88 57.5478 108.963 57.7464 109.071 57.8655C109.106 57.9012 109.13 57.925 109.162 57.937C109.456 58.0402 109.761 58.1355 110.067 58.2427H112.867C112.89 58.1117 112.914 57.9846 112.914 57.8655C112.938 57.6193 112.914 57.3969 112.819 57.2302C111.739 55.1852 110.055 53.4937 109.317 51.1272C108.459 52.1993 107.657 53.188 106.871 54.1727C106.907 53.2912 107.069 52.4812 107.224 51.6831L107.645 49.249C106.601 48.8956 105.791 49.3403 105.001 49.8367C104.85 49.658 104.742 49.5428 104.659 49.4118C103.591 47.7679 102.475 46.1558 101.487 44.4643C101.3 44.1228 101.085 43.8052 100.863 43.5352H109.94C109.623 44.8852 109.257 46.2392 108.916 47.5893C108.824 47.9903 108.88 48.2841 109.174 48.578C110.385 49.8843 111.481 51.2701 112.303 52.8703C112.597 53.4461 112.962 54.0099 113.347 54.6691C114.229 53.3269 115.043 52.104 115.841 50.8691C115.888 50.8929 115.936 50.9286 115.984 50.9525C115.384 52.6678 114.784 54.399 114.113 56.2891C115.666 55.5625 117.028 54.9271 118.545 54.1965C118.402 55.4553 118.251 56.6663 118.108 57.8655C118.088 57.9846 118.076 58.1117 118.064 58.2427H125.386C125.279 58.1117 125.164 57.9846 125.045 57.8655C124.6 57.385 124.128 56.9006 123.647 56.444C123.246 56.0667 122.893 55.6538 122.484 55.221C122.623 55.2091 122.682 55.1852 122.706 55.2091C123.846 56.1382 125.081 56.9482 126.208 57.8655C126.363 57.9846 126.514 58.1117 126.657 58.2427H154.484V43.4756H117.052Z" fill="#DA0404"/>
<path d="M-8.29999 28.7676V43.5347H53.6036C53.6155 43.5109 53.6155 43.499 53.6274 43.4751C53.8736 43.0066 54.1595 42.546 54.3937 42.0655C54.4652 42.1013 54.5446 42.1251 54.6161 42.1489C54.5446 42.5936 54.4652 43.0304 54.3937 43.4751C54.3937 43.487 54.3818 43.5109 54.3818 43.5347H55.4976C55.4976 43.5347 55.5095 43.499 55.4976 43.4751C55.5214 43.3679 55.5214 43.2409 55.5214 43.1217C55.4857 39.2423 56.5459 35.5178 57.2606 31.7297C57.2844 31.6265 57.344 31.5312 57.5187 31.4359C57.5783 32.8018 57.7649 34.1638 57.6855 35.5178C57.5068 38.1742 57.2844 40.8306 57.0621 43.4751V43.5347H61.271C61.271 43.5109 61.283 43.499 61.2949 43.4751C62.3392 40.5368 63.4113 37.6104 64.4675 34.6601C64.7017 34.0248 64.9598 33.4014 65.21 32.7542C65.3251 32.8733 65.3371 32.9527 65.3371 33.0361C65.1504 35.5655 64.9241 38.0908 64.7851 40.6321C64.7375 41.5692 64.6898 42.5222 64.666 43.4751V43.5347H81.478L81.4185 43.4751C80.5251 42.3951 79.6197 41.3111 78.7263 40.2311C78.7502 40.1834 78.7502 40.1477 78.774 40.1C79.5403 40.3144 80.2789 40.5844 81.0532 40.7234C82.1967 40.9498 83.1021 41.454 83.7572 42.4308C84.0193 42.8041 84.337 43.1575 84.6626 43.4751C84.6745 43.5109 84.6983 43.5347 84.7221 43.5347H85.1113C85.1113 43.5347 85.0993 43.499 85.0874 43.4751C84.746 42.6532 84.4045 41.8193 84.0511 40.9736C84.6864 40.783 85.1232 40.914 85.5004 41.4064C86.0523 42.1132 86.6042 42.7922 87.1681 43.4751L87.2276 43.5347H115.722C115.71 43.5109 115.69 43.487 115.678 43.4751C115.583 43.3798 115.499 43.2766 115.404 43.1813C115.384 43.1336 115.384 43.0542 115.324 42.8756C115.924 43.0741 116.488 43.2885 117.052 43.4751C117.111 43.499 117.159 43.5228 117.203 43.5347H154.484V28.7676H-8.29999Z" fill="#EE2700"/>
<path d="M154.492 14.2148H-8.29999V28.978H154.492V14.2148Z" fill="#FF5601"/>
<path d="M154.492 -0.337891H-8.29999V14.4253H154.492V-0.337891Z" fill="#FD8D03"/>
<path d="M57.3732 78.6362H57.7464V77.8738C57.6193 78.12 57.4883 78.3781 57.3732 78.6362ZM37.3528 68.2329V67.1886H35.5302C35.4945 67.2124 35.4706 67.2481 35.4468 67.268C34.9902 67.7405 34.4939 67.951 33.9419 68.0463V75.9678C34.5415 75.265 35.153 74.5463 35.7526 73.8395C35.963 73.5814 36.1536 73.2757 36.2807 72.97C36.3164 72.8667 36.3641 72.7476 36.4117 72.6324C37.1384 70.8416 37.869 69.0469 38.5877 67.2601C38.1032 67.4943 37.6943 67.8239 37.3528 68.2329ZM112.812 57.23C111.732 55.1851 110.049 53.4936 109.31 51.127C108.453 52.1991 107.65 53.1878 106.864 54.1726C106.9 53.2911 107.063 52.481 107.218 51.6829L107.639 49.2489C106.594 48.8955 105.784 49.3402 104.994 49.8365C104.843 49.6578 104.736 49.5427 104.653 49.4117C103.584 47.7678 102.469 46.1557 101.48 44.4641C101.293 44.1227 101.079 43.805 100.857 43.535C100.845 43.5112 100.833 43.4873 100.821 43.4754C100.209 42.725 99.4588 42.1492 98.4582 41.8196C96.6833 41.2439 95.2618 40.1361 93.9792 38.7979C93.2049 37.9958 92.3592 37.2692 91.5333 36.5505C91.3347 36.3758 91.0409 36.1971 90.8185 36.2209C89.7464 36.3996 89.0555 35.9033 88.3964 35.129C87.773 34.3547 87.0106 33.7075 86.3515 32.9649C85.6209 32.143 84.8228 31.4362 83.7864 31.0272C83.0955 30.7572 82.7064 30.2609 82.4483 29.57C82.3649 29.3675 82.3053 29.1808 82.2378 28.9823C82.214 28.9068 82.1902 28.8393 82.1663 28.7679C81.8963 27.9578 81.6144 27.1478 81.0585 26.6753C80.2723 25.9963 78.9659 25.9368 77.9097 25.5357C77.3221 25.3133 76.7582 25.0076 76.242 24.6423C75.6663 24.2333 75.1461 23.7489 74.4989 23.185C74.0661 23.7131 73.4069 24.1261 73.3354 24.6304C73.1369 25.9963 72.9503 27.3702 73.0178 28.7679C73.0297 28.8393 73.0297 28.8949 73.0416 28.9783C73.0654 29.4628 73.1369 29.9313 73.2322 30.4038C73.3593 31.063 73.3831 31.73 73.4546 32.3773C72.9741 31.5553 72.6088 30.6976 72.3626 29.8161C72.2792 29.5104 72.1601 29.2404 72.0092 28.9823H72.0053C71.9735 28.8949 71.9258 28.8274 71.8782 28.7679C71.6439 28.3827 71.3382 28.0531 70.9848 27.7236C70.679 27.4178 70.409 27.0049 70.282 26.584C69.3766 23.7012 68.5031 20.8105 67.6454 17.9199C67.4707 17.3322 67.1888 16.9192 66.6488 16.6135C65.3781 15.9186 64.1671 15.1562 62.9322 14.4375C62.9202 14.4375 62.9202 14.4256 62.9202 14.4256C62.8051 14.3462 62.686 14.2747 62.5549 14.2152C62.551 14.2152 62.551 14.2112 62.547 14.2112C61.9276 13.834 61.2843 13.4647 60.5934 13.0518C60.2877 13.4528 59.9382 13.834 59.6087 14.2112H59.6047C59.5451 14.2867 59.4776 14.3581 59.43 14.4256C59.0289 14.8981 58.6875 15.3667 58.5008 15.8829C57.9132 17.5069 57.7583 19.2937 57.4327 20.9972C57.4645 21.021 57.5121 21.0329 57.5598 21.0448C58.0879 19.8099 58.62 18.575 59.1481 17.356C59.2195 17.3679 59.299 17.3759 59.3704 17.3997C58.6636 20.9058 58.9138 24.4318 59.2513 27.9578H59.0766C58.6319 27.3106 58.1713 26.6634 57.6312 25.8653C57.3493 26.854 57.0793 27.8189 56.8093 28.7679C56.7855 28.8393 56.7617 28.8949 56.7497 28.9783C56.174 31.0153 55.5982 33.0126 55.0225 35.0456C54.3395 34.1045 54.2204 33.6955 54.411 32.8021C54.6691 31.5315 54.9153 30.249 55.2091 28.9823C55.221 28.8949 55.2329 28.8393 55.2448 28.7679C55.2925 28.5693 55.3401 28.3827 55.3719 28.1921C55.5863 27.263 55.6777 26.3338 55.491 25.3967C55.3838 24.7852 55.3521 24.1499 55.2568 23.5384C55.1376 22.5974 55.0106 21.6444 54.8676 20.5167C53.7519 22.0812 52.7512 23.4908 51.7546 24.9004C51.1193 25.7938 50.4006 26.6753 50.2378 27.8189C50.1901 28.1683 50.1067 28.486 49.9678 28.7679C49.9439 28.8393 49.8963 28.9069 49.8645 28.9783H49.8605C49.5072 29.5938 48.9433 29.9789 48.1214 30.1815C47.5814 30.3085 47.2955 30.6857 47.1088 31.2138C46.7554 32.2621 46.402 33.3064 45.9335 34.3189C45.465 35.3871 45.3101 36.4472 45.4769 37.6107C45.592 38.3492 45.6397 39.1037 45.6992 39.8541C45.7588 39.8541 45.8144 39.8422 45.862 39.8422C46.3822 38.115 46.8865 36.3758 47.4027 34.6366C47.498 34.6485 47.5893 34.6604 47.6846 34.6723C47.6846 35.8358 47.7442 36.9992 47.6846 38.1626C47.5694 40.1599 46.815 41.8871 45.4173 43.3484C45.3816 43.392 45.3458 43.4278 45.3101 43.4754C45.2982 43.4873 45.2863 43.5112 45.2744 43.535C45.0639 43.8407 44.9567 44.2735 44.921 44.6508C44.7582 46.7672 44.639 48.8955 44.512 50.9999C44.4405 51.9291 44.4048 52.8582 44.3333 53.9145C45.322 53.4102 46.1678 52.9734 47.0135 52.5406C47.0612 52.5763 47.0969 52.6121 47.1565 52.6438C46.2988 54.3393 45.465 56.0428 44.5477 57.8653C44.4882 57.9964 44.4167 58.1115 44.3571 58.2425C44.3015 58.3815 44.2301 58.5245 44.1586 58.6634C44.099 58.5126 44.0395 58.3696 43.9601 58.2425C43.9005 58.1115 43.829 57.9844 43.7456 57.8653C43.2652 57.091 42.7132 56.4557 42.8165 55.4551C43.2413 51.4804 43.6186 47.4978 43.9601 43.535C43.9601 43.5112 43.972 43.4993 43.9601 43.4754C43.9839 43.3365 43.9958 43.1935 44.0037 43.0625C44.0871 42.0182 44.0037 40.962 43.9243 39.9018C43.8528 38.9965 43.6781 38.0911 43.5114 36.9634C42.749 37.6107 41.8317 38.0197 41.5617 38.6788C40.9264 40.279 40.2435 41.8554 39.7154 43.4754C39.7034 43.4993 39.7034 43.5112 39.6915 43.535C39.2309 44.9446 38.8696 46.3899 38.7266 47.9068C38.6552 48.8121 38.4328 49.7055 38.2581 50.6823C38.0238 50.5393 37.8571 50.4599 37.7181 50.3646C36.2807 49.4117 34.7996 48.554 33.4734 47.4978C31.7898 46.1795 30.0149 45.429 27.8667 45.8142C27.7952 45.8261 27.7238 45.838 27.6642 45.8142C27.1957 45.6752 26.6795 45.6037 26.2784 45.3576C25.4565 44.8612 24.7021 44.2616 23.8325 43.6621C23.6101 47.2714 23.7133 50.7538 22.8318 54.1606C22.6095 52.7987 22.399 51.4328 22.1886 50.0589C21.5652 52.6557 21.3508 55.3241 20.636 57.8653C20.6003 57.9964 20.5646 58.1234 20.5169 58.2425C20.2231 59.2154 19.8578 60.1683 19.3416 61.0856C19.282 61.2047 19.2145 61.3199 19.143 61.439C19.2026 61.4628 19.282 61.4985 19.3535 61.5343C19.4011 61.4985 19.4488 61.4628 19.4964 61.4271C20.2826 60.8037 21.0808 60.1803 22.0099 59.4774C22.0099 59.9341 22.0218 60.1803 22.0099 60.4145C21.8828 62.7771 22.0576 65.1198 22.4943 67.4229C22.4943 67.4824 22.5023 67.5301 22.5142 67.5857C22.8557 69.3407 21.6009 70.3969 21.1522 71.7946C21.0808 71.7827 21.0212 71.7589 20.9537 71.747C20.906 70.7861 20.8584 69.8331 20.8107 68.8682C20.1278 69.7616 19.6712 70.925 19.5639 72.279C19.8578 72.3823 20.1516 72.5014 20.4454 72.6324C20.4574 72.6404 20.4931 72.6523 20.5169 72.6642C21.3389 73.0533 22.0695 73.0891 22.8914 72.6523C22.9033 72.6523 22.9033 72.6404 22.9152 72.6404C22.9271 72.6404 22.9271 72.6324 22.9391 72.6324H22.8914C22.9986 71.0322 24.0429 69.9482 25.4565 69.9482C26.7589 69.9482 27.9342 71.0322 28.0653 72.6324C28.0772 72.7238 28.0772 72.8191 28.0772 72.9144C28.0772 74.6893 26.8423 75.8765 25.4565 75.8765C24.9482 75.8765 24.4916 75.7336 24.1025 75.4874C23.6339 76.3808 23.1495 77.2861 22.669 78.1795C22.7167 78.2153 22.7643 78.251 22.808 78.2987C24.9363 77.5085 27.0765 76.7223 29.1929 75.944C29.2406 76.0036 29.2882 76.0512 29.324 76.0989C28.78 76.627 28.3591 77.2623 27.8985 77.8619C27.958 77.8261 28.0176 77.7785 28.0772 77.7189V78.6362H31.4721V72.6324H31.484V67.1648H32.7428C34.7639 64.1073 36.7175 61.1809 38.679 58.2425C38.7028 58.2187 38.7147 58.1949 38.7266 58.1711C38.7743 58.2068 38.8219 58.2187 38.8577 58.2425C38.8815 58.2664 38.9172 58.2783 38.9371 58.2902C38.1152 60.6289 37.3051 62.9558 36.4713 65.3184C38.5996 64.2502 39.9854 62.6143 40.8788 60.4741C40.9145 61.6971 40.9383 62.8724 40.6683 64.0001C40.4301 64.965 40.1601 65.9299 39.8782 66.8828C39.5605 67.939 39.2309 68.9873 38.9172 70.0435C38.9053 70.0912 38.8934 70.1388 38.8815 70.1984C39.0443 70.1507 39.2111 70.1269 39.3858 70.1269C39.5486 70.1269 39.7034 70.1507 39.8424 70.1865C40.9145 69.5273 41.9151 68.9158 42.9118 68.2805C43.0547 68.1971 43.1222 67.9986 43.2056 67.8239C43.2056 67.8001 43.2175 67.7762 43.2294 67.7524C44.651 64.7069 45.6516 61.5104 46.402 58.2425C46.4497 58.1115 46.4735 57.9964 46.5093 57.8653C46.5331 57.7105 46.5807 57.5477 46.6165 57.3968C46.676 57.091 46.7674 56.8051 46.8507 56.5113C46.9341 56.7496 46.946 56.9481 46.9222 57.1585C46.8984 57.3968 46.8626 57.6311 46.8507 57.8653C46.8388 57.9964 46.8269 58.1115 46.815 58.2425C46.5093 61.2404 46.1916 64.2502 45.862 67.2481C45.8501 67.3514 45.8382 67.4467 45.8263 67.5539C45.8025 67.8557 45.6754 68.1733 45.5007 68.4473C44.6152 69.8331 43.7218 71.2308 42.8165 72.6324C42.2765 73.502 41.7365 74.3597 41.1964 75.2055V78.6362H44.6033V73.0295C44.6033 72.8905 44.6033 72.7595 44.6271 72.6324C44.7224 70.9727 45.5205 70.1269 46.6879 70.1269C47.6846 70.1269 48.4748 70.9489 48.4748 72.2552V78.6362H49.8605C50.6587 78.251 51.3178 77.7189 51.8578 77.0757V72.6324H54.3514V73.232C54.5738 73.0176 54.82 72.8191 55.0662 72.6324C55.09 72.6205 55.1019 72.6086 55.1257 72.5967C56.1383 71.8542 56.984 70.9846 57.7464 70.0197C58.2427 69.3844 58.7113 68.7173 59.16 68.0224C60.7244 65.5884 62.2373 63.1543 63.2975 60.4503C63.6032 59.7117 63.9685 58.993 64.2624 58.2425C64.31 58.1592 64.3418 58.0639 64.3775 57.9725C64.3894 57.9487 64.4132 57.9011 64.4251 57.8653C64.5443 57.5477 64.6038 57.1824 64.58 56.8528C64.4371 54.2321 64.2743 51.5995 64.1075 48.9788C64.0837 48.5778 64.0479 48.1768 64.0162 47.7678C63.9685 47.7559 63.897 47.744 63.8494 47.732C62.6026 49.9398 61.3677 52.1395 60.0891 54.4306C60.0891 51.9887 60.0772 49.6936 60.101 47.3906C60.1129 46.9657 60.1924 46.521 60.3353 46.108C60.6411 45.2503 60.9468 44.3927 61.2645 43.535C61.2645 43.5112 61.2764 43.4993 61.2883 43.4754C62.3326 40.5371 63.4047 37.6107 64.4609 34.6604C64.6952 34.0251 64.9533 33.4017 65.2034 32.7545C65.3186 32.8736 65.3305 32.953 65.3305 33.0364C65.1439 35.5658 64.9175 38.0911 64.7785 40.6324C64.7309 41.5695 64.6833 42.5225 64.6594 43.4754V43.535C64.6356 44.488 64.6237 45.4529 64.6356 46.4257C64.6594 47.6367 64.8858 48.8597 65.0009 50.0589C65.1319 51.27 65.2471 52.481 65.3662 53.6802C65.4258 53.6921 65.4853 53.7159 65.529 53.7278C66.8592 51.8934 68.1775 50.0589 69.5037 48.2125C69.2933 49.4712 68.8922 50.6346 68.6341 51.81C68.1417 54.0574 67.296 56.1142 65.7911 57.8653C65.7077 57.9725 65.6124 58.0877 65.5171 58.1949C65.5092 58.2068 65.4853 58.2187 65.4853 58.2425C65.259 58.5364 65.1558 59.0049 65.1796 59.3702C65.3186 61.7805 65.529 64.1549 65.6839 66.5652C65.6958 66.728 65.6839 66.8947 65.66 67.0575C65.6243 67.2918 65.5528 67.542 65.4615 67.7405C64.7666 69.2573 64.0241 70.7503 63.2975 72.2433C63.226 72.3823 63.1426 72.5133 63.0513 72.6324C63.0394 72.6523 63.0275 72.688 63.0155 72.7118C62.9798 72.688 62.956 72.6761 62.9202 72.6642C62.9202 72.6523 62.9322 72.6404 62.9322 72.6324C63.3332 71.1712 63.7303 69.714 64.1671 68.1416C63.0155 69.6226 61.8998 71.1156 60.8634 72.6324C60.7006 72.8667 60.5458 73.101 60.3949 73.3353V78.6362H61.5583C62.2174 78.1557 62.9441 77.9929 63.7898 78.2272V73.3233C63.7898 73.0772 63.8018 72.8429 63.8256 72.6324C63.9923 70.9012 64.8143 70.1269 66.0015 70.1269C67.0935 70.1269 67.836 71.0442 67.836 72.3823V77.437C68.9518 76.6032 70.0914 75.7931 71.2191 74.9712V72.6324H72.8431C72.8312 72.7238 72.8312 72.8191 72.8312 72.9144C72.8312 73.2638 72.855 73.6053 72.9146 73.9229C73.5737 73.7244 74.2646 73.7125 74.9237 73.502C74.9476 73.5576 74.9833 73.6053 75.0071 73.6648C74.5227 74.4193 74.0422 75.1697 73.5618 75.9321C73.6412 76.0751 73.7127 76.218 73.808 76.3451C74.6537 75.6383 75.5352 74.9593 76.3691 74.2168C76.2063 73.8395 76.111 73.3948 76.111 72.9144C76.111 72.8191 76.111 72.7238 76.1229 72.6324C76.242 71.0084 77.4412 69.9482 78.7436 69.9482C79.1565 69.9482 79.5655 70.0674 79.9427 70.2897C80.6138 69.4559 81.2967 68.6339 82.071 67.9033C82.6944 67.3156 83.3655 66.7875 84.1279 66.3547C84.6798 66.0371 85.1642 65.5765 85.7162 65.2469C87.4196 64.2026 88.7498 62.8128 89.8417 61.1332C90.489 60.1445 91.2394 59.2154 91.9105 58.2425C92.0058 58.1234 92.1011 57.9964 92.1686 57.8653C92.1924 57.8534 92.2043 57.8415 92.2162 57.8177C92.9349 56.7138 93.8045 55.7966 94.8965 55.0541C95.6628 54.5259 96.3656 53.9264 97.1082 53.3506C97.1439 53.3983 97.1876 53.434 97.2352 53.4697C96.5443 54.9389 95.8494 56.4081 95.1546 57.8653C95.1069 57.9964 95.0513 58.1115 94.9918 58.2425C94.2373 59.8507 93.4869 61.439 92.7205 63.0511C92.6888 63.1305 92.6411 63.2258 92.6054 63.3092C92.5696 63.2854 92.5101 63.2734 92.4624 63.2496C92.4743 63.1901 92.4862 63.1305 92.4982 63.0749C88.726 63.5554 85.879 66.8709 85.879 70.9965C85.879 71.4412 85.9147 71.8899 85.9862 72.3148C87.2925 72.5014 88.4679 72.279 89.3494 70.6908C89.3613 70.6788 89.3732 70.6669 89.397 70.655C89.5479 68.2329 91.2871 66.458 93.4511 66.458C94.2731 66.458 95.0275 66.6803 95.6509 67.129C96.3776 66.2237 96.9771 65.2231 97.6601 64.282C97.8348 64.0239 98.0373 63.7777 98.2358 63.5315C99.7169 61.7209 101.361 60.0532 102.854 58.2425C102.961 58.1234 103.068 57.9964 103.171 57.8653C103.831 57.0553 104.466 56.2175 105.03 55.3241C105.065 55.2923 105.149 55.2804 105.264 55.2208C105.383 55.737 105.467 56.2294 105.617 56.7019C105.665 56.8766 105.876 57.0791 106.054 57.1109C107.595 57.3372 107.781 57.2181 108.405 55.8085C108.441 55.737 108.512 55.6655 108.615 55.5147C108.699 56.2175 108.746 56.8051 108.85 57.3968C108.873 57.5477 108.957 57.7462 109.064 57.8653C109.1 57.9011 109.124 57.9249 109.155 57.9368C109.449 58.04 109.755 58.1353 110.061 58.2425C110.91 58.5245 111.78 58.7826 112.753 59.0883C112.765 58.7945 112.824 58.5126 112.86 58.2425C112.884 58.1115 112.908 57.9844 112.908 57.8653C112.931 57.6191 112.908 57.3968 112.812 57.23ZM57.0555 43.535C56.9602 44.6269 56.8649 45.7348 56.7617 46.8267C56.7378 47.192 56.6306 47.5534 56.4797 47.8829C55.5625 49.8723 54.5976 51.8457 53.7161 53.843C53.3985 54.5617 53.2793 55.3479 53.1046 56.1023C53.0331 56.4081 52.9855 56.7257 52.9299 57.0434C52.8823 57.0553 52.8108 57.0791 52.7512 57.091C52.2112 55.9713 51.6712 54.8674 51.155 53.7397C51.0716 53.5611 51.1193 53.3268 51.1669 53.1283C51.7983 50.2932 52.4097 47.462 53.1523 44.6508C53.2476 44.2616 53.4104 43.9003 53.597 43.535C53.6089 43.5112 53.6089 43.4993 53.6208 43.4754C53.867 43.0069 54.1529 42.5463 54.3872 42.0658C54.4586 42.1016 54.5381 42.1254 54.6095 42.1492C54.5381 42.5939 54.4586 43.0307 54.3872 43.4754C54.3872 43.4873 54.3753 43.5112 54.3753 43.535C54.1608 44.7699 53.9504 46.0048 53.728 47.2595C53.7876 47.2714 53.8352 47.2953 53.8789 47.3191C54.2085 46.66 54.5261 45.9929 54.8914 45.3576C55.2329 44.7818 55.4434 44.1822 55.491 43.535C55.5029 43.5231 55.5029 43.4993 55.491 43.4754C55.5149 43.3682 55.5149 43.2412 55.5149 43.122C55.4791 39.2426 56.5393 35.5181 57.254 31.73C57.2779 31.6268 57.3374 31.5315 57.5121 31.4362C57.5717 32.8021 57.7583 34.1641 57.6789 35.5181C57.5002 38.1745 57.2779 40.8309 57.0555 43.4754V43.535ZM82.8136 58.2425C82.8255 58.5959 82.8453 58.9573 82.8692 59.3107C82.8811 59.4536 82.8692 59.5807 82.754 59.7236C82.6706 59.2392 82.5753 58.7349 82.484 58.2425C82.4602 58.1115 82.4483 57.9964 82.4125 57.8653C82.2378 56.9004 82.0591 55.9236 81.8844 54.9508C81.6462 53.5611 81.4119 52.1753 81.1419 50.8014C81.0704 50.4957 80.9314 50.1899 80.7448 49.9398C79.8395 48.7207 78.9461 47.4859 77.9693 46.3105C77.3459 45.568 77.0759 44.7222 76.9091 43.6184C77.1593 43.9003 77.3101 44.0393 77.4174 44.218C78.5689 46.1676 80.2366 47.6725 81.801 49.2608C81.9996 49.4831 82.2378 49.7889 82.2458 50.0589C82.4483 52.6676 82.5991 55.2804 82.7778 57.8653C82.7897 57.9964 82.8017 58.1234 82.8136 58.2425ZM94.4398 52.08C94.146 52.2467 93.7092 52.2706 93.3558 52.2229C92.3473 52.0562 91.5333 51.5161 90.8424 50.7657C90.0879 49.9874 89.2779 49.2727 88.3607 48.415C87.8921 49.0265 87.4792 49.5903 87.0305 50.1899C85.188 47.9782 83.3298 45.7546 81.4715 43.535L81.4119 43.4754C80.5185 42.3954 79.6132 41.3114 78.7197 40.2313C78.7436 40.1837 78.7436 40.148 78.7674 40.1003C79.5337 40.3147 80.2723 40.5847 81.0466 40.7237C82.1902 40.9501 83.0955 41.4543 83.7507 42.4311C84.0127 42.8044 84.3304 43.1578 84.656 43.4754C84.6679 43.5112 84.6917 43.535 84.7155 43.535C84.918 43.7454 85.1285 43.9241 85.3509 44.1107C85.2675 43.9122 85.1881 43.7216 85.1047 43.535C85.1047 43.5231 85.0928 43.4993 85.0809 43.4754C84.7394 42.6535 84.3979 41.8196 84.0445 40.9739C84.6798 40.7833 85.1166 40.9143 85.4938 41.4067C86.0457 42.1135 86.5977 42.7925 87.1615 43.4754L87.2211 43.535C87.6301 44.0393 88.0549 44.5475 88.4917 45.0518C88.7141 45.298 89.0436 45.5323 89.3613 45.6514C91.4539 46.3661 93.5583 47.0729 95.6747 47.744C96.0003 47.8472 96.4014 47.8472 96.7429 47.7797C97.7197 47.5534 98.6806 47.2714 99.8241 46.9657C99.3874 48.0854 99.3397 49.1655 98.212 49.765C96.9176 50.4718 95.7184 51.3414 94.4398 52.08ZM84.3383 71.0561C84.3065 71.1474 84.2589 71.2546 84.2232 71.3499C84.1636 71.5008 84.1398 71.6914 84.0921 71.8423C84.2351 71.8899 84.386 71.9257 84.5289 71.9614C84.4932 71.6437 84.4217 71.3499 84.3383 71.0561ZM35.3634 78.6362H37.3528V77.167C36.7651 77.8023 36.106 78.2987 35.3634 78.6362ZM14.815 72.1838C14.7792 72.3386 14.7435 72.4895 14.6998 72.6324C14.1241 74.6059 12.7581 75.5589 11.0785 75.5589C9.95082 75.5589 8.92638 75.0625 8.18385 74.2406C7.51677 75.1936 6.84572 76.1584 6.17467 77.1313C6.35335 77.298 6.53997 77.437 6.7266 77.58C7.75104 77.298 8.71593 77.0399 9.74831 76.7461C9.64508 77.4608 9.54978 78.1319 9.46639 78.8029C9.90318 78.8982 10.3479 78.9538 10.8204 78.9657C12.4166 76.8613 14.0168 74.7568 15.617 72.6324C15.6726 72.561 15.7322 72.4776 15.8037 72.3942L14.815 72.1838ZM16.9433 65.8584C17.2967 64.413 17.6501 62.9915 18.0034 61.5581C18.0352 61.3913 18.0829 61.2285 18.1186 61.0737C18.2854 60.4026 18.4482 59.7355 18.603 59.0645C18.6705 58.8064 18.6149 58.4173 18.4601 58.2425C18.4601 58.2425 18.4561 58.2346 18.4482 58.2187L18.0948 57.8653C16.4032 56.1619 14.6998 54.4902 12.9924 52.8344C12.8296 52.6677 12.6628 52.5168 12.4643 52.3381C12.3571 52.5049 12.2777 52.62 12.2062 52.7391C11.3723 54.3274 10.4908 55.8919 9.68876 57.5C9.63317 57.6311 9.54978 57.7462 9.47831 57.8653C9.38301 58.0043 9.27977 58.1353 9.16065 58.2425C8.93829 58.453 8.68019 58.6039 8.36253 58.6992C7.04425 59.1121 6.03569 59.9222 5.09463 60.9109C2.70823 63.4243 0.238438 65.8584 -2.20753 68.3163C-2.31077 68.4235 -2.41798 68.5267 -2.5371 68.6101C-2.73563 68.7848 -2.94608 68.9516 -3.17241 69.0786C-4.88776 70.1031 -6.5912 71.1395 -8.30655 72.1599C-12.8094 74.8759 -17.3002 77.58 -21.803 80.2959C-23.026 81.0107 -24.2371 81.7651 -25.472 82.5037C-25.4482 82.5394 -25.4243 82.587 -25.4005 82.6347C-25.2615 82.599 -25.0948 82.5751 -24.9439 82.5275C-20.0043 81.3521 -15.0687 80.1649 -10.1291 79.0253C-6.17825 78.0962 -2.29091 76.8176 1.86246 77.2266C2.14438 77.2623 2.51763 77.028 2.75587 76.8176C3.36736 76.2617 3.97886 75.7217 4.58638 75.1697C5.4917 74.3597 6.39703 73.5457 7.30235 72.7357C7.33809 72.6999 7.38573 72.6642 7.42147 72.6324H7.26661C7.10381 72.1242 7.00852 71.5842 7.00852 70.9965C7.00852 70.1031 7.22294 69.2931 7.59618 68.6101C8.24341 67.399 9.39492 66.6009 10.7251 66.4818C10.8442 66.458 10.9594 66.458 11.0785 66.458C12.9011 66.458 14.3464 67.5301 14.7911 69.7378L18.2377 68.8682C18.0709 67.9986 17.7771 67.2124 17.38 66.5175C17.1418 66.728 16.8956 66.9543 16.6494 67.1767C16.7328 66.8114 16.7686 66.5652 16.8241 66.319C16.8599 66.1641 16.8956 66.0132 16.9433 65.8584Z" fill="#EDD6AC"/>
<path d="M106.839 75.6616C106.767 75.8046 106.688 75.9555 106.605 76.0984C106.946 76.0031 107.121 75.9555 107.288 75.8999C107.343 75.876 107.391 75.8641 107.45 75.8403C107.24 75.8165 107.037 75.745 106.839 75.6616ZM99.4931 72.6756C98.8102 73.5929 98.151 74.4982 97.472 75.4035C96.658 76.5114 95.848 77.6152 94.9546 78.8382C97.881 78.3101 100.069 76.2056 100.633 72.9139L99.4931 72.6756ZM182.394 81.1889C177.28 78.0957 172.165 75.0065 167.043 71.9252C165.407 70.9365 163.819 69.8207 162.08 69.0345C159.578 67.9267 157.025 66.9181 154.476 65.8817C153.511 65.5045 152.546 65.1194 151.569 64.7183C151.335 64.623 151.077 64.5436 150.688 64.3887C150.938 66.4932 151.16 68.4548 151.406 70.5394C151.184 70.3488 151.053 70.2535 150.946 70.1503C147.293 66.1756 143.648 62.2128 140.002 58.2421C139.887 58.123 139.78 57.9959 139.661 57.8649C138.299 56.3957 136.933 54.9146 135.583 53.4335C135.349 53.1754 135.182 52.7982 135.111 52.4567C134.817 51.1742 134.57 49.8956 134.324 48.6012C134.241 48.1882 134.09 47.9658 133.665 47.8269C129.424 46.3895 125.18 44.9203 120.911 43.5345C120.899 43.5345 120.887 43.5226 120.875 43.5226C120.84 43.5107 120.792 43.4869 120.748 43.475C119.442 43.0421 118.171 42.6054 117.175 41.6048C116.373 40.8185 115.491 40.5485 114.435 40.9813C114.034 41.1362 113.788 40.9813 113.565 40.6438C113.14 39.9966 112.66 39.3732 112.176 38.7021C111.354 39.5003 110.647 40.2547 110.413 41.4062C110.274 42.1011 110.119 42.792 109.944 43.475C109.944 43.4988 109.944 43.5226 109.932 43.5345C109.614 44.8846 109.249 46.2386 108.908 47.5886C108.816 47.9897 108.872 48.2835 109.166 48.5773C110.377 49.8837 111.473 51.2695 112.295 52.8697C112.589 53.4454 112.954 54.0093 113.339 54.6684C114.221 53.3263 115.035 52.1033 115.833 50.8684C115.88 50.8923 115.928 50.928 115.976 50.9518C115.376 52.6672 114.776 54.3984 114.105 56.2885C115.658 55.5618 117.02 54.9265 118.537 54.1959C118.394 55.4546 118.243 56.6657 118.1 57.8649C118.08 57.984 118.068 58.111 118.056 58.2421C117.949 59.0521 117.854 59.8621 117.751 60.6841C116.48 60.144 115.293 59.6398 114.093 59.1355C113.033 61.7204 112.013 64.2379 110.976 66.7513C110.929 66.7394 110.873 66.7156 110.814 66.7037C110.754 65.1432 110.718 63.5787 110.615 62.0143C110.603 61.7204 110.401 61.3432 110.166 61.1923C108.991 60.3823 107.78 59.6159 106.545 58.8893C106.359 58.7821 105.957 58.7821 105.783 58.8972C103.824 60.2314 102.381 62.0037 101.455 64.214C101.419 64.2934 101.395 64.3768 101.34 64.4602C100.95 65.0717 100.585 65.7189 100.128 66.2828C100.033 66.3979 99.9259 66.5171 99.8227 66.6362C99.3144 67.2238 98.7506 67.7877 98.1391 68.4468C98.9293 68.6215 99.6559 68.7724 100.363 68.9392C100.772 69.0345 101.173 69.1139 101.574 69.2092C101.653 69.233 101.772 69.2449 101.844 69.1973C102.678 68.7605 103.595 68.4905 104.381 67.9505C104.429 67.9147 104.476 67.879 104.536 67.8472C104.734 67.6924 104.937 67.5177 105.112 67.3152C105.58 66.7752 106.077 66.247 106.545 65.7189C106.418 66.2113 106.239 66.6918 106.041 67.1524C105.862 67.5852 105.664 67.9981 105.453 68.4111C105.286 68.7049 105.004 68.9988 104.699 69.1377C103.96 69.5269 103.218 69.8803 102.479 70.2337C102.15 70.9365 101.951 71.7465 101.927 72.632C101.915 72.7233 101.915 72.8186 101.915 72.9139C101.915 74.0058 102.161 74.9826 102.582 75.8165C103.019 75.5465 103.432 75.2288 103.805 74.8516C104.278 74.395 104.758 73.9463 105.243 73.4896C105.207 73.2991 105.195 73.1124 105.195 72.9139C105.195 72.8186 105.195 72.7233 105.207 72.632C105.322 71.0079 106.521 69.9478 107.828 69.9478C109.134 69.9478 110.274 71.0079 110.389 72.632C110.401 72.7233 110.401 72.8186 110.401 72.9139C110.401 73.8311 110.071 74.5697 109.591 75.0859C110.941 74.6173 112.295 74.1329 113.633 73.6524C113.669 73.4063 113.681 73.1601 113.681 72.9139C113.681 72.8186 113.681 72.7233 113.669 72.632H114.753C114.741 72.7233 114.741 72.8186 114.741 72.9139C114.741 73.029 114.741 73.1362 114.753 73.2514C115.094 73.1362 115.432 73.0052 115.773 72.8901C115.928 72.8424 116.079 72.7471 116.222 72.632C116.408 72.5009 116.563 72.3262 116.678 72.1475C117.584 70.7498 118.418 69.3164 119.287 67.8909C119.514 67.5534 119.724 67.2119 119.958 66.8466C120.101 66.6362 120.228 66.4218 120.383 66.1994C120.546 66.4575 120.725 66.6918 120.887 66.9181C121.074 67.2119 121.265 67.4819 121.427 67.7639C121.674 68.2086 121.959 68.3277 122.488 68.2086C122.722 68.153 122.956 68.0934 123.202 68.0339C123.226 68.022 123.25 68.022 123.274 68.022C124.401 67.7281 125.545 67.47 126.685 67.2119V62.2128H126.673L126.625 59.8383V59.8264C126.236 59.2745 125.827 58.7583 125.378 58.2421C125.271 58.111 125.156 57.984 125.037 57.8649C124.592 57.3844 124.12 56.9 123.639 56.4433C123.238 56.0661 122.885 55.6532 122.476 55.2204C122.615 55.2084 122.674 55.1846 122.698 55.2084C123.838 56.1376 125.073 56.9476 126.2 57.8649C126.355 57.984 126.506 58.111 126.649 58.2421C127.602 59.0759 128.46 60.0289 129.071 61.2281C129.341 61.7919 129.774 62.2604 130.08 62.8005C130.504 63.5311 131.092 64.0115 131.823 64.4007C136.087 66.7752 140.32 69.1616 144.565 71.5599C144.751 71.6671 144.93 71.7822 145.268 72.0086C143.822 72.1356 142.599 72.2428 141.368 72.358C141.356 72.4295 141.333 72.5129 141.321 72.5843C141.356 72.6081 141.388 72.6201 141.436 72.632C149.572 76.2175 157.72 79.8031 165.844 83.3767C165.888 83.2934 165.947 83.21 165.983 83.1266C163.481 80.3312 160.976 77.5438 158.446 74.7444C158.752 74.792 158.967 74.9112 159.165 75.0382C162.961 77.5199 166.761 79.9659 170.521 82.4714C171.085 82.8447 171.451 82.8328 171.967 82.4238C172.967 81.6574 174.035 80.9665 175.06 80.2002C175.445 79.9182 175.798 79.8468 176.271 79.9778C178.28 80.5297 180.289 81.034 182.303 81.5661C182.525 81.6098 182.759 81.6693 182.982 81.7051C182.819 81.4589 182.616 81.3159 182.394 81.1889ZM125.521 52.4806C123.746 51.2099 121.864 50.0227 120.264 48.5416C118.632 47.0129 117.207 45.226 115.714 43.5345C115.702 43.5107 115.682 43.4869 115.67 43.475C115.575 43.3797 115.491 43.2764 115.396 43.1811C115.376 43.1335 115.376 43.0541 115.316 42.8754C115.916 43.0739 116.48 43.2883 117.044 43.475C117.103 43.4988 117.151 43.5226 117.195 43.5345C117.818 43.745 118.406 43.9475 119.029 44.1341C119.748 44.3445 120.228 44.7337 120.617 45.3571C121.372 46.5086 122.218 47.6125 122.98 48.764C123.274 49.2127 123.58 49.296 124.072 49.2007C125.084 49.0022 126.109 48.8116 127.129 48.6845C127.376 48.6607 127.753 48.7759 127.884 48.9546C129.119 50.7652 130.318 52.5997 131.529 54.4183C131.561 54.4778 131.584 54.5731 131.608 54.6446C131.584 54.6803 131.549 54.7121 131.529 54.724C130.024 53.5963 128.519 52.4686 127.002 51.329C126.967 51.3529 126.931 51.3767 126.895 51.4124C127.542 52.421 128.178 53.4335 128.825 54.4659C128.789 54.4897 128.753 54.5374 128.718 54.585C127.646 53.8902 126.554 53.2191 125.521 52.4806ZM137.898 75.074L136.357 74.7325C135.782 75.8522 134.864 76.0627 134.078 76.0627C132.939 76.0627 132.069 75.2169 131.787 73.8391H136.302C136.075 73.6405 135.877 73.4063 135.734 73.1601C135.631 72.9814 135.523 72.8067 135.428 72.632C135.242 72.2905 135.043 71.949 134.852 71.6075H131.843C132.148 70.5473 132.986 69.9279 133.856 69.8326C133.359 68.9273 132.867 68.022 132.375 67.1166C130.175 67.8234 128.551 69.8683 128.46 72.632C128.448 72.7233 128.448 72.8186 128.448 72.9139C128.448 75.4988 129.75 77.4842 131.608 78.4014C131.787 78.0719 131.974 77.7185 132.196 77.3452C132.256 77.7423 132.303 77.9448 132.327 78.1433C132.351 78.33 132.375 78.5325 132.398 78.7191C132.939 78.8978 133.49 78.9772 134.078 78.9772C136.322 78.9772 138.132 78.0044 139.121 75.9793C138.708 75.6855 138.311 75.3797 137.898 75.074ZM123.699 76.2056C123.429 76.4042 123.051 76.5431 122.71 76.555C121.054 76.5789 119.382 76.5789 117.715 76.567C117.254 76.555 116.948 76.698 116.666 77.0514C116.575 77.1665 116.48 77.2857 116.385 77.4048C117.314 78.4014 118.596 78.9772 119.958 78.9772C121.32 78.9772 122.44 78.5205 123.274 77.7185V78.6357H126.685V73.8192C125.696 74.6292 124.707 75.4274 123.699 76.2056Z" fill="#EDD6AC"/>
<path d="M15.8086 72.3935L14.8199 72.183C14.7842 72.3379 14.7484 72.4888 14.7048 72.6317C14.129 74.6052 12.7631 75.5582 11.0835 75.5582C9.95579 75.5582 8.93134 75.0618 8.18881 74.2399C7.81557 73.819 7.50982 73.3107 7.30731 72.735C7.2954 72.6992 7.28349 72.6635 7.27158 72.6317C7.10878 72.1235 7.01348 71.5835 7.01348 70.9958C7.01348 70.1024 7.2279 69.2924 7.60115 68.6094C8.24837 67.3983 9.39989 66.6002 10.7301 66.4811C10.8492 66.4573 10.9643 66.4573 11.0835 66.4573C12.906 66.4573 14.3514 67.5294 14.7961 69.7371L18.2427 68.8675C18.0759 67.9979 17.7821 67.2117 17.385 66.5168C17.2421 66.2945 17.1031 66.0681 16.9482 65.8577C15.6101 64.047 13.4699 63.0146 11.0835 63.0146C10.9643 63.0146 10.8492 63.0146 10.7301 63.0266C7.43835 63.1774 4.7462 65.4487 3.84087 68.6094C3.61851 69.3599 3.49939 70.1619 3.49939 70.9958C3.49939 71.5596 3.54704 72.0997 3.65425 72.6317C3.82896 73.545 4.14662 74.4066 4.59134 75.169C5.01621 75.9195 5.55622 76.5786 6.17963 77.1306C6.35831 77.2973 6.54493 77.4363 6.73156 77.5793C7.54556 78.1669 8.46279 78.5918 9.47136 78.8022C9.90814 78.8975 10.3529 78.9531 10.8254 78.965C10.9048 78.9769 11.0001 78.9769 11.0835 78.9769C14.7405 78.9769 17.6074 76.7454 18.2665 72.9137L15.8086 72.3935Z" fill="black"/>
<path d="M28.0821 67.1882V68.0935C27.2482 67.3033 26.1404 66.8467 24.7546 66.8467C23.9565 66.8467 23.1783 67.0452 22.4993 67.4224C21.852 67.752 21.2882 68.2444 20.8157 68.8678C20.1327 69.7612 19.6761 70.9246 19.5689 72.2786C19.557 72.4891 19.545 72.6995 19.545 72.9139C19.545 76.5313 21.9314 78.9772 24.7546 78.9772C26.0372 78.9772 27.0815 78.5921 27.8836 77.8972C27.8915 77.8853 27.9034 77.8853 27.9034 77.8615C27.963 77.8257 28.0225 77.7781 28.0821 77.7185V78.6358H31.4771V67.1882H28.0821ZM28.0821 72.9139C28.0821 74.6889 26.8472 75.8761 25.4614 75.8761C24.9532 75.8761 24.4965 75.7332 24.1074 75.487C23.3569 74.9946 22.8844 74.0893 22.8844 72.9139C22.8844 72.8186 22.8844 72.7353 22.8963 72.6519V72.632C23.0035 71.0318 24.0478 69.9478 25.4614 69.9478C26.7638 69.9478 27.9392 71.0318 28.0702 72.632C28.0821 72.7234 28.0821 72.8186 28.0821 72.9139Z" fill="black"/>
<path d="M47.7737 66.8467C47.0669 66.8467 46.4316 66.9857 45.8677 67.2477C45.1054 67.5614 44.482 68.1054 43.9896 68.7844C43.7752 68.4111 43.5171 68.0935 43.2113 67.8235C42.4966 67.1882 41.5436 66.8467 40.4953 66.8467C40.2849 66.8467 40.0864 66.8586 39.8839 66.8824C39.4034 66.942 38.9785 67.069 38.5934 67.2596C38.1089 67.4939 37.7 67.8235 37.3585 68.2325V67.1882H33.9476V78.6358H37.3585V73.0291C37.3585 71.3852 37.9461 70.4322 38.8872 70.198C39.05 70.1503 39.2168 70.1265 39.3915 70.1265C39.5543 70.1265 39.7091 70.1503 39.8481 70.1861C40.6383 70.3965 41.2021 71.147 41.2021 72.2548V78.6358H44.609V73.0291C44.609 72.8901 44.609 72.7591 44.6328 72.632C44.7281 70.9723 45.5263 70.1265 46.6936 70.1265C47.6903 70.1265 48.4805 70.9484 48.4805 72.2548V78.6358H51.8635V71.4765C51.8635 68.6931 50.0529 66.8467 47.7737 66.8467Z" fill="black"/>
<path d="M54.3562 67.1882V78.6358H57.7512V67.1882H54.3562ZM56.0478 61.7324C54.9082 61.7324 54.0981 62.6973 54.0981 63.8131C54.0981 64.9289 54.9082 65.8342 56.0478 65.8342C57.1874 65.8342 58.0371 64.9765 58.0371 63.8131C58.0371 62.6497 57.1993 61.7324 56.0478 61.7324Z" fill="black"/>
<path d="M67.0742 66.8467C66.5699 66.8467 66.1014 66.9182 65.6646 67.0571C64.934 67.2914 64.3026 67.7044 63.7944 68.2801V67.1882H60.3994V78.6358H63.7944V73.3229C63.7944 73.0767 63.8063 72.8425 63.8301 72.632C63.9969 70.9008 64.8188 70.1265 66.0061 70.1265C67.098 70.1265 67.8405 71.0437 67.8405 72.3819V78.6358H71.2236V71.6076C71.2236 68.7407 69.5559 66.8467 67.0742 66.8467Z" fill="black"/>
<path d="M84.5315 71.9612C84.4957 71.6435 84.4243 71.3497 84.3409 71.0559C83.9557 69.7137 83.1417 68.6218 82.0736 67.9031C81.1325 67.2479 79.9691 66.8945 78.7461 66.8945C75.5974 66.8945 72.9767 69.1737 72.8457 72.6322C72.8337 72.7236 72.8337 72.8189 72.8337 72.9141C72.8337 73.2636 72.8576 73.6051 72.9171 73.9227C73.0084 74.6652 73.2467 75.3323 73.5644 75.9319C73.6438 76.0748 73.7152 76.2178 73.8105 76.3449C74.8667 77.9808 76.7012 78.9536 78.7461 78.9536C81.9227 78.9536 84.603 76.5315 84.603 72.9141C84.603 72.5846 84.5791 72.2669 84.5315 71.9612ZM78.7461 75.8763C77.7495 75.8763 76.7965 75.2529 76.3717 74.2165C76.2089 73.8393 76.1136 73.3946 76.1136 72.9141C76.1136 72.8189 76.1136 72.7236 76.1255 72.6322C76.2446 71.0082 77.4437 69.948 78.7461 69.948C79.1591 69.948 79.5681 70.0671 79.9453 70.2895C80.7355 70.762 81.3231 71.7031 81.3231 72.9141C81.3231 74.7129 80.0644 75.8763 78.7461 75.8763Z" fill="black"/>
<path d="M99.4998 72.6754L97.1928 72.183C96.7123 74.4622 95.267 75.5582 93.4563 75.5582C91.201 75.5582 89.3903 73.5926 89.3903 70.9958C89.3903 70.8767 89.3903 70.7615 89.4022 70.6543C89.5531 68.2322 91.2923 66.4573 93.4563 66.4573C94.2783 66.4573 95.0327 66.6796 95.6561 67.1283C96.3827 67.6683 96.9228 68.5379 97.1729 69.7371L100.369 68.939L100.627 68.8675C100.473 68.0455 100.203 67.303 99.8293 66.6359C99.2853 65.6591 98.5468 64.861 97.6653 64.2813C96.4661 63.4594 95.0208 63.0146 93.4563 63.0146C93.2101 63.0146 92.9759 63.0266 92.7257 63.0504C92.6582 63.0623 92.5867 63.0623 92.5034 63.0742C88.7312 63.5547 85.8842 66.8702 85.8842 70.9958C85.8842 71.4405 85.9199 71.8892 85.9914 72.3141C86.5671 76.1577 89.6484 78.9769 93.4563 78.9769C93.9725 78.9769 94.4808 78.9293 94.9612 78.838C97.8877 78.3099 100.076 76.2054 100.639 72.9137L99.4998 72.6754Z" fill="black"/>
<path d="M113.677 72.6322C113.55 69.1737 110.926 66.8945 107.836 66.8945C107.213 66.8945 106.613 66.9739 106.05 67.1526C105.51 67.3035 105.001 67.5418 104.545 67.8475C104.485 67.8793 104.438 67.915 104.39 67.9507C103.58 68.5146 102.921 69.2928 102.488 70.2339C102.158 70.9367 101.96 71.7468 101.936 72.6322C101.924 72.7236 101.924 72.8189 101.924 72.9141C101.924 74.0061 102.17 74.9829 102.591 75.8167C103.58 77.7664 105.577 78.9536 107.836 78.9536C110.787 78.9536 113.316 76.8611 113.642 73.6527C113.677 73.4065 113.689 73.1603 113.689 72.9141C113.689 72.8189 113.689 72.7236 113.677 72.6322ZM107.836 75.8763C107.705 75.8763 107.59 75.8644 107.459 75.8406C107.249 75.8167 107.046 75.7453 106.848 75.6619C106.05 75.3125 105.414 74.5461 105.252 73.4899C105.216 73.2993 105.204 73.1127 105.204 72.9141C105.204 72.8189 105.204 72.7236 105.216 72.6322C105.331 71.0082 106.53 69.948 107.836 69.948C109.143 69.948 110.282 71.0082 110.398 72.6322C110.41 72.7236 110.41 72.8189 110.41 72.9141C110.41 73.8314 110.08 74.5699 109.599 75.0861C109.119 75.5944 108.484 75.8763 107.836 75.8763Z" fill="black"/>
<path d="M123.279 62.2129V68.0935C123.256 68.0697 123.232 68.0459 123.208 68.034C122.585 67.4582 121.822 67.081 120.893 66.9182C120.599 66.8706 120.293 66.8467 119.964 66.8467C117.2 66.8467 114.873 69.1736 114.758 72.6321C114.746 72.7234 114.746 72.8187 114.746 72.914C114.746 73.0291 114.746 73.1363 114.758 73.2515C114.826 74.9708 115.437 76.4043 116.39 77.4049C117.319 78.4015 118.602 78.9773 119.964 78.9773C121.326 78.9773 122.446 78.5206 123.279 77.7186V78.6358H126.69V62.2129H123.279ZM120.659 69.9479C122.045 69.9479 123.279 71.1589 123.279 72.914C123.279 74.669 122.045 75.8761 120.659 75.8761C119.178 75.8761 118.094 74.6889 118.094 72.914C118.094 71.1391 119.178 69.9479 120.659 69.9479Z" fill="black"/>
<path d="M139.619 73.8391V72.9139C139.551 69.1735 137.129 66.8467 134.107 66.8467C133.508 66.8467 132.92 66.942 132.38 67.1167C130.18 67.8235 128.556 69.8684 128.465 72.632C128.453 72.7234 128.453 72.8186 128.453 72.9139C128.453 75.4989 129.755 77.4842 131.614 78.4015C131.872 78.5325 132.13 78.6357 132.404 78.7191C132.944 78.8978 133.496 78.9772 134.083 78.9772C136.327 78.9772 138.138 78.0044 139.126 75.9793C139.222 75.7927 139.301 75.5942 139.384 75.3917L137.903 75.074L136.363 74.7325C135.787 75.8523 134.87 76.0627 134.083 76.0627C132.944 76.0627 132.074 75.217 131.792 73.8391H139.619ZM133.861 69.8327C133.941 69.8088 134.024 69.8088 134.107 69.8088C135.084 69.8088 135.942 70.3846 136.259 71.6076H131.848C132.154 70.5474 132.992 69.928 133.861 69.8327Z" fill="black"/>
<path d="M126.691 62.2168V63.1698L126.68 62.2168H126.691Z" fill="black"/>
</g>
</svg>
